SplineFontDB: 3.2
FontName: WpfLayeredDrawing-Regular
FullName: WpfLayeredDrawing Aktiv Regular
FamilyName: WpfLayeredDrawing Aktiv
Weight: Regular
Copyright: 
Version: 1.0
ItalicAngle: 0
UnderlinePosition: -325
UnderlineWidth: 96
Ascent: 1588
Descent: 460
InvalidEm: 0
sfntRevision: 0x00010000
LayerCount: 2
Layer: 0 1 "Back" 1
Layer: 1 1 "Fore" 0
XUID: [1021 49 -1730677525 18253]
StyleMap: 0x0040
FSType: 8
OS2Version: 4
OS2_WeightWidthSlopeOnly: 0
OS2_UseTypoMetrics: 0
CreationTime: 1548094070
ModificationTime: 1637954932
PfmFamily: 17
TTFWeight: 400
TTFWidth: 5
LineGap: 409
VLineGap: 0
Panose: 2 11 5 4 2 2 2 2 2 4
OS2TypoAscent: 1588
OS2TypoAOffset: 0
OS2TypoDescent: -460
OS2TypoDOffset: 0
OS2TypoLinegap: 409
OS2WinAscent: 1728
OS2WinAOffset: 0
OS2WinDescent: 420
OS2WinDOffset: 0
HheadAscent: 1588
HheadAOffset: 0
HheadDescent: -460
HheadDOffset: 0
OS2SubXSize: 1400
OS2SubYSize: 1300
OS2SubXOff: 0
OS2SubYOff: 450
OS2SupXSize: 1400
OS2SupYSize: 1300
OS2SupXOff: 0
OS2SupYOff: 1540
OS2StrikeYSize: 153
OS2StrikeYPos: 557
OS2CapHeight: 1324
OS2XHeight: 960
OS2FamilyClass: 2053
OS2Vendor: 'DAMA'
OS2CodePages: 2000009f.00000000
OS2UnicodeRanges: a00002ef.4000204b.00000000.00000000
Lookup: 1 0 0 "'locl' Localized Forms in Latin lookup 0" { "'locl' Localized Forms in Latin lookup 0 subtable"  } ['locl' ('latn' <'AZE ' 'CRT ' 'TRK ' > ) ]
Lookup: 4 0 0 "'dlig' Discretionary Ligatures lookup 1" { "'dlig' Discretionary Ligatures lookup 1 subtable"  } ['dlig' ('DFLT' <'dflt' > 'cyrl' <'BGR ' 'MKD ' 'SRB ' 'dflt' > 'grek' <'dflt' > 'latn' <'AZE ' 'CRT ' 'NLD ' 'TRK ' 'dflt' > ) ]
Lookup: 1 0 0 "'locl' Localized Forms in Cyrillic lookup 2" { "'locl' Localized Forms in Cyrillic lookup 2 subtable"  } ['locl' ('cyrl' <'MKD ' 'SRB ' > ) ]
Lookup: 1 0 0 "'locl' Localized Forms in Cyrillic lookup 3" { "'locl' Localized Forms in Cyrillic lookup 3 subtable"  } ['locl' ('cyrl' <'BGR ' > ) ]

StartChar: .notdef
Encoding: 65536 -1 0
Width: 410
Flags: W
LayerCount: 2
Fore
SplineSet
85 0 m 1,0,-1
 85 1406 l 1,1,-1
 325 1406 l 1,2,-1
 325 0 l 1,3,-1
 85 0 l 1,0,-1
EndSplineSet
Validated: 1
EndChar

StartChar: period
Encoding: 46 46 4
Width: 400
Flags: W
LayerCount: 2
Fore
SplineSet
110 0 m 1,0,-1
 110 213 l 1,1,-1
 289 213 l 1,2,-1
 289 0 l 1,3,-1
 110 0 l 1,0,-1
EndSplineSet
Validated: 1
EndChar

StartChar: comma
Encoding: 44 44 6
Width: 400
Flags: W
LayerCount: 2
Fore
SplineSet
88 -184 m 1,0,-1
 141 213 l 1,1,-1
 306 213 l 1,2,-1
 214 -184 l 1,3,-1
 88 -184 l 1,0,-1
EndSplineSet
Validated: 1
EndChar

StartChar: question
Encoding: 63 63 8
Width: 854
Flags: W
LayerCount: 2
Fore
SplineSet
333 380 m 1,0,-1
 333 407 l 2,1,2
 333 459 333 459 343.5 499.5 c 128,-1,3
 354 540 354 540 394.5 596 c 128,-1,4
 435 652 435 652 523 748 c 0,5,6
 564 792 564 792 599.5 846.5 c 128,-1,7
 635 901 635 901 635 987 c 0,8,9
 635 1094 635 1094 581 1154 c 128,-1,10
 527 1214 527 1214 427 1214 c 0,11,12
 315 1214 315 1214 256.5 1159.5 c 128,-1,13
 198 1105 198 1105 168 985 c 1,14,-1
 24 1009 l 1,15,16
 40 1098 40 1098 86 1175.5 c 128,-1,17
 132 1253 132 1253 216 1301 c 128,-1,18
 300 1349 300 1349 429 1349 c 0,19,20
 607 1349 607 1349 701.5 1252 c 128,-1,21
 796 1155 796 1155 796 1005 c 0,22,23
 796 895 796 895 756 823.5 c 128,-1,24
 716 752 716 752 657 692 c 0,25,26
 577 610 577 610 541 560.5 c 128,-1,27
 505 511 505 511 496 476.5 c 128,-1,28
 487 442 487 442 487 403 c 2,29,-1
 487 380 l 1,30,-1
 333 380 l 1,0,-1
322 0 m 1,31,-1
 322 212 l 1,32,-1
 496 212 l 1,33,-1
 496 0 l 1,34,-1
 322 0 l 1,31,-1
EndSplineSet
Validated: 1
EndChar

StartChar: exclam
Encoding: 33 33 9
Width: 604
Flags: W
LayerCount: 2
Fore
SplineSet
228 380 m 1,0,-1
 221 1326 l 1,1,-1
 383 1326 l 1,2,-1
 376 380 l 1,3,-1
 228 380 l 1,0,-1
215 0 m 1,4,-1
 215 212 l 1,5,-1
 389 212 l 1,6,-1
 389 0 l 1,7,-1
 215 0 l 1,4,-1
EndSplineSet
Validated: 1
EndChar

StartChar: questiondown
Encoding: 191 191 10
Width: 754
Flags: W
LayerCount: 2
Fore
SplineSet
320 748 m 1,0,-1
 320 960 l 1,1,-1
 494 960 l 1,2,-1
 494 748 l 1,3,-1
 320 748 l 1,0,-1
387 -389 m 0,4,5
 209 -389 209 -389 114.5 -292 c 128,-1,6
 20 -195 20 -195 20 -45 c 0,7,8
 20 65 20 65 60.5 136.5 c 128,-1,9
 101 208 101 208 159 268 c 0,10,11
 240 351 240 351 275.5 400 c 128,-1,12
 311 449 311 449 320 484 c 128,-1,13
 329 519 329 519 329 557 c 2,14,-1
 329 580 l 1,15,-1
 483 580 l 1,16,-1
 483 553 l 2,17,18
 483 501 483 501 472.5 460.5 c 128,-1,19
 462 420 462 420 422 364.5 c 128,-1,20
 382 309 382 309 293 212 c 0,21,22
 253 168 253 168 217 113.5 c 128,-1,23
 181 59 181 59 181 -27 c 0,24,25
 181 -134 181 -134 235 -194 c 128,-1,26
 289 -254 289 -254 389 -254 c 0,27,28
 502 -254 502 -254 560 -199.5 c 128,-1,29
 618 -145 618 -145 648 -25 c 1,30,-1
 792 -49 l 1,31,32
 776 -137 776 -137 730 -215 c 128,-1,33
 684 -293 684 -293 600.5 -341 c 128,-1,34
 517 -389 517 -389 387 -389 c 0,4,5
EndSplineSet
Validated: 1
EndChar

StartChar: exclamdown
Encoding: 161 161 11
Width: 524
Flags: W
LayerCount: 2
Fore
SplineSet
175 748 m 1,0,-1
 175 960 l 1,1,-1
 349 960 l 1,2,-1
 349 748 l 1,3,-1
 175 748 l 1,0,-1
181 -366 m 1,4,-1
 188 580 l 1,5,-1
 336 580 l 1,6,-1
 343 -366 l 1,7,-1
 181 -366 l 1,4,-1
EndSplineSet
Validated: 1
EndChar

StartChar: quotesingle
Encoding: 39 39 12
Width: 376
Flags: W
LayerCount: 2
Fore
SplineSet
121 853 m 1,0,-1
 110 1319 l 1,1,-1
 267 1319 l 1,2,-1
 256 853 l 1,3,-1
 121 853 l 1,0,-1
EndSplineSet
Validated: 1
EndChar

StartChar: zero
Encoding: 48 48 16
Width: 1064
Flags: W
LayerCount: 2
Fore
SplineSet
529 -34 m 0,0,1
 319 -34 319 -34 203 129.5 c 128,-1,2
 87 293 87 293 87 641 c 0,3,4
 87 991 87 991 208.5 1155 c 128,-1,5
 330 1319 330 1319 535 1319 c 0,6,7
 745 1319 745 1319 861 1155.5 c 128,-1,8
 977 992 977 992 977 644 c 0,9,10
 977 294 977 294 856 130 c 128,-1,11
 735 -34 735 -34 529 -34 c 0,0,1
534 107 m 256,12,13
 691 107 691 107 750.5 251 c 128,-1,14
 810 395 810 395 810 644 c 0,15,16
 810 894 810 894 748.5 1036 c 128,-1,17
 687 1178 687 1178 530 1178 c 256,18,19
 373 1178 373 1178 313.5 1034 c 128,-1,20
 254 890 254 890 254 641 c 0,21,22
 254 391 254 391 315.5 249 c 128,-1,23
 377 107 377 107 534 107 c 256,12,13
EndSplineSet
Validated: 1
Substitution2: "'zero' Slashed Zero lookup 34 subtable" zero.zero
EndChar

StartChar: one
Encoding: 49 49 17
Width: 1064
Flags: W
LayerCount: 2
Fore
SplineSet
527 0 m 1,0,-1
 527 1108 l 1,1,-1
 250 931 l 1,2,-1
 181 1047 l 1,3,-1
 544 1283 l 1,4,-1
 689 1283 l 1,5,-1
 689 0 l 1,6,-1
 527 0 l 1,0,-1
EndSplineSet
Validated: 1
Substitution2: "'sups' Superscript lookup 32 subtable" uni00B9
EndChar

StartChar: two
Encoding: 50 50 18
Width: 1064
Flags: W
LayerCount: 2
Fore
SplineSet
115 0 m 1,0,-1
 115 129 l 1,1,2
 190 200 190 200 264 268 c 128,-1,3
 338 336 338 336 416 409 c 0,4,5
 527 514 527 514 601.5 595.5 c 128,-1,6
 676 677 676 677 714 756 c 128,-1,7
 752 835 752 835 752 932 c 0,8,9
 752 1051 752 1051 692.5 1114 c 128,-1,10
 633 1177 633 1177 527 1177 c 0,11,12
 398 1177 398 1177 342 1118.5 c 128,-1,13
 286 1060 286 1060 254 944 c 1,14,-1
 105 968 l 1,15,16
 126 1055 126 1055 171.5 1135.5 c 128,-1,17
 217 1216 217 1216 303 1267.5 c 128,-1,18
 389 1319 389 1319 531 1319 c 0,19,20
 717 1319 717 1319 817 1214 c 128,-1,21
 917 1109 917 1109 917 944 c 0,22,23
 917 831 917 831 877.5 736 c 128,-1,24
 838 641 838 641 755.5 545 c 128,-1,25
 673 449 673 449 544 332 c 0,26,27
 501 293 501 293 449.5 247.5 c 128,-1,28
 398 202 398 202 332 144 c 1,29,-1
 929 144 l 1,30,-1
 906 0 l 1,31,-1
 115 0 l 1,0,-1
EndSplineSet
Validated: 1
Substitution2: "'sups' Superscript lookup 32 subtable" uni00B2
EndChar

StartChar: three
Encoding: 51 51 19
Width: 1064
Flags: W
LayerCount: 2
Fore
SplineSet
537 -34 m 0,0,1
 412 -34 412 -34 330 1.5 c 128,-1,2
 248 37 248 37 199.5 94.5 c 128,-1,3
 151 152 151 152 129.5 220 c 128,-1,4
 108 288 108 288 105 352 c 1,5,-1
 262 352 l 1,6,7
 275 227 275 227 335 166 c 128,-1,8
 395 105 395 105 533 105 c 0,9,10
 785 105 785 105 785 359 c 0,11,12
 785 488 785 488 719.5 542 c 128,-1,13
 654 596 654 596 541 596 c 2,14,-1
 404 596 l 1,15,-1
 404 739 l 1,16,-1
 546 739 l 2,17,18
 646 739 646 739 702.5 798.5 c 128,-1,19
 759 858 759 858 759 970 c 0,20,21
 759 1070 759 1070 701 1124.5 c 128,-1,22
 643 1179 643 1179 528 1179 c 0,23,24
 412 1179 412 1179 353 1128 c 128,-1,25
 294 1077 294 1077 264 961 c 1,26,-1
 116 985 l 1,27,28
 134 1070 134 1070 179 1146.5 c 128,-1,29
 224 1223 224 1223 309.5 1271 c 128,-1,30
 395 1319 395 1319 533 1319 c 0,31,32
 664 1319 664 1319 749.5 1273.5 c 128,-1,33
 835 1228 835 1228 877 1153 c 128,-1,34
 919 1078 919 1078 919 987 c 0,35,36
 919 876 919 876 875 803 c 128,-1,37
 831 730 831 730 746 684 c 1,38,39
 849 639 849 639 898 558.5 c 128,-1,40
 947 478 947 478 947 368 c 0,41,42
 947 253 947 253 902.5 162 c 128,-1,43
 858 71 858 71 767 18.5 c 128,-1,44
 676 -34 676 -34 537 -34 c 0,0,1
EndSplineSet
Validated: 1
Substitution2: "'sups' Superscript lookup 32 subtable" uni00B3
EndChar

StartChar: four
Encoding: 52 52 20
Width: 1064
Flags: W
LayerCount: 2
Fore
SplineSet
682 0 m 1,0,-1
 682 322 l 1,1,-1
 84 322 l 1,2,-1
 84 437 l 1,3,-1
 680 1283 l 1,4,-1
 833 1283 l 1,5,-1
 833 450 l 1,6,-1
 1001 450 l 1,7,-1
 981 322 l 1,8,-1
 833 322 l 1,9,-1
 833 0 l 1,10,-1
 682 0 l 1,0,-1
246 450 m 1,11,-1
 682 450 l 1,12,-1
 682 1073 l 1,13,-1
 246 450 l 1,11,-1
EndSplineSet
Validated: 1
EndChar

StartChar: five
Encoding: 53 53 21
Width: 1064
Flags: W
LayerCount: 2
Fore
SplineSet
551 -34 m 0,0,1
 169 -34 169 -34 139 327 c 1,2,-1
 293 327 l 1,3,4
 312 213 312 213 369 159 c 128,-1,5
 426 105 426 105 547 105 c 0,6,7
 663 105 663 105 728 179.5 c 128,-1,8
 793 254 793 254 793 411 c 0,9,10
 793 537 793 537 736.5 616 c 128,-1,11
 680 695 680 695 549 695 c 0,12,13
 468 695 468 695 408.5 667.5 c 128,-1,14
 349 640 349 640 300 584 c 1,15,-1
 164 584 l 1,16,-1
 218 1283 l 1,17,-1
 880 1283 l 1,18,-1
 880 1142 l 1,19,-1
 350 1142 l 1,20,-1
 316 735 l 1,21,22
 370 780 370 780 432.5 802 c 128,-1,23
 495 824 495 824 579 824 c 0,24,25
 710 824 710 824 792 767.5 c 128,-1,26
 874 711 874 711 912.5 617.5 c 128,-1,27
 951 524 951 524 951 412 c 0,28,29
 951 193 951 193 842 79.5 c 128,-1,30
 733 -34 733 -34 551 -34 c 0,0,1
EndSplineSet
Validated: 1
EndChar

StartChar: six
Encoding: 54 54 22
Width: 1064
Flags: W
LayerCount: 2
Fore
SplineSet
542 -34 m 0,0,1
 415 -34 415 -34 332 18.5 c 128,-1,2
 249 71 249 71 202.5 157.5 c 128,-1,3
 156 244 156 244 137 348 c 128,-1,4
 118 452 118 452 118 556 c 0,5,6
 118 782 118 782 155.5 930 c 128,-1,7
 193 1078 193 1078 258 1163 c 128,-1,8
 323 1248 323 1248 405.5 1283.5 c 128,-1,9
 488 1319 488 1319 577 1319 c 0,10,11
 742 1319 742 1319 826 1245.5 c 128,-1,12
 910 1172 910 1172 938 1030 c 1,13,-1
 794 1004 l 1,14,15
 766 1096 766 1096 722.5 1139 c 128,-1,16
 679 1182 679 1182 575 1182 c 0,17,18
 430 1182 430 1182 356.5 1053 c 128,-1,19
 283 924 283 924 273 655 c 1,20,21
 329 744 329 744 407.5 784 c 128,-1,22
 486 824 486 824 591 824 c 0,23,24
 721 824 721 824 802 768 c 128,-1,25
 883 712 883 712 921.5 616.5 c 128,-1,26
 960 521 960 521 960 402 c 0,27,28
 960 273 960 273 908.5 174.5 c 128,-1,29
 857 76 857 76 763.5 21 c 128,-1,30
 670 -34 670 -34 542 -34 c 0,0,1
542 98 m 0,31,32
 662 98 662 98 733.5 176.5 c 128,-1,33
 805 255 805 255 805 397 c 0,34,35
 805 523 805 523 750 609 c 128,-1,36
 695 695 695 695 560 695 c 0,37,38
 435 695 435 695 363.5 615 c 128,-1,39
 292 535 292 535 292 400 c 0,40,41
 292 319 292 319 321.5 250 c 128,-1,42
 351 181 351 181 407 139.5 c 128,-1,43
 463 98 463 98 542 98 c 0,31,32
EndSplineSet
Validated: 1
EndChar

StartChar: seven
Encoding: 55 55 23
Width: 1064
Flags: W
LayerCount: 2
Fore
SplineSet
327 0 m 1,0,1
 408 290 408 290 512 568.5 c 128,-1,2
 616 847 616 847 762 1142 c 1,3,-1
 109 1142 l 1,4,-1
 109 1283 l 1,5,-1
 938 1283 l 1,6,-1
 938 1151 l 1,7,8
 799 877 799 877 690 591.5 c 128,-1,9
 581 306 581 306 503 0 c 1,10,-1
 327 0 l 1,0,1
EndSplineSet
Validated: 1
EndChar

StartChar: eight
Encoding: 56 56 24
Width: 1064
Flags: W
LayerCount: 2
Fore
SplineSet
532 -34 m 256,0,1
 306 -34 306 -34 195 70.5 c 128,-1,2
 84 175 84 175 84 347 c 0,3,4
 84 432 84 432 118.5 494.5 c 128,-1,5
 153 557 153 557 204.5 597 c 128,-1,6
 256 637 256 637 305 656 c 1,7,8
 229 687 229 687 175 761.5 c 128,-1,9
 121 836 121 836 121 961 c 0,10,11
 121 1061 121 1061 165.5 1142 c 128,-1,12
 210 1223 210 1223 301 1271 c 128,-1,13
 392 1319 392 1319 532 1319 c 0,14,15
 676 1319 676 1319 766.5 1272 c 128,-1,16
 857 1225 857 1225 899.5 1144 c 128,-1,17
 942 1063 942 1063 942 961 c 0,18,19
 942 840 942 840 890.5 765.5 c 128,-1,20
 839 691 839 691 759 661 c 1,21,22
 812 643 812 643 862.5 603 c 128,-1,23
 913 563 913 563 946 499.5 c 128,-1,24
 979 436 979 436 979 347 c 0,25,26
 979 175 979 175 868.5 70.5 c 128,-1,27
 758 -34 758 -34 532 -34 c 256,0,1
532 721 m 0,28,29
 668 721 668 721 730 779.5 c 128,-1,30
 792 838 792 838 792 957 c 0,31,32
 792 1052 792 1052 732.5 1122 c 128,-1,33
 673 1192 673 1192 532 1192 c 0,34,35
 392 1192 392 1192 332.5 1121 c 128,-1,36
 273 1050 273 1050 273 955 c 0,37,38
 273 837 273 837 335 779 c 128,-1,39
 397 721 397 721 532 721 c 0,28,29
534 96 m 256,40,41
 685 96 685 96 752.5 165 c 128,-1,42
 820 234 820 234 820 346 c 0,43,44
 820 453 820 453 757.5 519 c 128,-1,45
 695 585 695 585 534 585 c 0,46,47
 372 585 372 585 308.5 518 c 128,-1,48
 245 451 245 451 245 344 c 0,49,50
 245 233 245 233 314 164.5 c 128,-1,51
 383 96 383 96 534 96 c 256,40,41
EndSplineSet
Validated: 1
EndChar

StartChar: nine
Encoding: 57 57 25
Width: 1064
Flags: W
LayerCount: 2
Fore
SplineSet
512 -34 m 0,0,1
 343 -34 343 -34 246.5 43 c 128,-1,2
 150 120 150 120 134 280 c 1,3,-1
 286 280 l 1,4,5
 303 185 303 185 355.5 142 c 128,-1,6
 408 99 408 99 509 99 c 0,7,8
 664 99 664 99 727 233 c 128,-1,9
 790 367 790 367 790 633 c 1,10,11
 679 459 679 459 475 459 c 0,12,13
 345 459 345 459 263 515 c 128,-1,14
 181 571 181 571 142.5 667.5 c 128,-1,15
 104 764 104 764 104 883 c 0,16,17
 104 1013 104 1013 155.5 1111 c 128,-1,18
 207 1209 207 1209 301.5 1264 c 128,-1,19
 396 1319 396 1319 523 1319 c 0,20,21
 648 1319 648 1319 729.5 1265 c 128,-1,22
 811 1211 811 1211 858 1122 c 128,-1,23
 905 1033 905 1033 924.5 925 c 128,-1,24
 944 817 944 817 944 709 c 0,25,26
 944 555 944 555 925.5 420.5 c 128,-1,27
 907 286 907 286 860 184 c 128,-1,28
 813 82 813 82 728.5 24 c 128,-1,29
 644 -34 644 -34 512 -34 c 0,0,1
507 590 m 0,30,31
 576 590 576 590 636 621 c 128,-1,32
 696 652 696 652 733.5 716 c 128,-1,33
 771 780 771 780 771 879 c 0,34,35
 771 956 771 956 744.5 1027 c 128,-1,36
 718 1098 718 1098 663 1143.5 c 128,-1,37
 608 1189 608 1189 523 1189 c 0,38,39
 403 1189 403 1189 332.5 1109 c 128,-1,40
 262 1029 262 1029 262 889 c 0,41,42
 262 807 262 807 284.5 739 c 128,-1,43
 307 671 307 671 360.5 630.5 c 128,-1,44
 414 590 414 590 507 590 c 0,30,31
EndSplineSet
Validated: 1
EndChar

StartChar: zero.zero
Encoding: 65537 -1 26
Width: 1064
Flags: W
LayerCount: 2
Fore
SplineSet
529 -34 m 0,0,1
 319 -34 319 -34 203 129.5 c 128,-1,2
 87 293 87 293 87 641 c 0,3,4
 87 991 87 991 208.5 1155 c 128,-1,5
 330 1319 330 1319 535 1319 c 0,6,7
 745 1319 745 1319 861 1155.5 c 128,-1,8
 977 992 977 992 977 644 c 0,9,10
 977 294 977 294 856 130 c 128,-1,11
 735 -34 735 -34 529 -34 c 0,0,1
534 107 m 256,12,13
 691 107 691 107 750.5 251 c 128,-1,14
 810 395 810 395 810 644 c 0,15,16
 810 894 810 894 748.5 1036 c 128,-1,17
 687 1178 687 1178 530 1178 c 256,18,19
 373 1178 373 1178 313.5 1034 c 128,-1,20
 254 890 254 890 254 641 c 0,21,22
 254 391 254 391 315.5 249 c 128,-1,23
 377 107 377 107 534 107 c 256,12,13
442 536 m 1,24,-1
 442 749 l 1,25,-1
 621 749 l 1,26,-1
 621 536 l 1,27,-1
 442 536 l 1,24,-1
EndSplineSet
Validated: 1
EndChar

StartChar: uni2080
Encoding: 8320 8320 27
Width: 844
Flags: W
LayerCount: 2
Fore
SplineSet
422 -255 m 0,0,1
 290 -255 290 -255 203 -159 c 128,-1,2
 116 -63 116 -63 116 145 c 0,3,4
 116 319 116 319 192 431.5 c 128,-1,5
 268 544 268 544 422 544 c 0,6,7
 554 544 554 544 641 448 c 128,-1,8
 728 352 728 352 728 144 c 0,9,10
 728 -30 728 -30 652.5 -142.5 c 128,-1,11
 577 -255 577 -255 422 -255 c 0,0,1
422 -126 m 0,12,13
 517 -126 517 -126 550.5 -46.5 c 128,-1,14
 584 33 584 33 584 144 c 0,15,16
 584 284 584 284 542.5 349.5 c 128,-1,17
 501 415 501 415 422 415 c 0,18,19
 328 415 328 415 294 335.5 c 128,-1,20
 260 256 260 256 260 145 c 0,21,22
 260 5 260 5 301.5 -60.5 c 128,-1,23
 343 -126 343 -126 422 -126 c 0,12,13
EndSplineSet
Validated: 1
EndChar

StartChar: uni2082
Encoding: 8322 8322 28
Width: 700
Flags: W
LayerCount: 2
Fore
SplineSet
110 -225 m 1,0,-1
 110 -120 l 1,1,2
 161 -75 161 -75 213 -30.5 c 128,-1,3
 265 14 265 14 316 60 c 0,4,5
 381 118 381 118 415 158.5 c 128,-1,6
 449 199 449 199 462 234 c 128,-1,7
 475 269 475 269 475 311 c 0,8,9
 475 364 475 364 446 395 c 128,-1,10
 417 426 417 426 367 426 c 0,11,12
 310 426 310 426 275 396 c 128,-1,13
 240 366 240 366 222 296 c 1,14,-1
 96 316 l 1,15,16
 153 544 153 544 369 544 c 0,17,18
 481 544 481 544 547.5 483.5 c 128,-1,19
 614 423 614 423 614 320 c 0,20,21
 614 260 614 260 597.5 210.5 c 128,-1,22
 581 161 581 161 539 109 c 128,-1,23
 497 57 497 57 420 -11 c 0,24,25
 395 -33 395 -33 369 -55.5 c 128,-1,26
 343 -78 343 -78 307 -107 c 1,27,-1
 622 -107 l 1,28,-1
 603 -225 l 1,29,-1
 110 -225 l 1,0,-1
EndSplineSet
Validated: 1
EndChar

StartChar: uni2084
Encoding: 8324 8324 29
Width: 700
Flags: W
LayerCount: 2
Fore
SplineSet
420 -225 m 1,0,-1
 420 -51 l 1,1,-1
 76 -51 l 1,2,-1
 76 37 l 1,3,-1
 425 515 l 1,4,-1
 549 515 l 1,5,-1
 549 56 l 1,6,-1
 636 56 l 1,7,-1
 619 -51 l 1,8,-1
 549 -51 l 1,9,-1
 549 -225 l 1,10,-1
 420 -225 l 1,0,-1
215 56 m 1,11,-1
 420 56 l 1,12,-1
 420 336 l 1,13,-1
 215 56 l 1,11,-1
EndSplineSet
Validated: 1
EndChar

StartChar: uni2070
Encoding: 8304 8304 30
Width: 844
Flags: W
LayerCount: 2
Fore
SplineSet
422 739 m 0,0,1
 290 739 290 739 203 835 c 128,-1,2
 116 931 116 931 116 1139 c 0,3,4
 116 1304 116 1304 179 1406 c 0,5,6
 260 1538 260 1538 422 1538 c 0,7,8
 556 1538 556 1538 642 1441 c 128,-1,9
 728 1344 728 1344 728 1139 c 0,10,11
 728 1041 728 1041 708 968 c 128,-1,12
 688 895 688 895 653 845 c 0,13,14
 614 790 614 790 554 764.5 c 128,-1,15
 494 739 494 739 422 739 c 0,0,1
422 868 m 0,16,17
 503 868 503 868 543 934 c 0,18,19
 583 999 583 999 583 1139 c 0,20,21
 583 1409 583 1409 422 1409 c 0,22,23
 336 1409 336 1409 295 1332 c 0,24,25
 260 1265 260 1265 260 1139 c 0,26,27
 260 999 260 999 301.5 933.5 c 128,-1,28
 343 868 343 868 422 868 c 0,16,17
EndSplineSet
Validated: 1
EndChar

StartChar: uni00B9
Encoding: 185 185 31
Width: 700
Flags: W
LayerCount: 2
Fore
SplineSet
339 770 m 1,0,-1
 339 1368 l 1,1,-1
 178 1279 l 1,2,-1
 124 1382 l 1,3,-1
 343 1510 l 1,4,-1
 482 1510 l 1,5,-1
 482 770 l 1,6,-1
 339 770 l 1,0,-1
EndSplineSet
Validated: 1
EndChar

StartChar: uni00B2
Encoding: 178 178 32
Width: 700
Flags: W
LayerCount: 2
Fore
SplineSet
110 769 m 1,0,-1
 110 874 l 1,1,2
 161 919 161 919 213 963.5 c 128,-1,3
 265 1008 265 1008 316 1054 c 0,4,5
 381 1112 381 1112 415 1152.5 c 128,-1,6
 449 1193 449 1193 462 1228 c 128,-1,7
 475 1263 475 1263 475 1305 c 0,8,9
 475 1358 475 1358 446 1389 c 128,-1,10
 417 1420 417 1420 367 1420 c 0,11,12
 310 1420 310 1420 275 1390 c 128,-1,13
 240 1360 240 1360 222 1290 c 1,14,-1
 96 1310 l 1,15,16
 153 1538 153 1538 369 1538 c 0,17,18
 481 1538 481 1538 547.5 1477.5 c 128,-1,19
 614 1417 614 1417 614 1314 c 0,20,21
 614 1254 614 1254 597.5 1204.5 c 128,-1,22
 581 1155 581 1155 539 1103 c 128,-1,23
 497 1051 497 1051 420 983 c 0,24,25
 395 961 395 961 369 938.5 c 128,-1,26
 343 916 343 916 307 887 c 1,27,-1
 622 887 l 1,28,-1
 603 769 l 1,29,-1
 110 769 l 1,0,-1
EndSplineSet
Validated: 1
EndChar

StartChar: uni00B3
Encoding: 179 179 33
Width: 700
Flags: W
LayerCount: 2
Fore
SplineSet
351 739 m 0,0,1
 246 739 246 739 188.5 780.5 c 128,-1,2
 131 822 131 822 107 880 c 128,-1,3
 83 938 83 938 80 989 c 1,4,-1
 201 989 l 1,5,6
 210 922 210 922 242.5 886 c 128,-1,7
 275 850 275 850 348 850 c 0,8,9
 482 850 482 850 482 978 c 0,10,11
 482 1049 482 1049 444 1072 c 128,-1,12
 406 1095 406 1095 356 1095 c 2,13,-1
 274 1095 l 1,14,-1
 274 1208 l 1,15,-1
 358 1208 l 2,16,17
 406 1208 406 1208 437.5 1235.5 c 128,-1,18
 469 1263 469 1263 469 1321 c 0,19,20
 469 1429 469 1429 348 1429 c 0,21,22
 286 1429 286 1429 253 1398.5 c 128,-1,23
 220 1368 220 1368 205 1305 c 1,24,-1
 84 1325 l 1,25,26
 93 1375 93 1375 121.5 1424 c 128,-1,27
 150 1473 150 1473 205 1505.5 c 128,-1,28
 260 1538 260 1538 348 1538 c 0,29,30
 474 1538 474 1538 536 1480.5 c 128,-1,31
 598 1423 598 1423 598 1334 c 0,32,33
 598 1274 598 1274 575 1234.5 c 128,-1,34
 552 1195 552 1195 508 1162 c 1,35,36
 566 1135 566 1135 590 1088 c 128,-1,37
 614 1041 614 1041 614 980 c 0,38,39
 614 875 614 875 551 807 c 128,-1,40
 488 739 488 739 351 739 c 0,0,1
EndSplineSet
Validated: 1
EndChar

StartChar: fraction
Encoding: 8260 8260 34
Width: 276
Flags: W
LayerCount: 2
Fore
SplineSet
-246 0 m 1,0,-1
 370 1283 l 1,1,-1
 522 1283 l 1,2,-1
 -94 0 l 1,3,-1
 -246 0 l 1,0,-1
EndSplineSet
Validated: 1
EndChar

StartChar: dollar
Encoding: 36 36 40
Width: 1064
Flags: W
LayerCount: 2
Fore
SplineSet
256 283 m 1,0,1
 293 124 293 124 478 102 c 1,2,-1
 478 590 l 1,3,-1
 460 593 l 2,4,5
 355 613 355 613 278.5 653.5 c 128,-1,6
 202 694 202 694 160 769.5 c 128,-1,7
 118 845 118 845 118 968 c 0,8,9
 118 1107 118 1107 214 1203 c 128,-1,10
 310 1299 310 1299 478 1316 c 1,11,-1
 478 1470 l 1,12,-1
 594 1470 l 1,13,-1
 594 1317 l 1,14,15
 705 1310 705 1310 775.5 1268.5 c 128,-1,16
 846 1227 846 1227 885.5 1168 c 128,-1,17
 925 1109 925 1109 944 1046 c 1,18,-1
 796 1008 l 1,19,20
 765 1103 765 1103 714.5 1141.5 c 128,-1,21
 664 1180 664 1180 594 1187 c 1,22,-1
 594 720 l 1,23,-1
 632 713 l 2,24,25
 789 686 789 686 877.5 600.5 c 128,-1,26
 966 515 966 515 966 339 c 0,27,28
 966 175 966 175 860.5 77.5 c 128,-1,29
 755 -20 755 -20 594 -29 c 1,30,-1
 594 -203 l 1,31,-1
 478 -203 l 1,32,-1
 478 -28 l 1,33,34
 318 -16 318 -16 220.5 65 c 128,-1,35
 123 146 123 146 95 283 c 1,36,-1
 256 283 l 1,0,1
270 974 m 0,37,38
 270 873 270 873 318 818.5 c 128,-1,39
 366 764 366 764 478 740 c 1,40,-1
 478 1187 l 1,41,42
 362 1174 362 1174 316 1111.5 c 128,-1,43
 270 1049 270 1049 270 974 c 0,37,38
609 565 m 2,44,-1
 594 568 l 1,45,-1
 594 100 l 1,46,47
 691 109 691 109 749 169.5 c 128,-1,48
 807 230 807 230 807 340 c 0,49,50
 807 384 807 384 792 430 c 128,-1,51
 777 476 777 476 734.5 513 c 128,-1,52
 692 550 692 550 609 565 c 2,44,-1
EndSplineSet
Validated: 1
EndChar

StartChar: cent
Encoding: 162 162 41
Width: 1064
Flags: W
LayerCount: 2
Fore
SplineSet
507 -16 m 1,0,-1
 507 145 l 1,1,2
 328 162 328 162 231.5 293 c 128,-1,3
 135 424 135 424 135 642 c 0,4,5
 135 846 135 846 232 985.5 c 128,-1,6
 329 1125 329 1125 507 1149 c 1,7,-1
 507 1312 l 1,8,-1
 623 1312 l 1,9,-1
 623 1151 l 1,10,11
 755 1139 755 1139 838.5 1063.5 c 128,-1,12
 922 988 922 988 949 843 c 1,13,-1
 795 813 l 1,14,15
 783 890 783 890 742.5 947 c 128,-1,16
 702 1004 702 1004 623 1019 c 1,17,-1
 623 277 l 1,18,19
 708 293 708 293 749.5 349.5 c 128,-1,20
 791 406 791 406 804 488 c 1,21,-1
 961 488 l 1,22,23
 939 338 939 338 858 250 c 128,-1,24
 777 162 777 162 623 146 c 1,25,-1
 623 -16 l 1,26,-1
 507 -16 l 1,0,-1
297 646 m 0,27,28
 297 491 297 491 350 394 c 128,-1,29
 403 297 403 297 507 277 c 1,30,-1
 507 1016 l 1,31,32
 407 995 407 995 352 903 c 128,-1,33
 297 811 297 811 297 646 c 0,27,28
EndSplineSet
Validated: 1
EndChar

StartChar: sterling
Encoding: 163 163 42
Width: 1064
Flags: W
LayerCount: 2
Fore
SplineSet
147 0 m 1,0,-1
 147 128 l 1,1,2
 206 196 206 196 228.5 280.5 c 128,-1,3
 251 365 251 365 251 459 c 0,4,5
 251 476 251 476 248 511 c 128,-1,6
 245 546 245 546 242 579 c 1,7,-1
 110 579 l 1,8,-1
 110 708 l 1,9,-1
 224 708 l 1,10,11
 217 754 217 754 211 812 c 128,-1,12
 205 870 205 870 205 917 c 0,13,14
 205 1054 205 1054 256 1143 c 128,-1,15
 307 1232 307 1232 392 1275.5 c 128,-1,16
 477 1319 477 1319 578 1319 c 0,17,18
 705 1319 705 1319 778 1278 c 128,-1,19
 851 1237 851 1237 887 1169.5 c 128,-1,20
 923 1102 923 1102 938 1022 c 1,21,-1
 799 995 l 1,22,23
 772 1093 772 1093 730 1140 c 128,-1,24
 688 1187 688 1187 584 1187 c 0,25,26
 464 1187 464 1187 410 1112 c 128,-1,27
 356 1037 356 1037 356 923 c 0,28,29
 356 869 356 869 362 813 c 128,-1,30
 368 757 368 757 375 708 c 1,31,-1
 769 708 l 1,32,-1
 769 579 l 1,33,-1
 393 579 l 1,34,35
 398 529 398 529 398 485 c 0,36,37
 398 398 398 398 383.5 307.5 c 128,-1,38
 369 217 369 217 312 140 c 1,39,-1
 968 140 l 1,40,-1
 945 0 l 1,41,-1
 147 0 l 1,0,-1
EndSplineSet
Validated: 1
EndChar

StartChar: yen
Encoding: 165 165 43
Width: 1064
Flags: W
LayerCount: 2
Fore
SplineSet
138 294 m 1,0,-1
 138 417 l 1,1,-1
 457 417 l 1,2,-1
 457 552 l 1,3,-1
 433 597 l 1,4,-1
 138 597 l 1,5,-1
 138 721 l 1,6,-1
 362 721 l 1,7,-1
 52 1283 l 1,8,-1
 225 1283 l 1,9,-1
 536 683 l 1,10,-1
 853 1283 l 1,11,-1
 1012 1283 l 1,12,-1
 706 721 l 1,13,-1
 932 721 l 1,14,-1
 932 597 l 1,15,-1
 633 597 l 1,16,-1
 613 554 l 1,17,-1
 613 417 l 1,18,-1
 932 417 l 1,19,-1
 932 294 l 1,20,-1
 613 294 l 1,21,-1
 613 0 l 1,22,-1
 457 0 l 1,23,-1
 457 294 l 1,24,-1
 138 294 l 1,0,-1
EndSplineSet
Validated: 1
EndChar

StartChar: Euro
Encoding: 8364 8364 44
Width: 1064
Flags: W
LayerCount: 2
Fore
SplineSet
51 432 m 1,0,-1
 74 552 l 1,1,-1
 170 552 l 1,2,3
 168 590 168 590 168 631 c 0,4,5
 168 680 168 680 171 729 c 1,6,-1
 51 729 l 1,7,-1
 74 847 l 1,8,-1
 184 847 l 1,9,10
 220 1063 220 1063 332 1191 c 128,-1,11
 444 1319 444 1319 624 1319 c 0,12,13
 788 1319 788 1319 876.5 1247 c 128,-1,14
 965 1175 965 1175 1002 1032 c 1,15,-1
 862 990 l 1,16,17
 831 1097 831 1097 775 1139.5 c 128,-1,18
 719 1182 719 1182 618 1182 c 0,19,20
 540 1182 540 1182 484.5 1137 c 128,-1,21
 429 1092 429 1092 393.5 1016 c 128,-1,22
 358 940 358 940 341 847 c 1,23,-1
 750 847 l 1,24,-1
 727 729 l 1,25,-1
 327 729 l 1,26,27
 325 702 325 702 324.5 678.5 c 128,-1,28
 324 655 324 655 324 633 c 0,29,30
 324 591 324 591 326 552 c 1,31,-1
 705 552 l 1,32,-1
 680 432 l 1,33,-1
 339 432 l 1,34,35
 363 285 363 285 430.5 194 c 128,-1,36
 498 103 498 103 618 103 c 0,37,38
 737 103 737 103 793 155 c 128,-1,39
 849 207 849 207 871 310 c 1,40,-1
 1024 310 l 1,41,42
 994 142 994 142 896 54 c 128,-1,43
 798 -34 798 -34 616 -34 c 0,44,45
 417 -34 417 -34 313.5 94.5 c 128,-1,46
 210 223 210 223 181 432 c 1,47,-1
 51 432 l 1,0,-1
EndSplineSet
Validated: 1
EndChar

StartChar: currency
Encoding: 164 164 45
Width: 1064
Flags: W
LayerCount: 2
Fore
SplineSet
211 154 m 1,0,-1
 115 248 l 1,1,-1
 218 364 l 1,2,3
 140 478 140 478 140 646 c 256,4,5
 140 814 140 814 217 928 c 1,6,-1
 115 1043 l 1,7,-1
 211 1137 l 1,8,-1
 312 1023 l 1,9,10
 406 1087 406 1087 532 1087 c 256,11,12
 658 1087 658 1087 752 1023 c 1,13,-1
 853 1137 l 1,14,-1
 949 1043 l 1,15,-1
 847 928 l 1,16,17
 924 814 924 814 924 646 c 256,18,19
 924 478 924 478 846 364 c 1,20,-1
 949 248 l 1,21,-1
 853 154 l 1,22,-1
 752 268 l 1,23,24
 658 204 658 204 532 204 c 256,25,26
 406 204 406 204 312 268 c 1,27,-1
 211 154 l 1,0,-1
532 328 m 0,28,29
 666 328 666 328 724 419 c 128,-1,30
 782 510 782 510 782 646 c 256,31,32
 782 782 782 782 724 872.5 c 128,-1,33
 666 963 666 963 532 963 c 0,34,35
 399 963 399 963 340.5 872.5 c 128,-1,36
 282 782 282 782 282 646 c 256,37,38
 282 510 282 510 340.5 419 c 128,-1,39
 399 328 399 328 532 328 c 0,28,29
EndSplineSet
Validated: 1
EndChar

StartChar: uni20B4
Encoding: 8372 8372 46
Width: 1064
Flags: W
LayerCount: 2
Fore
SplineSet
533 -34 m 0,0,1
 346 -34 346 -34 239 63 c 128,-1,2
 132 160 132 160 132 326 c 0,3,4
 132 385 132 385 143 434 c 1,5,-1
 71 434 l 1,6,-1
 71 554 l 1,7,-1
 197 554 l 1,8,9
 245 616 245 616 315 646.5 c 128,-1,10
 385 677 385 677 461.5 696 c 128,-1,11
 538 715 538 715 604 742 c 1,12,-1
 71 742 l 1,13,-1
 71 862 l 1,14,-1
 748 862 l 1,15,16
 771 911 771 911 771 979 c 0,17,18
 771 1071 771 1071 709.5 1126.5 c 128,-1,19
 648 1182 648 1182 547 1182 c 0,20,21
 435 1182 435 1182 376.5 1136 c 128,-1,22
 318 1090 318 1090 291 983 c 1,23,-1
 144 1009 l 1,24,25
 171 1154 171 1154 278.5 1236.5 c 128,-1,26
 386 1319 386 1319 549 1319 c 0,27,28
 722 1319 722 1319 821 1228.5 c 128,-1,29
 920 1138 920 1138 920 980 c 0,30,31
 920 915 920 915 907 862 c 1,32,-1
 986 862 l 1,33,-1
 986 742 l 1,34,-1
 849 742 l 1,35,36
 798 680 798 680 723.5 650.5 c 128,-1,37
 649 621 649 621 569.5 602 c 128,-1,38
 490 583 490 583 424 554 c 1,39,-1
 986 554 l 1,40,-1
 986 434 l 1,41,-1
 300 434 l 1,42,43
 284 393 284 393 284 339 c 0,44,45
 284 230 284 230 351.5 166.5 c 128,-1,46
 419 103 419 103 540 103 c 0,47,48
 664 103 664 103 725 153.5 c 128,-1,49
 786 204 786 204 801 313 c 1,50,-1
 957 313 l 1,51,52
 925 -34 925 -34 533 -34 c 0,0,1
EndSplineSet
Validated: 1
EndChar

StartChar: uni20BC
Encoding: 8380 8380 47
Width: 1408
Flags: W
LayerCount: 2
Fore
SplineSet
782 1283 m 1,0,-1
 782 981 l 1,1,2
 1060 951 1060 951 1202.5 702.5 c 128,-1,3
 1345 454 1345 454 1345 0 c 1,4,-1
 1185 0 l 1,5,6
 1185 398 1185 398 1086.5 603.5 c 128,-1,7
 988 809 988 809 782 839 c 1,8,-1
 782 0 l 1,9,-1
 626 0 l 1,10,-1
 626 839 l 1,11,12
 420 809 420 809 321.5 603.5 c 128,-1,13
 223 398 223 398 223 0 c 1,14,-1
 63 0 l 1,15,16
 63 454 63 454 205.5 702.5 c 128,-1,17
 348 951 348 951 626 981 c 1,18,-1
 626 1283 l 1,19,-1
 782 1283 l 1,0,-1
EndSplineSet
Validated: 1
EndChar

StartChar: rouble
Encoding: 65538 -1 48
Width: 1064
Flags: W
LayerCount: 2
Fore
SplineSet
378 0 m 1,0,-1
 222 0 l 1,1,-1
 222 273 l 1,2,-1
 60 273 l 1,3,-1
 60 393 l 1,4,-1
 222 393 l 1,5,-1
 222 535 l 1,6,-1
 60 535 l 1,7,-1
 60 661 l 1,8,-1
 222 661 l 1,9,-1
 222 1283 l 1,10,-1
 540 1283 l 2,11,12
 975 1283 975 1283 975 913 c 0,13,14
 975 533 975 533 533 533 c 2,15,-1
 378 533 l 1,16,-1
 378 393 l 1,17,-1
 780 393 l 1,18,-1
 780 273 l 1,19,-1
 378 273 l 1,20,-1
 378 0 l 1,0,-1
497 1153 m 2,21,-1
 378 1153 l 1,22,-1
 378 663 l 1,23,-1
 538 663 l 2,24,25
 686 663 686 663 751.5 721 c 128,-1,26
 817 779 817 779 817 909 c 0,27,28
 817 1045 817 1045 746.5 1099 c 128,-1,29
 676 1153 676 1153 497 1153 c 2,21,-1
EndSplineSet
Validated: 1
EndChar

StartChar: uni20B8
Encoding: 8376 8376 49
Width: 1064
Flags: W
LayerCount: 2
Fore
SplineSet
978 1142 m 1,0,-1
 86 1142 l 1,1,-1
 86 1283 l 1,2,-1
 978 1283 l 1,3,-1
 978 1142 l 1,0,-1
610 0 m 1,4,-1
 454 0 l 1,5,-1
 454 836 l 1,6,-1
 86 836 l 1,7,-1
 86 977 l 1,8,-1
 978 977 l 1,9,-1
 978 836 l 1,10,-1
 610 836 l 1,11,-1
 610 0 l 1,4,-1
EndSplineSet
Validated: 1
EndChar

StartChar: uni20AE
Encoding: 8366 8366 50
Width: 1064
Flags: W
LayerCount: 2
Fore
SplineSet
610 0 m 1,0,-1
 454 0 l 1,1,-1
 454 298 l 1,2,-1
 254 163 l 1,3,-1
 197 255 l 1,4,-1
 454 428 l 1,5,-1
 454 621 l 1,6,-1
 254 487 l 1,7,-1
 197 578 l 1,8,-1
 454 751 l 1,9,-1
 454 1142 l 1,10,-1
 86 1142 l 1,11,-1
 86 1283 l 1,12,-1
 978 1283 l 1,13,-1
 978 1142 l 1,14,-1
 610 1142 l 1,15,-1
 610 850 l 1,16,-1
 806 983 l 1,17,-1
 862 891 l 1,18,-1
 610 720 l 1,19,-1
 610 526 l 1,20,-1
 806 658 l 1,21,-1
 862 566 l 1,22,-1
 610 394 l 1,23,-1
 610 0 l 1,0,-1
EndSplineSet
Validated: 1
EndChar

StartChar: uni20BA
Encoding: 8378 8378 51
Width: 1064
Flags: W
LayerCount: 2
Fore
SplineSet
56 857 m 1,0,-1
 218 914 l 1,1,-1
 218 1283 l 1,2,-1
 374 1283 l 1,3,-1
 374 962 l 1,4,-1
 703 1080 l 1,5,-1
 740 977 l 1,6,-1
 374 847 l 1,7,-1
 374 688 l 1,8,-1
 704 806 l 1,9,-1
 742 703 l 1,10,-1
 374 572 l 1,11,-1
 374 147 l 1,12,-1
 382 147 l 2,13,14
 589 147 589 147 712.5 262.5 c 128,-1,15
 836 378 836 378 836 572 c 1,16,-1
 995 572 l 1,17,18
 995 404 995 404 917.5 275 c 128,-1,19
 840 146 840 146 703 73 c 128,-1,20
 566 0 566 0 386 0 c 2,21,-1
 218 0 l 1,22,-1
 218 525 l 1,23,-1
 94 481 l 1,24,-1
 58 582 l 1,25,-1
 218 640 l 1,26,-1
 218 799 l 1,27,-1
 92 755 l 1,28,-1
 56 857 l 1,0,-1
EndSplineSet
Validated: 1
EndChar

StartChar: uni20A8
Encoding: 8360 8360 52
Width: 1064
Flags: W
LayerCount: 2
Fore
SplineSet
715 0 m 1,0,-1
 117 517 l 1,1,-1
 117 641 l 1,2,-1
 391 641 l 2,3,4
 538 641 538 641 607 686 c 128,-1,5
 676 731 676 731 692 840 c 1,6,-1
 117 840 l 1,7,-1
 117 960 l 1,8,-1
 692 960 l 1,9,10
 673 1065 673 1065 602 1114 c 128,-1,11
 531 1163 531 1163 399 1163 c 2,12,-1
 117 1163 l 1,13,-1
 117 1283 l 1,14,-1
 974 1283 l 1,15,-1
 974 1163 l 1,16,-1
 737 1163 l 1,17,18
 830 1093 830 1093 848 960 c 1,19,-1
 974 960 l 1,20,-1
 974 840 l 1,21,-1
 850 840 l 1,22,23
 830 676 830 676 721 598.5 c 128,-1,24
 612 521 612 521 403 521 c 2,25,-1
 341 521 l 1,26,-1
 940 0 l 1,27,-1
 715 0 l 1,0,-1
EndSplineSet
Validated: 1
EndChar

StartChar: uni20A9
Encoding: 8361 8361 53
Width: 1408
Flags: W
LayerCount: 2
Fore
SplineSet
341 0 m 1,0,-1
 233 476 l 1,1,-1
 10 476 l 1,2,-1
 10 586 l 1,3,-1
 209 586 l 1,4,-1
 175 734 l 1,5,-1
 10 734 l 1,6,-1
 10 844 l 1,7,-1
 150 844 l 1,8,-1
 51 1283 l 1,9,-1
 212 1283 l 1,10,-1
 295 844 l 1,11,-1
 543 844 l 1,12,-1
 629 1278 l 1,13,-1
 792 1278 l 1,14,-1
 878 844 l 1,15,-1
 1124 844 l 1,16,-1
 1206 1283 l 1,17,-1
 1357 1283 l 1,18,-1
 1261 844 l 1,19,-1
 1398 844 l 1,20,-1
 1398 734 l 1,21,-1
 1236 734 l 1,22,-1
 1204 586 l 1,23,-1
 1398 586 l 1,24,-1
 1398 476 l 1,25,-1
 1180 476 l 1,26,-1
 1075 0 l 1,27,-1
 918 0 l 1,28,-1
 825 476 l 1,29,-1
 583 476 l 1,30,-1
 493 0 l 1,31,-1
 341 0 l 1,0,-1
652 844 m 1,32,-1
 754 844 l 1,33,-1
 702 1109 l 1,34,-1
 652 844 l 1,32,-1
344 586 m 1,35,-1
 492 586 l 1,36,-1
 521 734 l 1,37,-1
 316 734 l 1,38,-1
 344 586 l 1,35,-1
604 586 m 1,39,-1
 804 586 l 1,40,-1
 775 734 l 1,41,-1
 632 734 l 1,42,-1
 604 586 l 1,39,-1
929 586 m 1,43,-1
 1075 586 l 1,44,-1
 1103 734 l 1,45,-1
 900 734 l 1,46,-1
 929 586 l 1,43,-1
364 476 m 1,47,-1
 416 204 l 1,48,-1
 470 476 l 1,49,-1
 364 476 l 1,47,-1
950 476 m 1,50,-1
 1004 205 l 1,51,-1
 1055 476 l 1,52,-1
 950 476 l 1,50,-1
EndSplineSet
Validated: 1
EndChar

StartChar: asciicircum
Encoding: 94 94 54
Width: 1060
Flags: W
LayerCount: 2
Fore
SplineSet
107 561 m 1,0,-1
 463 1316 l 1,1,-1
 596 1316 l 1,2,-1
 953 561 l 1,3,-1
 786 561 l 1,4,-1
 526 1127 l 1,5,-1
 268 561 l 1,6,-1
 107 561 l 1,0,-1
EndSplineSet
Validated: 1
EndChar

StartChar: plus
Encoding: 43 43 55
Width: 1064
Flags: W
LayerCount: 2
Fore
SplineSet
460 180 m 1,0,-1
 460 564 l 1,1,-1
 124 564 l 1,2,-1
 124 702 l 1,3,-1
 460 702 l 1,4,-1
 460 1086 l 1,5,-1
 604 1086 l 1,6,-1
 604 702 l 1,7,-1
 940 702 l 1,8,-1
 940 564 l 1,9,-1
 604 564 l 1,10,-1
 604 180 l 1,11,-1
 460 180 l 1,0,-1
EndSplineSet
Validated: 1
EndChar

StartChar: minus
Encoding: 8722 8722 56
Width: 1064
Flags: W
LayerCount: 2
Fore
SplineSet
152 562 m 1,0,-1
 152 703 l 1,1,-1
 912 703 l 1,2,-1
 912 562 l 1,3,-1
 152 562 l 1,0,-1
EndSplineSet
Validated: 1
EndChar

StartChar: plusminus
Encoding: 177 177 57
Width: 1064
Flags: W
LayerCount: 2
Fore
SplineSet
460 216 m 1,0,-1
 460 582 l 1,1,-1
 124 582 l 1,2,-1
 124 720 l 1,3,-1
 460 720 l 1,4,-1
 460 1086 l 1,5,-1
 604 1086 l 1,6,-1
 604 720 l 1,7,-1
 940 720 l 1,8,-1
 940 582 l 1,9,-1
 604 582 l 1,10,-1
 604 216 l 1,11,-1
 460 216 l 1,0,-1
152 0 m 1,12,-1
 152 142 l 1,13,-1
 912 142 l 1,14,-1
 912 0 l 1,15,-1
 152 0 l 1,12,-1
EndSplineSet
Validated: 1
EndChar

StartChar: equal
Encoding: 61 61 58
Width: 1064
Flags: W
LayerCount: 2
Fore
SplineSet
152 770 m 1,0,-1
 152 910 l 1,1,-1
 912 910 l 1,2,-1
 912 770 l 1,3,-1
 152 770 l 1,0,-1
152 356 m 1,4,-1
 152 496 l 1,5,-1
 912 496 l 1,6,-1
 912 356 l 1,7,-1
 152 356 l 1,4,-1
EndSplineSet
Validated: 1
EndChar

StartChar: notequal
Encoding: 8800 8800 59
Width: 1064
Flags: W
LayerCount: 2
Fore
SplineSet
213 162 m 1,0,-1
 315 356 l 1,1,-1
 152 356 l 1,2,-1
 152 496 l 1,3,-1
 389 496 l 1,4,-1
 535 770 l 1,5,-1
 152 770 l 1,6,-1
 152 910 l 1,7,-1
 606 910 l 1,8,-1
 708 1101 l 1,9,-1
 851 1101 l 1,10,-1
 749 910 l 1,11,-1
 912 910 l 1,12,-1
 912 770 l 1,13,-1
 675 770 l 1,14,-1
 530 496 l 1,15,-1
 912 496 l 1,16,-1
 912 356 l 1,17,-1
 456 356 l 1,18,-1
 355 162 l 1,19,-1
 213 162 l 1,0,-1
EndSplineSet
Validated: 1
EndChar

StartChar: divide
Encoding: 247 247 60
Width: 1064
Flags: W
LayerCount: 2
Fore
SplineSet
449 867 m 1,0,-1
 449 1064 l 1,1,-1
 614 1064 l 1,2,-1
 614 867 l 1,3,-1
 449 867 l 1,0,-1
151 561 m 1,4,-1
 151 703 l 1,5,-1
 912 703 l 1,6,-1
 912 561 l 1,7,-1
 151 561 l 1,4,-1
449 200 m 1,8,-1
 449 397 l 1,9,-1
 614 397 l 1,10,-1
 614 200 l 1,11,-1
 449 200 l 1,8,-1
EndSplineSet
Validated: 1
EndChar

StartChar: less
Encoding: 60 60 61
Width: 1064
Flags: W
LayerCount: 2
Fore
SplineSet
905 182 m 1,0,-1
 116 570 l 1,1,-1
 116 690 l 1,2,-1
 905 1078 l 1,3,-1
 905 927 l 1,4,-1
 288 632 l 1,5,-1
 905 336 l 1,6,-1
 905 182 l 1,0,-1
EndSplineSet
Validated: 1
EndChar

StartChar: greater
Encoding: 62 62 62
Width: 1064
Flags: W
LayerCount: 2
Fore
SplineSet
159 1078 m 1,0,-1
 948 690 l 1,1,-1
 948 570 l 1,2,-1
 159 182 l 1,3,-1
 159 333 l 1,4,-1
 776 629 l 1,5,-1
 159 924 l 1,6,-1
 159 1078 l 1,0,-1
EndSplineSet
Validated: 1
EndChar

StartChar: lessequal
Encoding: 8804 8804 63
Width: 1064
Flags: W
LayerCount: 2
Fore
SplineSet
905 230 m 1,0,-1
 116 599 l 1,1,-1
 116 719 l 1,2,-1
 905 1087 l 1,3,-1
 905 934 l 1,4,-1
 291 661 l 1,5,-1
 905 387 l 1,6,-1
 905 230 l 1,0,-1
116 0 m 1,7,-1
 116 141 l 1,8,-1
 905 141 l 1,9,-1
 905 0 l 1,10,-1
 116 0 l 1,7,-1
EndSplineSet
Validated: 1
EndChar

StartChar: greaterequal
Encoding: 8805 8805 64
Width: 1064
Flags: W
LayerCount: 2
Fore
SplineSet
159 1087 m 1,0,-1
 948 718 l 1,1,-1
 948 598 l 1,2,-1
 159 230 l 1,3,-1
 159 383 l 1,4,-1
 773 657 l 1,5,-1
 159 930 l 1,6,-1
 159 1087 l 1,0,-1
159 0 m 1,7,-1
 159 141 l 1,8,-1
 948 141 l 1,9,-1
 948 0 l 1,10,-1
 159 0 l 1,7,-1
EndSplineSet
Validated: 1
EndChar

StartChar: asciitilde
Encoding: 126 126 65
Width: 1064
Flags: W
LayerCount: 2
Fore
SplineSet
725 449 m 0,0,1
 676 449 676 449 624 473 c 128,-1,2
 572 497 572 497 501 558 c 0,3,4
 451 602 451 602 414.5 623.5 c 128,-1,5
 378 645 378 645 347 645 c 0,6,7
 283 645 283 645 255 603 c 128,-1,8
 227 561 227 561 227 467 c 1,9,-1
 87 467 l 1,10,11
 87 593 87 593 120 662.5 c 128,-1,12
 153 732 153 732 210 759.5 c 128,-1,13
 267 787 267 787 339 787 c 0,14,15
 389 787 389 787 441 763.5 c 128,-1,16
 493 740 493 740 563 678 c 0,17,18
 613 635 613 635 649.5 613 c 128,-1,19
 686 591 686 591 717 591 c 0,20,21
 781 591 781 591 809 633 c 128,-1,22
 837 675 837 675 837 769 c 1,23,-1
 977 769 l 1,24,25
 977 644 977 644 944 574 c 128,-1,26
 911 504 911 504 854 476.5 c 128,-1,27
 797 449 797 449 725 449 c 0,0,1
EndSplineSet
Validated: 1
EndChar

StartChar: approxequal
Encoding: 8776 8776 66
Width: 1064
Flags: W
LayerCount: 2
Fore
SplineSet
725 662 m 0,0,1
 676 662 676 662 624 686 c 128,-1,2
 572 710 572 710 501 771 c 0,3,4
 451 815 451 815 414.5 836.5 c 128,-1,5
 378 858 378 858 347 858 c 0,6,7
 283 858 283 858 255 816 c 128,-1,8
 227 774 227 774 227 680 c 1,9,-1
 87 680 l 1,10,11
 87 806 87 806 120 875.5 c 128,-1,12
 153 945 153 945 210 972.5 c 128,-1,13
 267 1000 267 1000 339 1000 c 0,14,15
 389 1000 389 1000 441 976.5 c 128,-1,16
 493 953 493 953 563 891 c 0,17,18
 613 848 613 848 649.5 826 c 128,-1,19
 686 804 686 804 717 804 c 0,20,21
 781 804 781 804 809 846 c 128,-1,22
 837 888 837 888 837 982 c 1,23,-1
 977 982 l 1,24,25
 977 857 977 857 944 787 c 128,-1,26
 911 717 911 717 854 689.5 c 128,-1,27
 797 662 797 662 725 662 c 0,0,1
726 218 m 0,28,29
 677 218 677 218 625 242 c 128,-1,30
 573 266 573 266 502 327 c 0,31,32
 452 371 452 371 415.5 392.5 c 128,-1,33
 379 414 379 414 348 414 c 0,34,35
 284 414 284 414 256 372 c 128,-1,36
 228 330 228 330 228 236 c 1,37,-1
 88 236 l 1,38,39
 88 362 88 362 121 431.5 c 128,-1,40
 154 501 154 501 211 528.5 c 128,-1,41
 268 556 268 556 340 556 c 0,42,43
 390 556 390 556 442 532.5 c 128,-1,44
 494 509 494 509 564 447 c 0,45,46
 614 404 614 404 650.5 382 c 128,-1,47
 687 360 687 360 718 360 c 0,48,49
 782 360 782 360 810 402 c 128,-1,50
 838 444 838 444 838 538 c 1,51,-1
 978 538 l 1,52,53
 978 413 978 413 945 343 c 128,-1,54
 912 273 912 273 855 245.5 c 128,-1,55
 798 218 798 218 726 218 c 0,28,29
EndSplineSet
Validated: 1
EndChar

StartChar: multiply
Encoding: 215 215 67
Width: 1064
Flags: W
LayerCount: 2
Fore
SplineSet
260 239 m 1,0,-1
 165 338 l 1,1,-1
 440 626 l 1,2,-1
 153 931 l 1,3,-1
 248 1026 l 1,4,-1
 532 728 l 1,5,-1
 815 1026 l 1,6,-1
 911 931 l 1,7,-1
 623 626 l 1,8,-1
 898 338 l 1,9,-1
 803 239 l 1,10,-1
 532 525 l 1,11,-1
 260 239 l 1,0,-1
EndSplineSet
Validated: 1
EndChar

StartChar: underscore
Encoding: 95 95 68
Width: 880
Flags: W
LayerCount: 2
Fore
SplineSet
84 -325 m 1,0,-1
 84 -229 l 1,1,-1
 796 -229 l 1,2,-1
 796 -325 l 1,3,-1
 84 -325 l 1,0,-1
EndSplineSet
Validated: 1
EndChar

StartChar: section
Encoding: 167 167 69
Width: 984
Flags: W
LayerCount: 2
Fore
SplineSet
496 -225 m 0,0,1
 382 -225 382 -225 292.5 -194.5 c 128,-1,2
 203 -164 203 -164 149 -92.5 c 128,-1,3
 95 -21 95 -21 85 101 c 1,4,-1
 238 101 l 1,5,6
 255 -11 255 -11 315.5 -52.5 c 128,-1,7
 376 -94 376 -94 492 -94 c 0,8,9
 620 -94 620 -94 665 -50.5 c 128,-1,10
 710 -7 710 -7 710 60 c 0,11,12
 710 119 710 119 677 162.5 c 128,-1,13
 644 206 644 206 546 234 c 2,14,-1
 390 278 l 2,15,16
 242 320 242 320 169.5 388.5 c 128,-1,17
 97 457 97 457 97 588 c 0,18,19
 97 671 97 671 142.5 735.5 c 128,-1,20
 188 800 188 800 271 836 c 1,21,22
 193 871 193 871 147.5 925.5 c 128,-1,23
 102 980 102 980 102 1079 c 0,24,25
 102 1218 102 1218 210 1289 c 128,-1,26
 318 1360 318 1360 480 1360 c 0,27,28
 616 1360 616 1360 694.5 1319 c 128,-1,29
 773 1278 773 1278 810.5 1217.5 c 128,-1,30
 848 1157 848 1157 862 1096 c 1,31,-1
 720 1062 l 1,32,33
 695 1141 695 1141 646.5 1185.5 c 128,-1,34
 598 1230 598 1230 482 1230 c 0,35,36
 352 1230 352 1230 304 1185 c 128,-1,37
 256 1140 256 1140 256 1077 c 0,38,39
 256 1022 256 1022 288.5 982 c 128,-1,40
 321 942 321 942 419 914 c 2,41,-1
 582 868 l 2,42,43
 729 827 729 827 799 758.5 c 128,-1,44
 869 690 869 690 869 574 c 0,45,46
 869 486 869 486 825 418.5 c 128,-1,47
 781 351 781 351 694 315 c 1,48,49
 773 279 773 279 817 214.5 c 128,-1,50
 861 150 861 150 861 60 c 0,51,52
 861 -49 861 -49 808 -111.5 c 128,-1,53
 755 -174 755 -174 671.5 -199.5 c 128,-1,54
 588 -225 588 -225 496 -225 c 0,0,1
536 377 m 0,55,56
 614 377 614 377 670 427.5 c 128,-1,57
 726 478 726 478 726 557 c 0,58,59
 726 614 726 614 695.5 662 c 128,-1,60
 665 710 665 710 555 742 c 2,61,-1
 483 763 l 2,62,63
 467 768 467 768 451 771 c 128,-1,64
 435 774 435 774 417 774 c 0,65,66
 331 774 331 774 285 721 c 128,-1,67
 239 668 239 668 239 589 c 0,68,69
 239 534 239 534 270 484.5 c 128,-1,70
 301 435 301 435 410 403 c 2,71,-1
 461 388 l 2,72,73
 481 382 481 382 500.5 379.5 c 128,-1,74
 520 377 520 377 536 377 c 0,55,56
EndSplineSet
Validated: 1
EndChar

StartChar: degree
Encoding: 176 176 70
Width: 704
Flags: W
LayerCount: 2
Fore
SplineSet
353 810 m 256,0,1
 246 810 246 810 175 884 c 128,-1,2
 104 958 104 958 104 1069 c 0,3,4
 104 1177 104 1177 175 1250.5 c 128,-1,5
 246 1324 246 1324 353 1324 c 256,6,7
 460 1324 460 1324 530 1250.5 c 128,-1,8
 600 1177 600 1177 600 1069 c 0,9,10
 600 958 600 958 530 884 c 128,-1,11
 460 810 460 810 353 810 c 256,0,1
353 924 m 0,12,13
 409 924 409 924 445 962.5 c 128,-1,14
 481 1001 481 1001 481 1069 c 0,15,16
 481 1131 481 1131 445 1171.5 c 128,-1,17
 409 1212 409 1212 353 1212 c 0,18,19
 295 1212 295 1212 259.5 1171.5 c 128,-1,20
 224 1131 224 1131 224 1069 c 0,21,22
 224 1001 224 1001 259.5 962.5 c 128,-1,23
 295 924 295 924 353 924 c 0,12,13
EndSplineSet
Validated: 1
EndChar

StartChar: paragraph
Encoding: 182 182 72
Width: 1108
Flags: W
LayerCount: 2
Fore
SplineSet
469 -258 m 1,0,-1
 469 552 l 1,1,2
 323 557 323 557 236.5 612.5 c 128,-1,3
 150 668 150 668 112.5 754.5 c 128,-1,4
 75 841 75 841 75 937 c 0,5,6
 75 1043 75 1043 120.5 1130.5 c 128,-1,7
 166 1218 166 1218 273 1271 c 128,-1,8
 380 1324 380 1324 566 1324 c 2,9,-1
 988 1324 l 1,10,-1
 988 -258 l 1,11,-1
 832 -258 l 1,12,-1
 832 1192 l 1,13,-1
 624 1192 l 1,14,-1
 624 -258 l 1,15,-1
 469 -258 l 1,0,-1
EndSplineSet
Validated: 1
EndChar

StartChar: numbersign
Encoding: 35 35 73
Width: 1064
Flags: W
LayerCount: 2
Fore
SplineSet
160 0 m 1,0,-1
 211 329 l 1,1,-1
 44 329 l 1,2,-1
 44 446 l 1,3,-1
 230 446 l 1,4,-1
 288 818 l 1,5,-1
 106 818 l 1,6,-1
 106 934 l 1,7,-1
 306 934 l 1,8,-1
 357 1260 l 1,9,-1
 496 1260 l 1,10,-1
 445 934 l 1,11,-1
 719 934 l 1,12,-1
 770 1260 l 1,13,-1
 909 1260 l 1,14,-1
 858 934 l 1,15,-1
 1019 934 l 1,16,-1
 1019 818 l 1,17,-1
 840 818 l 1,18,-1
 782 446 l 1,19,-1
 956 446 l 1,20,-1
 956 329 l 1,21,-1
 763 329 l 1,22,-1
 712 0 l 1,23,-1
 573 0 l 1,24,-1
 624 329 l 1,25,-1
 350 329 l 1,26,-1
 298 0 l 1,27,-1
 160 0 l 1,0,-1
368 446 m 1,28,-1
 643 446 l 1,29,-1
 701 818 l 1,30,-1
 427 818 l 1,31,-1
 368 446 l 1,28,-1
EndSplineSet
Validated: 1
EndChar

StartChar: bar
Encoding: 124 124 74
Width: 616
Flags: W
LayerCount: 2
Fore
SplineSet
230 -230 m 1,0,-1
 230 1363 l 1,1,-1
 385 1363 l 1,2,-1
 385 -230 l 1,3,-1
 230 -230 l 1,0,-1
EndSplineSet
Validated: 1
EndChar

StartChar: brokenbar
Encoding: 166 166 75
Width: 616
Flags: W
LayerCount: 2
Fore
SplineSet
230 724 m 1,0,-1
 230 1363 l 1,1,-1
 385 1363 l 1,2,-1
 385 724 l 1,3,-1
 230 724 l 1,0,-1
230 -230 m 1,4,-1
 230 418 l 1,5,-1
 385 418 l 1,6,-1
 385 -230 l 1,7,-1
 230 -230 l 1,4,-1
EndSplineSet
Validated: 1
EndChar

StartChar: dagger
Encoding: 8224 8224 76
Width: 920
Flags: W
LayerCount: 2
Fore
SplineSet
383 -161 m 1,0,-1
 383 831 l 1,1,-1
 82 831 l 1,2,-1
 82 967 l 1,3,-1
 383 967 l 1,4,-1
 383 1326 l 1,5,-1
 537 1326 l 1,6,-1
 537 967 l 1,7,-1
 838 967 l 1,8,-1
 838 831 l 1,9,-1
 537 831 l 1,10,-1
 537 -161 l 1,11,-1
 383 -161 l 1,0,-1
EndSplineSet
Validated: 1
EndChar

StartChar: daggerdbl
Encoding: 8225 8225 77
Width: 920
Flags: W
LayerCount: 2
Fore
SplineSet
82 198 m 1,0,-1
 82 335 l 1,1,-1
 383 335 l 1,2,-1
 383 831 l 1,3,-1
 82 831 l 1,4,-1
 82 967 l 1,5,-1
 383 967 l 1,6,-1
 383 1326 l 1,7,-1
 537 1326 l 1,8,-1
 537 967 l 1,9,-1
 838 967 l 1,10,-1
 838 831 l 1,11,-1
 537 831 l 1,12,-1
 537 335 l 1,13,-1
 838 335 l 1,14,-1
 838 198 l 1,15,-1
 537 198 l 1,16,-1
 537 -161 l 1,17,-1
 383 -161 l 1,18,-1
 383 198 l 1,19,-1
 82 198 l 1,0,-1
EndSplineSet
Validated: 1
EndChar

StartChar: logicalnot
Encoding: 172 172 78
Width: 1064
Flags: W
LayerCount: 2
Fore
SplineSet
774 308 m 1,0,-1
 774 664 l 1,1,-1
 135 664 l 1,2,-1
 135 802 l 1,3,-1
 915 802 l 1,4,-1
 915 308 l 1,5,-1
 774 308 l 1,0,-1
EndSplineSet
Validated: 1
EndChar

StartChar: ampersand
Encoding: 38 38 79
Width: 1322
Flags: W
LayerCount: 2
Fore
SplineSet
585 -30 m 0,0,1
 421 -30 421 -30 326 23.5 c 128,-1,2
 231 77 231 77 190.5 163 c 128,-1,3
 150 249 150 249 150 348 c 0,4,5
 150 491 150 491 230 583.5 c 128,-1,6
 310 676 310 676 428 744 c 1,7,8
 383 801 383 801 339.5 877.5 c 128,-1,9
 296 954 296 954 296 1051 c 0,10,11
 296 1173 296 1173 378 1256 c 128,-1,12
 460 1339 460 1339 591 1339 c 0,13,14
 735 1339 735 1339 808.5 1258.5 c 128,-1,15
 882 1178 882 1178 882 1065 c 0,16,17
 882 978 882 978 848.5 916.5 c 128,-1,18
 815 855 815 855 757.5 807 c 128,-1,19
 700 759 700 759 628 715 c 1,20,-1
 930 343 l 1,21,22
 981 466 981 466 981 622 c 1,23,-1
 1126 622 l 1,24,25
 1126 401 1126 401 1023 228 c 1,26,-1
 1209 0 l 1,27,-1
 1025 0 l 1,28,-1
 934 113 l 1,29,30
 867 47 867 47 779.5 8.5 c 128,-1,31
 692 -30 692 -30 585 -30 c 0,0,1
443 1049 m 0,32,33
 443 981 443 981 480 917 c 128,-1,34
 517 853 517 853 555 804 c 1,35,36
 630 849 630 849 686 907 c 128,-1,37
 742 965 742 965 742 1055 c 0,38,39
 742 1138 742 1138 701.5 1180.5 c 128,-1,40
 661 1223 661 1223 594 1223 c 0,41,42
 522 1223 522 1223 482.5 1177.5 c 128,-1,43
 443 1132 443 1132 443 1049 c 0,32,33
311 368 m 0,44,45
 311 292 311 292 337 230.5 c 128,-1,46
 363 169 363 169 426 133.5 c 128,-1,47
 489 98 489 98 600 98 c 0,48,49
 678 98 678 98 741.5 128.5 c 128,-1,50
 805 159 805 159 852 214 c 1,51,-1
 504 649 l 1,52,53
 419 594 419 594 365 529.5 c 128,-1,54
 311 465 311 465 311 368 c 0,44,45
EndSplineSet
Validated: 1
EndChar

StartChar: asterisk
Encoding: 42 42 80
Width: 820
Flags: W
LayerCount: 2
Fore
SplineSet
284 716 m 1,0,-1
 168 801 l 1,1,-1
 333 991 l 1,2,-1
 118 1058 l 1,3,-1
 175 1190 l 1,4,-1
 361 1088 l 1,5,-1
 336 1326 l 1,6,-1
 484 1326 l 1,7,-1
 459 1087 l 1,8,-1
 646 1190 l 1,9,-1
 701 1058 l 1,10,-1
 489 990 l 1,11,-1
 654 801 l 1,12,-1
 538 716 l 1,13,-1
 412 920 l 1,14,-1
 284 716 l 1,0,-1
EndSplineSet
Validated: 1
EndChar

StartChar: hyphen
Encoding: 45 45 82
Width: 678
Flags: W
LayerCount: 2
Fore
SplineSet
90 465 m 1,0,-1
 90 621 l 1,1,-1
 588 621 l 1,2,-1
 588 465 l 1,3,-1
 90 465 l 1,0,-1
EndSplineSet
Validated: 1
EndChar

StartChar: endash
Encoding: 8211 8211 84
Width: 1000
Flags: W
LayerCount: 2
Fore
SplineSet
70 466 m 1,0,-1
 70 619 l 1,1,-1
 930 619 l 1,2,-1
 930 466 l 1,3,-1
 70 466 l 1,0,-1
EndSplineSet
Validated: 1
EndChar

StartChar: emdash
Encoding: 8212 8212 85
Width: 1600
Flags: W
LayerCount: 2
Fore
SplineSet
104 466 m 1,0,-1
 104 619 l 1,1,-1
 1496 619 l 1,2,-1
 1496 466 l 1,3,-1
 104 466 l 1,0,-1
EndSplineSet
Validated: 1
EndChar

StartChar: uni2015
Encoding: 8213 8213 86
Width: 1759
Flags: W
LayerCount: 2
Fore
SplineSet
1759 466 m 1,0,-1
 0 466 l 1,1,-1
 0 619 l 1,2,-1
 1759 619 l 1,3,-1
 1759 466 l 1,0,-1
EndSplineSet
Validated: 1
EndChar

StartChar: parenleft
Encoding: 40 40 87
Width: 552
Flags: W
LayerCount: 2
Fore
SplineSet
350 -230 m 1,0,1
 251 -70 251 -70 198.5 139.5 c 128,-1,2
 146 349 146 349 146 567 c 256,3,4
 146 785 146 785 198.5 994.5 c 128,-1,5
 251 1204 251 1204 350 1364 c 1,6,-1
 499 1364 l 1,7,8
 396 1171 396 1171 354.5 973.5 c 128,-1,9
 313 776 313 776 313 567 c 256,10,11
 313 358 313 358 354.5 160.5 c 128,-1,12
 396 -37 396 -37 499 -230 c 1,13,-1
 350 -230 l 1,0,1
EndSplineSet
Validated: 1
EndChar

StartChar: parenright
Encoding: 41 41 88
Width: 552
Flags: W
LayerCount: 2
Fore
SplineSet
202 1364 m 1,0,1
 301 1204 301 1204 353.5 994.5 c 128,-1,2
 406 785 406 785 406 567 c 256,3,4
 406 349 406 349 353.5 139.5 c 128,-1,5
 301 -70 301 -70 202 -230 c 1,6,-1
 53 -230 l 1,7,8
 156 -37 156 -37 197.5 160.5 c 128,-1,9
 239 358 239 358 239 567 c 256,10,11
 239 776 239 776 197.5 973.5 c 128,-1,12
 156 1171 156 1171 53 1364 c 1,13,-1
 202 1364 l 1,0,1
EndSplineSet
Validated: 1
EndChar

StartChar: slash
Encoding: 47 47 89
Width: 643
Flags: W
LayerCount: 2
Fore
SplineSet
41 0 m 1,0,-1
 440 1363 l 1,1,-1
 602 1363 l 1,2,-1
 203 0 l 1,3,-1
 41 0 l 1,0,-1
EndSplineSet
Validated: 1
EndChar

StartChar: backslash
Encoding: 92 92 90
Width: 643
Flags: W
LayerCount: 2
Fore
SplineSet
442 0 m 1,0,-1
 41 1363 l 1,1,-1
 201 1363 l 1,2,-1
 602 0 l 1,3,-1
 442 0 l 1,0,-1
EndSplineSet
Validated: 1
EndChar

StartChar: bracketleft
Encoding: 91 91 91
Width: 552
Flags: W
LayerCount: 2
Fore
SplineSet
163 -230 m 1,0,-1
 163 1363 l 1,1,-1
 512 1363 l 1,2,-1
 512 1230 l 1,3,-1
 323 1230 l 1,4,-1
 323 -97 l 1,5,-1
 512 -97 l 1,6,-1
 512 -230 l 1,7,-1
 163 -230 l 1,0,-1
EndSplineSet
Validated: 1
EndChar

StartChar: bracketright
Encoding: 93 93 92
Width: 552
Flags: W
LayerCount: 2
Fore
SplineSet
40 -230 m 1,0,-1
 40 -97 l 1,1,-1
 229 -97 l 1,2,-1
 229 1230 l 1,3,-1
 40 1230 l 1,4,-1
 40 1363 l 1,5,-1
 389 1363 l 1,6,-1
 389 -230 l 1,7,-1
 40 -230 l 1,0,-1
EndSplineSet
Validated: 1
EndChar

StartChar: braceleft
Encoding: 123 123 93
Width: 552
Flags: W
LayerCount: 2
Fore
SplineSet
407 -230 m 2,0,1
 314 -230 314 -230 249.5 -183.5 c 128,-1,2
 185 -137 185 -137 185 -4 c 2,3,-1
 185 362 l 2,4,5
 185 417 185 417 162.5 459 c 128,-1,6
 140 501 140 501 68 501 c 2,7,-1
 58 501 l 1,8,-1
 58 632 l 1,9,-1
 68 632 l 2,10,11
 140 632 140 632 162.5 674 c 128,-1,12
 185 716 185 716 185 771 c 2,13,-1
 185 1137 l 2,14,15
 185 1271 185 1271 249.5 1317 c 128,-1,16
 314 1363 314 1363 407 1363 c 2,17,-1
 512 1363 l 1,18,-1
 512 1233 l 1,19,-1
 429 1233 l 2,20,21
 336 1233 336 1233 336 1137 c 2,22,-1
 336 734 l 2,23,24
 336 668 336 668 312 625 c 128,-1,25
 288 582 288 582 236 567 c 1,26,27
 288 551 288 551 312 508 c 128,-1,28
 336 465 336 465 336 399 c 2,29,-1
 336 -4 l 2,30,31
 336 -100 336 -100 429 -100 c 2,32,-1
 512 -100 l 1,33,-1
 512 -230 l 1,34,-1
 407 -230 l 2,0,1
EndSplineSet
Validated: 1
EndChar

StartChar: braceright
Encoding: 125 125 94
Width: 552
Flags: W
LayerCount: 2
Fore
SplineSet
40 -230 m 1,0,-1
 40 -100 l 1,1,-1
 123 -100 l 2,2,3
 216 -100 216 -100 216 -4 c 2,4,-1
 216 399 l 2,5,6
 216 465 216 465 240 508 c 128,-1,7
 264 551 264 551 316 566 c 1,8,9
 264 582 264 582 240 625 c 128,-1,10
 216 668 216 668 216 734 c 2,11,-1
 216 1137 l 2,12,13
 216 1233 216 1233 123 1233 c 2,14,-1
 40 1233 l 1,15,-1
 40 1363 l 1,16,-1
 145 1363 l 2,17,18
 238 1363 238 1363 302.5 1317 c 128,-1,19
 367 1271 367 1271 367 1137 c 2,20,-1
 367 771 l 2,21,22
 367 716 367 716 389.5 674 c 128,-1,23
 412 632 412 632 484 632 c 2,24,-1
 494 632 l 1,25,-1
 494 501 l 1,26,-1
 484 501 l 2,27,28
 412 501 412 501 389.5 459 c 128,-1,29
 367 417 367 417 367 362 c 2,30,-1
 367 -4 l 2,31,32
 367 -137 367 -137 302.5 -183.5 c 128,-1,33
 238 -230 238 -230 145 -230 c 2,34,-1
 40 -230 l 1,0,-1
EndSplineSet
Validated: 1
EndChar

StartChar: bullet
Encoding: 8226 8226 95
Width: 670
Flags: W
LayerCount: 2
Fore
SplineSet
335 424 m 256,0,1
 229 424 229 424 160 494 c 128,-1,2
 91 564 91 564 91 679 c 0,3,4
 91 789 91 789 160 859 c 128,-1,5
 229 929 229 929 335 929 c 0,6,7
 442 929 442 929 510.5 859 c 128,-1,8
 579 789 579 789 579 679 c 0,9,10
 579 564 579 564 510 494 c 128,-1,11
 441 424 441 424 335 424 c 256,0,1
EndSplineSet
Validated: 1
EndChar

StartChar: guilsinglleft
Encoding: 8249 8249 96
Width: 556
Flags: W
LayerCount: 2
Fore
SplineSet
311 62 m 1,0,-1
 74 477 l 1,1,-1
 315 889 l 1,2,-1
 473 889 l 1,3,-1
 248 479 l 1,4,-1
 473 62 l 1,5,-1
 311 62 l 1,0,-1
EndSplineSet
Validated: 1
EndChar

StartChar: guilsinglright
Encoding: 8250 8250 97
Width: 556
Flags: W
LayerCount: 2
Fore
SplineSet
83 62 m 1,0,-1
 308 472 l 1,1,-1
 83 889 l 1,2,-1
 245 889 l 1,3,-1
 482 473 l 1,4,-1
 242 62 l 1,5,-1
 83 62 l 1,0,-1
EndSplineSet
Validated: 1
EndChar

StartChar: at
Encoding: 64 64 100
Width: 1618
Flags: W
LayerCount: 2
Fore
SplineSet
781 -396 m 0,0,1
 567 -396 567 -396 401 -305.5 c 128,-1,2
 235 -215 235 -215 140.5 -46.5 c 128,-1,3
 46 122 46 122 46 354 c 0,4,5
 46 547 46 547 95.5 694 c 128,-1,6
 145 841 145 841 228.5 946 c 128,-1,7
 312 1051 312 1051 416.5 1117.5 c 128,-1,8
 521 1184 521 1184 632.5 1215.5 c 128,-1,9
 744 1247 744 1247 848 1247 c 0,10,11
 1056 1247 1056 1247 1221 1167.5 c 128,-1,12
 1386 1088 1386 1088 1482 936 c 128,-1,13
 1578 784 1578 784 1578 566 c 0,14,15
 1578 378 1578 378 1524 250 c 128,-1,16
 1470 122 1470 122 1379.5 57 c 128,-1,17
 1289 -8 1289 -8 1179 -8 c 0,18,19
 1097 -8 1097 -8 1043 25 c 128,-1,20
 989 58 989 58 977 137 c 1,21,22
 919 51 919 51 851 16 c 128,-1,23
 783 -19 783 -19 704 -19 c 0,24,25
 610 -19 610 -19 544 27.5 c 128,-1,26
 478 74 478 74 443.5 152.5 c 128,-1,27
 409 231 409 231 409 327 c 0,28,29
 409 481 409 481 462 598.5 c 128,-1,30
 515 716 515 716 608 783 c 128,-1,31
 701 850 701 850 820 850 c 0,32,33
 971 850 971 850 1044 710 c 1,34,-1
 1065 829 l 1,35,-1
 1206 829 l 1,36,-1
 1105 223 l 2,37,38
 1085 102 1085 102 1188 102 c 0,39,40
 1289 102 1289 102 1366 212 c 128,-1,41
 1443 322 1443 322 1443 552 c 0,42,43
 1443 735 1443 735 1368.5 862.5 c 128,-1,44
 1294 990 1294 990 1160 1057 c 128,-1,45
 1026 1124 1026 1124 848 1124 c 0,46,47
 658 1124 658 1124 508.5 1028.5 c 128,-1,48
 359 933 359 933 273 761 c 128,-1,49
 187 589 187 589 187 361 c 0,50,51
 187 166 187 166 259.5 23.5 c 128,-1,52
 332 -119 332 -119 467.5 -197 c 128,-1,53
 603 -275 603 -275 790 -275 c 0,54,55
 910 -275 910 -275 989.5 -253.5 c 128,-1,56
 1069 -232 1069 -232 1122.5 -193.5 c 128,-1,57
 1176 -155 1176 -155 1218 -103 c 1,58,-1
 1374 -103 l 1,59,60
 1295 -239 1295 -239 1152.5 -317.5 c 128,-1,61
 1010 -396 1010 -396 781 -396 c 0,0,1
730 105 m 0,62,63
 815 105 815 105 867 149.5 c 128,-1,64
 919 194 919 194 946.5 262 c 128,-1,65
 974 330 974 330 984 400 c 2,66,-1
 994 469 l 2,67,68
 1010 576 1010 576 967.5 653.5 c 128,-1,69
 925 731 925 731 827 731 c 0,70,71
 758 731 758 731 698 687.5 c 128,-1,72
 638 644 638 644 600.5 558 c 128,-1,73
 563 472 563 472 563 343 c 0,74,75
 563 222 563 222 610 163.5 c 128,-1,76
 657 105 657 105 730 105 c 0,62,63
EndSplineSet
Validated: 33
EndChar

StartChar: A
Encoding: 65 65 102
Width: 1218
GlyphClass: 2
Flags: W
AnchorPoint: "Anchor-10" 183 1220 basechar 0
AnchorPoint: "Anchor-7" 607 1336 basechar 0
AnchorPoint: "Anchor-4" 1100 -93 basechar 0
AnchorPoint: "Anchor-1" 605 -55 basechar 0
LayerCount: 2
Fore
SplineSet
35 0 m 1,0,-1
 522 1324 l 1,1,-1
 698 1324 l 1,2,-1
 1183 0 l 1,3,-1
 1004 0 l 1,4,-1
 872 374 l 1,5,-1
 338 374 l 1,6,-1
 207 0 l 1,7,-1
 35 0 l 1,0,-1
387 517 m 1,8,-1
 824 517 l 1,9,-1
 604 1128 l 1,10,-1
 387 517 l 1,8,-1
EndSplineSet
Validated: 1048577
EndChar

StartChar: B
Encoding: 66 66 103
Width: 1162
GlyphClass: 2
Flags: W
AnchorPoint: "Anchor-7" 628 1336 basechar 0
AnchorPoint: "Anchor-1" 629 -55 basechar 0
LayerCount: 2
Fore
SplineSet
178 0 m 1,0,-1
 178 1324 l 1,1,-1
 597 1324 l 2,2,3
 837 1324 837 1324 939 1236 c 128,-1,4
 1041 1148 1041 1148 1041 986 c 0,5,6
 1041 896 1041 896 1001.5 823 c 128,-1,7
 962 750 962 750 866 702 c 1,8,9
 991 651 991 651 1035.5 565 c 128,-1,10
 1080 479 1080 479 1080 384 c 0,11,12
 1080 277 1080 277 1037 190 c 128,-1,13
 994 103 994 103 895 51.5 c 128,-1,14
 796 0 796 0 628 0 c 2,15,-1
 178 0 l 1,0,-1
591 1188 m 2,16,-1
 339 1188 l 1,17,-1
 339 764 l 1,18,-1
 617 764 l 2,19,20
 743 764 743 764 811.5 814 c 128,-1,21
 880 864 880 864 880 982 c 0,22,23
 880 1104 880 1104 804 1146 c 128,-1,24
 728 1188 728 1188 591 1188 c 2,16,-1
634 622 m 2,25,-1
 339 622 l 1,26,-1
 339 137 l 1,27,-1
 622 137 l 2,28,29
 777 137 777 137 846 194.5 c 128,-1,30
 915 252 915 252 915 378 c 0,31,32
 915 509 915 509 842.5 565.5 c 128,-1,33
 770 622 770 622 634 622 c 2,25,-1
EndSplineSet
Validated: 1048577
EndChar

StartChar: C
Encoding: 67 67 104
Width: 1238
GlyphClass: 2
Flags: W
AnchorPoint: "Anchor-7" 677 1336 basechar 0
AnchorPoint: "Anchor-1" 679 -55 basechar 0
LayerCount: 2
Fore
SplineSet
996 953 m 1,0,1
 962 1075 962 1075 890.5 1145 c 128,-1,2
 819 1215 819 1215 677 1215 c 0,3,4
 553 1215 553 1215 466 1145 c 128,-1,5
 379 1075 379 1075 333.5 950.5 c 128,-1,6
 288 826 288 826 288 662 c 0,7,8
 288 497 288 497 334 372.5 c 128,-1,9
 380 248 380 248 467.5 178.5 c 128,-1,10
 555 109 555 109 679 109 c 0,11,12
 833 109 833 109 907 183 c 128,-1,13
 981 257 981 257 1008 373 c 1,14,-1
 1181 373 l 1,15,16
 1146 196 1146 196 1022 81 c 128,-1,17
 898 -34 898 -34 677 -34 c 0,18,19
 504 -34 504 -34 378 49 c 128,-1,20
 252 132 252 132 184 287.5 c 128,-1,21
 116 443 116 443 116 661 c 0,22,23
 116 883 116 883 189.5 1039 c 128,-1,24
 263 1195 263 1195 390 1276.5 c 128,-1,25
 517 1358 517 1358 677 1358 c 0,26,27
 889 1358 889 1358 999.5 1256 c 128,-1,28
 1110 1154 1110 1154 1156 989 c 1,29,-1
 996 953 l 1,0,1
EndSplineSet
Validated: 1048577
EndChar

StartChar: D
Encoding: 68 68 105
Width: 1319
GlyphClass: 2
Flags: W
AnchorPoint: "Anchor-7" 584 1336 basechar 0
AnchorPoint: "Anchor-1" 584 -55 basechar 0
LayerCount: 2
Fore
SplineSet
178 0 m 1,0,-1
 178 1324 l 1,1,-1
 619 1324 l 2,2,3
 892 1324 892 1324 1047.5 1162.5 c 128,-1,4
 1203 1001 1203 1001 1203 671 c 0,5,6
 1203 338 1203 338 1035.5 169 c 128,-1,7
 868 0 868 0 579 0 c 2,8,-1
 178 0 l 1,0,-1
619 1183 m 2,9,-1
 343 1183 l 1,10,-1
 343 143 l 1,11,-1
 586 143 l 2,12,13
 817 143 817 143 923.5 283 c 128,-1,14
 1030 423 1030 423 1030 667 c 0,15,16
 1030 912 1030 912 933 1047.5 c 128,-1,17
 836 1183 836 1183 619 1183 c 2,9,-1
EndSplineSet
Validated: 1048577
EndChar

StartChar: E
Encoding: 69 69 106
Width: 1070
GlyphClass: 2
Flags: W
AnchorPoint: "Anchor-10" -104 1220 basechar 0
AnchorPoint: "Anchor-7" 581 1336 basechar 0
AnchorPoint: "Anchor-4" 895 -93 basechar 0
AnchorPoint: "Anchor-1" 572 -55 basechar 0
LayerCount: 2
Fore
SplineSet
1005 146 m 1,0,-1
 978 0 l 1,1,-1
 178 0 l 1,2,-1
 178 1324 l 1,3,-1
 972 1324 l 1,4,-1
 972 1178 l 1,5,-1
 343 1178 l 1,6,-1
 343 758 l 1,7,-1
 937 758 l 1,8,-1
 937 611 l 1,9,-1
 343 611 l 1,10,-1
 343 146 l 1,11,-1
 1005 146 l 1,0,-1
EndSplineSet
Validated: 1048577
EndChar

StartChar: F
Encoding: 70 70 107
Width: 1010
GlyphClass: 2
Flags: W
AnchorPoint: "Anchor-7" 562 1336 basechar 0
AnchorPoint: "Anchor-1" 261 -55 basechar 0
LayerCount: 2
Fore
SplineSet
178 0 m 1,0,-1
 178 1324 l 1,1,-1
 948 1324 l 1,2,-1
 948 1179 l 1,3,-1
 343 1179 l 1,4,-1
 343 740 l 1,5,-1
 910 740 l 1,6,-1
 910 591 l 1,7,-1
 343 591 l 1,8,-1
 343 0 l 1,9,-1
 178 0 l 1,0,-1
EndSplineSet
Validated: 1048577
EndChar

StartChar: G
Encoding: 71 71 108
Width: 1320
GlyphClass: 2
Flags: W
AnchorPoint: "Anchor-7" 681 1336 basechar 0
AnchorPoint: "Anchor-1" 646 -55 basechar 0
LayerCount: 2
Fore
SplineSet
698 -34 m 0,0,1
 420 -34 420 -34 268 151 c 128,-1,2
 116 336 116 336 116 661 c 0,3,4
 116 701 116 701 118.5 736.5 c 128,-1,5
 121 772 121 772 125 803 c 0,6,7
 157 1066 157 1066 307.5 1212 c 128,-1,8
 458 1358 458 1358 681 1358 c 0,9,10
 881 1358 881 1358 992 1265.5 c 128,-1,11
 1103 1173 1103 1173 1146 1021 c 1,12,-1
 988 983 l 1,13,14
 958 1087 958 1087 890 1151.5 c 128,-1,15
 822 1216 822 1216 681 1216 c 0,16,17
 512 1216 512 1216 413.5 1095.5 c 128,-1,18
 315 975 315 975 293 773 c 0,19,20
 291 752 291 752 289.5 720 c 128,-1,21
 288 688 288 688 288 663 c 0,22,23
 288 498 288 498 332.5 373.5 c 128,-1,24
 377 249 377 249 468 179 c 128,-1,25
 559 109 559 109 698 109 c 0,26,27
 791 109 791 109 874.5 134 c 128,-1,28
 958 159 958 159 1024 210 c 1,29,-1
 1024 536 l 1,30,-1
 711 536 l 1,31,-1
 711 679 l 1,32,-1
 1181 679 l 1,33,-1
 1181 151 l 1,34,35
 1087 59 1087 59 956.5 12.5 c 128,-1,36
 826 -34 826 -34 698 -34 c 0,0,1
EndSplineSet
Validated: 1048577
EndChar

StartChar: H
Encoding: 72 72 109
Width: 1336
GlyphClass: 2
Flags: W
AnchorPoint: "Anchor-10" -104 1220 basechar 0
AnchorPoint: "Anchor-7" 667 1336 basechar 0
AnchorPoint: "Anchor-1" 667 -55 basechar 0
LayerCount: 2
Fore
SplineSet
178 0 m 1,0,-1
 178 1324 l 1,1,-1
 343 1324 l 1,2,-1
 343 763 l 1,3,-1
 993 763 l 1,4,-1
 993 1324 l 1,5,-1
 1158 1324 l 1,6,-1
 1158 0 l 1,7,-1
 993 0 l 1,8,-1
 993 609 l 1,9,-1
 343 609 l 1,10,-1
 343 0 l 1,11,-1
 178 0 l 1,0,-1
EndSplineSet
Validated: 1048577
EndChar

StartChar: I
Encoding: 73 73 110
Width: 521
GlyphClass: 2
Flags: W
AnchorPoint: "Anchor-10" -104 1220 basechar 0
AnchorPoint: "Anchor-7" 259 1336 basechar 0
AnchorPoint: "Anchor-4" 260 -93 basechar 0
AnchorPoint: "Anchor-1" 259 -55 basechar 0
LayerCount: 2
Fore
SplineSet
178 0 m 1,0,-1
 178 1324 l 1,1,-1
 343 1324 l 1,2,-1
 343 0 l 1,3,-1
 178 0 l 1,0,-1
EndSplineSet
Validated: 1048577
EndChar

StartChar: J
Encoding: 74 74 111
Width: 1075
GlyphClass: 2
Flags: W
AnchorPoint: "Anchor-7" 831 1336 basechar 0
AnchorPoint: "Anchor-1" 521 -55 basechar 0
LayerCount: 2
Fore
SplineSet
214 395 m 1,0,1
 227 272 227 272 286 193.5 c 128,-1,2
 345 115 345 115 485 115 c 0,3,4
 634 115 634 115 690 204 c 128,-1,5
 746 293 746 293 746 447 c 2,6,-1
 746 1324 l 1,7,-1
 917 1324 l 1,8,-1
 917 434 l 2,9,10
 917 209 917 209 807.5 87.5 c 128,-1,11
 698 -34 698 -34 489 -34 c 0,12,13
 291 -34 291 -34 175.5 69 c 128,-1,14
 60 172 60 172 40 395 c 1,15,-1
 214 395 l 1,0,1
EndSplineSet
Validated: 1048577
EndChar

StartChar: K
Encoding: 75 75 112
Width: 1176
GlyphClass: 2
Flags: W
AnchorPoint: "Anchor-7" 569 1336 basechar 0
AnchorPoint: "Anchor-1" 592 -55 basechar 0
LayerCount: 2
Fore
SplineSet
178 0 m 1,0,-1
 178 1324 l 1,1,-1
 345 1324 l 1,2,-1
 345 691 l 1,3,-1
 929 1324 l 1,4,-1
 1118 1324 l 1,5,-1
 671 827 l 1,6,-1
 1164 0 l 1,7,-1
 974 0 l 1,8,-1
 550 720 l 1,9,-1
 345 505 l 1,10,-1
 345 0 l 1,11,-1
 178 0 l 1,0,-1
EndSplineSet
Validated: 1048577
EndChar

StartChar: L
Encoding: 76 76 113
Width: 950
GlyphClass: 2
Flags: W
AnchorPoint: "Anchor-8" 721 666 basechar 0
AnchorPoint: "Anchor-7" 261 1336 basechar 0
AnchorPoint: "Anchor-1" 531 -55 basechar 0
LayerCount: 2
Fore
SplineSet
178 0 m 1,0,-1
 178 1324 l 1,1,-1
 343 1324 l 1,2,-1
 343 146 l 1,3,-1
 910 146 l 1,4,-1
 885 0 l 1,5,-1
 178 0 l 1,0,-1
EndSplineSet
Validated: 1048577
EndChar

StartChar: M
Encoding: 77 77 114
Width: 1598
GlyphClass: 2
Flags: W
AnchorPoint: "Anchor-7" 802 1336 basechar 0
AnchorPoint: "Anchor-1" 793 -55 basechar 0
LayerCount: 2
Fore
SplineSet
178 0 m 1,0,-1
 178 1324 l 1,1,-1
 382 1324 l 1,2,-1
 799 195 l 1,3,-1
 1222 1324 l 1,4,-1
 1420 1324 l 1,5,-1
 1420 0 l 1,6,-1
 1267 0 l 1,7,-1
 1267 1049 l 1,8,-1
 861 0 l 1,9,-1
 727 0 l 1,10,-1
 329 1045 l 1,11,-1
 329 0 l 1,12,-1
 178 0 l 1,0,-1
EndSplineSet
Validated: 1048577
EndChar

StartChar: N
Encoding: 78 78 115
Width: 1320
GlyphClass: 2
Flags: W
AnchorPoint: "Anchor-7" 662 1336 basechar 0
AnchorPoint: "Anchor-1" 662 -55 basechar 0
LayerCount: 2
Fore
SplineSet
178 0 m 1,0,-1
 178 1324 l 1,1,-1
 341 1324 l 1,2,-1
 982 271 l 1,3,-1
 982 1324 l 1,4,-1
 1142 1324 l 1,5,-1
 1142 0 l 1,6,-1
 984 0 l 1,7,-1
 338 1048 l 1,8,-1
 338 0 l 1,9,-1
 178 0 l 1,0,-1
EndSplineSet
Validated: 1048577
EndChar

StartChar: O
Encoding: 79 79 116
Width: 1388
GlyphClass: 2
Flags: W
AnchorPoint: "Anchor-10" 17 1220 basechar 0
AnchorPoint: "Anchor-7" 693 1336 basechar 0
AnchorPoint: "Anchor-1" 693 -55 basechar 0
LayerCount: 2
Fore
SplineSet
694 -34 m 0,0,1
 523 -34 523 -34 392.5 47 c 128,-1,2
 262 128 262 128 189 283 c 128,-1,3
 116 438 116 438 116 660 c 0,4,5
 116 883 116 883 190 1039 c 128,-1,6
 264 1195 264 1195 394.5 1276.5 c 128,-1,7
 525 1358 525 1358 694 1358 c 0,8,9
 866 1358 866 1358 996 1277.5 c 128,-1,10
 1126 1197 1126 1197 1199 1043 c 128,-1,11
 1272 889 1272 889 1272 666 c 256,12,13
 1272 443 1272 443 1200 286.5 c 128,-1,14
 1128 130 1128 130 998.5 48 c 128,-1,15
 869 -34 869 -34 694 -34 c 0,0,1
694 109 m 0,16,17
 894 109 894 109 997 260.5 c 128,-1,18
 1100 412 1100 412 1100 662 c 0,19,20
 1100 828 1100 828 1053.5 952 c 128,-1,21
 1007 1076 1007 1076 916.5 1145.5 c 128,-1,22
 826 1215 826 1215 694 1215 c 0,23,24
 559 1215 559 1215 469 1145.5 c 128,-1,25
 379 1076 379 1076 333.5 951.5 c 128,-1,26
 288 827 288 827 288 662 c 0,27,28
 288 412 288 412 389.5 260.5 c 128,-1,29
 491 109 491 109 694 109 c 0,16,17
EndSplineSet
Validated: 1048577
EndChar

StartChar: P
Encoding: 80 80 117
Width: 1106
GlyphClass: 2
Flags: W
AnchorPoint: "Anchor-7" 598 1336 basechar 0
AnchorPoint: "Anchor-1" 259 -55 basechar 0
LayerCount: 2
Fore
SplineSet
178 0 m 1,0,-1
 178 1324 l 1,1,-1
 599 1324 l 2,2,3
 785 1324 785 1324 885.5 1270 c 128,-1,4
 986 1216 986 1216 1025 1127 c 128,-1,5
 1064 1038 1064 1038 1064 933 c 0,6,7
 1064 823 1064 823 1024 728 c 128,-1,8
 984 633 984 633 883 575.5 c 128,-1,9
 782 518 782 518 599 518 c 2,10,-1
 341 518 l 1,11,-1
 341 0 l 1,12,-1
 178 0 l 1,0,-1
595 1185 m 2,13,-1
 341 1185 l 1,14,-1
 341 658 l 1,15,-1
 597 658 l 2,16,17
 762 658 762 658 830.5 722.5 c 128,-1,18
 899 787 899 787 899 928 c 0,19,20
 899 1072 899 1072 827.5 1128.5 c 128,-1,21
 756 1185 756 1185 595 1185 c 2,13,-1
EndSplineSet
Validated: 1048577
EndChar

StartChar: Q
Encoding: 81 81 118
Width: 1388
GlyphClass: 2
Flags: W
AnchorPoint: "Anchor-7" 693 1336 basechar 0
AnchorPoint: "Anchor-1" 693 -55 basechar 0
LayerCount: 2
Fore
SplineSet
694 -34 m 0,0,1
 523 -34 523 -34 392.5 47 c 128,-1,2
 262 128 262 128 189 283 c 128,-1,3
 116 438 116 438 116 660 c 0,4,5
 116 883 116 883 190 1039 c 128,-1,6
 264 1195 264 1195 394.5 1276.5 c 128,-1,7
 525 1358 525 1358 694 1358 c 0,8,9
 866 1358 866 1358 996 1277.5 c 128,-1,10
 1126 1197 1126 1197 1199 1043 c 128,-1,11
 1272 889 1272 889 1272 666 c 0,12,13
 1272 492 1272 492 1226.5 358.5 c 128,-1,14
 1181 225 1181 225 1100 136 c 1,15,-1
 1255 -58 l 1,16,-1
 1149 -151 l 1,17,-1
 992 46 l 1,18,19
 863 -34 863 -34 694 -34 c 0,0,1
694 109 m 0,20,21
 815 109 815 109 899 161 c 1,22,-1
 740 362 l 1,23,-1
 845 453 l 1,24,-1
 999 256 l 1,25,26
 1050 329 1050 329 1075 432.5 c 128,-1,27
 1100 536 1100 536 1100 662 c 0,28,29
 1100 828 1100 828 1053.5 952 c 128,-1,30
 1007 1076 1007 1076 916.5 1145.5 c 128,-1,31
 826 1215 826 1215 694 1215 c 0,32,33
 559 1215 559 1215 469 1145.5 c 128,-1,34
 379 1076 379 1076 333.5 951.5 c 128,-1,35
 288 827 288 827 288 662 c 0,36,37
 288 412 288 412 389.5 260.5 c 128,-1,38
 491 109 491 109 694 109 c 0,20,21
EndSplineSet
Validated: 1048577
EndChar

StartChar: R
Encoding: 82 82 119
Width: 1150
GlyphClass: 2
Flags: W
AnchorPoint: "Anchor-7" 550 1336 basechar 0
AnchorPoint: "Anchor-1" 564 -55 basechar 0
LayerCount: 2
Fore
SplineSet
178 0 m 1,0,-1
 178 1324 l 1,1,-1
 591 1324 l 2,2,3
 731 1324 731 1324 821.5 1291.5 c 128,-1,4
 912 1259 912 1259 962.5 1205 c 128,-1,5
 1013 1151 1013 1151 1033.5 1085 c 128,-1,6
 1054 1019 1054 1019 1054 952 c 0,7,8
 1054 827 1054 827 1003 739 c 128,-1,9
 952 651 952 651 837 601 c 1,10,-1
 1104 0 l 1,11,-1
 919 0 l 1,12,-1
 682 559 l 1,13,14
 633 553 633 553 587 553 c 2,15,-1
 341 553 l 1,16,-1
 341 0 l 1,17,-1
 178 0 l 1,0,-1
586 1185 m 2,18,-1
 341 1185 l 1,19,-1
 341 696 l 1,20,-1
 606 696 l 2,21,22
 756 696 756 696 820.5 756 c 128,-1,23
 885 816 885 816 885 948 c 0,24,25
 885 1073 885 1073 815 1129 c 128,-1,26
 745 1185 745 1185 586 1185 c 2,18,-1
EndSplineSet
Validated: 1048577
EndChar

StartChar: S
Encoding: 83 83 120
Width: 1044
GlyphClass: 2
Flags: W
AnchorPoint: "Anchor-7" 519 1336 basechar 0
AnchorPoint: "Anchor-1" 502 -55 basechar 0
LayerCount: 2
Fore
SplineSet
790 1063 m 1,0,1
 759 1139 759 1139 697 1178 c 128,-1,2
 635 1217 635 1217 517 1217 c 0,3,4
 354 1217 354 1217 291 1154 c 128,-1,5
 228 1091 228 1091 228 1000 c 0,6,7
 228 893 228 893 280.5 844.5 c 128,-1,8
 333 796 333 796 446 774 c 2,9,-1
 622 740 l 2,10,11
 738 718 738 718 820.5 673.5 c 128,-1,12
 903 629 903 629 947 551 c 128,-1,13
 991 473 991 473 991 347 c 0,14,15
 991 242 991 242 940.5 155.5 c 128,-1,16
 890 69 890 69 789.5 17.5 c 128,-1,17
 689 -34 689 -34 539 -34 c 0,18,19
 349 -34 349 -34 221.5 39.5 c 128,-1,20
 94 113 94 113 50 275 c 1,21,-1
 234 275 l 1,22,23
 266 188 266 188 340.5 148 c 128,-1,24
 415 108 415 108 539 108 c 0,25,26
 645 108 645 108 705 141.5 c 128,-1,27
 765 175 765 175 790 231 c 128,-1,28
 815 287 815 287 815 352 c 0,29,30
 815 445 815 445 767.5 503.5 c 128,-1,31
 720 562 720 562 599 584 c 2,32,-1
 440 614 l 2,33,34
 320 637 320 637 235 678.5 c 128,-1,35
 150 720 150 720 105.5 795.5 c 128,-1,36
 61 871 61 871 61 995 c 0,37,38
 61 1117 61 1117 121 1197.5 c 128,-1,39
 181 1278 181 1278 284 1318 c 128,-1,40
 387 1358 387 1358 514 1358 c 0,41,42
 650 1358 650 1358 736.5 1322.5 c 128,-1,43
 823 1287 823 1287 873 1229 c 128,-1,44
 923 1171 923 1171 948 1101 c 1,45,-1
 790 1063 l 1,0,1
EndSplineSet
Validated: 1048577
EndChar

StartChar: T
Encoding: 84 84 121
Width: 1000
GlyphClass: 2
Flags: W
AnchorPoint: "Anchor-7" 501 1336 basechar 0
AnchorPoint: "Anchor-1" 501 -55 basechar 0
LayerCount: 2
Fore
SplineSet
416 0 m 1,0,-1
 416 1178 l 1,1,-1
 3 1178 l 1,2,-1
 3 1324 l 1,3,-1
 997 1324 l 1,4,-1
 997 1178 l 1,5,-1
 584 1178 l 1,6,-1
 584 0 l 1,7,-1
 416 0 l 1,0,-1
EndSplineSet
Validated: 1048577
EndChar

StartChar: U
Encoding: 85 85 122
Width: 1267
GlyphClass: 2
Flags: W
AnchorPoint: "Anchor-7" 634 1336 basechar 0
AnchorPoint: "Anchor-6" 761 -93 basechar 0
AnchorPoint: "Anchor-1" 634 -55 basechar 0
LayerCount: 2
Fore
SplineSet
634 -34 m 0,0,1
 407 -34 407 -34 282.5 99.5 c 128,-1,2
 158 233 158 233 158 533 c 2,3,-1
 158 1324 l 1,4,-1
 324 1324 l 1,5,-1
 324 526 l 2,6,7
 324 319 324 319 396.5 214 c 128,-1,8
 469 109 469 109 635 109 c 0,9,10
 758 109 758 109 825 161.5 c 128,-1,11
 892 214 892 214 918 308 c 128,-1,12
 944 402 944 402 944 526 c 2,13,-1
 944 1324 l 1,14,-1
 1109 1324 l 1,15,-1
 1109 525 l 2,16,17
 1109 230 1109 230 983.5 98 c 128,-1,18
 858 -34 858 -34 634 -34 c 0,0,1
EndSplineSet
Validated: 1048577
EndChar

StartChar: V
Encoding: 86 86 123
Width: 1174
GlyphClass: 2
Flags: W
AnchorPoint: "Anchor-7" 611 1336 basechar 0
AnchorPoint: "Anchor-1" 611 -55 basechar 0
LayerCount: 2
Fore
SplineSet
503 0 m 1,0,-1
 28 1324 l 1,1,-1
 215 1324 l 1,2,-1
 588 228 l 1,3,-1
 968 1324 l 1,4,-1
 1146 1324 l 1,5,-1
 671 0 l 1,6,-1
 503 0 l 1,0,-1
EndSplineSet
Validated: 1048577
EndChar

StartChar: W
Encoding: 87 87 124
Width: 1732
GlyphClass: 2
Flags: W
AnchorPoint: "Anchor-7" 870 1336 basechar 0
AnchorPoint: "Anchor-1" 870 -55 basechar 0
LayerCount: 2
Fore
SplineSet
408 0 m 1,0,-1
 38 1324 l 1,1,-1
 225 1324 l 1,2,-1
 499 229 l 1,3,-1
 784 1319 l 1,4,-1
 961 1319 l 1,5,-1
 1245 230 l 1,6,-1
 1517 1324 l 1,7,-1
 1694 1324 l 1,8,-1
 1332 0 l 1,9,-1
 1157 0 l 1,10,-1
 865 1110 l 1,11,-1
 578 0 l 1,12,-1
 408 0 l 1,0,-1
EndSplineSet
Validated: 1048577
EndChar

StartChar: X
Encoding: 88 88 125
Width: 1135
GlyphClass: 2
Flags: W
AnchorPoint: "Anchor-7" 567 1336 basechar 0
AnchorPoint: "Anchor-1" 562 -55 basechar 0
LayerCount: 2
Fore
SplineSet
25 0 m 1,0,-1
 467 699 l 1,1,-1
 58 1324 l 1,2,-1
 252 1324 l 1,3,-1
 566 818 l 1,4,-1
 885 1324 l 1,5,-1
 1063 1324 l 1,6,-1
 657 692 l 1,7,-1
 1110 0 l 1,8,-1
 918 0 l 1,9,-1
 557 568 l 1,10,-1
 206 0 l 1,11,-1
 25 0 l 1,0,-1
EndSplineSet
Validated: 1048577
EndChar

StartChar: Y
Encoding: 89 89 126
Width: 1073
GlyphClass: 2
Flags: W
AnchorPoint: "Anchor-10" -232 1220 basechar 0
AnchorPoint: "Anchor-7" 540 1336 basechar 0
AnchorPoint: "Anchor-1" 540 -55 basechar 0
LayerCount: 2
Fore
SplineSet
457 0 m 1,0,-1
 457 566 l 1,1,-1
 20 1324 l 1,2,-1
 210 1324 l 1,3,-1
 539 715 l 1,4,-1
 878 1324 l 1,5,-1
 1053 1324 l 1,6,-1
 624 564 l 1,7,-1
 624 0 l 1,8,-1
 457 0 l 1,0,-1
EndSplineSet
Validated: 1048577
EndChar

StartChar: Z
Encoding: 90 90 127
Width: 1062
GlyphClass: 2
Flags: W
AnchorPoint: "Anchor-7" 542 1336 basechar 0
AnchorPoint: "Anchor-1" 534 -55 basechar 0
LayerCount: 2
Fore
SplineSet
79 0 m 1,0,-1
 79 127 l 1,1,-1
 803 1179 l 1,2,-1
 92 1179 l 1,3,-1
 92 1324 l 1,4,-1
 992 1324 l 1,5,-1
 992 1195 l 1,6,-1
 270 147 l 1,7,-1
 1014 147 l 1,8,-1
 989 0 l 1,9,-1
 79 0 l 1,0,-1
EndSplineSet
Validated: 1048577
EndChar

StartChar: a
Encoding: 97 97 128
Width: 1010
GlyphClass: 2
Flags: W
AnchorPoint: "Anchor-3" 782 -93 basechar 0
AnchorPoint: "Anchor-2" 505 1021 basechar 0
AnchorPoint: "Anchor-0" 526 -55 basechar 0
LayerCount: 2
Fore
SplineSet
402 -23 m 0,0,1
 267 -23 267 -23 181.5 49 c 128,-1,2
 96 121 96 121 96 266 c 0,3,4
 96 367 96 367 137.5 429.5 c 128,-1,5
 179 492 179 492 246.5 525.5 c 128,-1,6
 314 559 314 559 394.5 573 c 128,-1,7
 475 587 475 587 554 590 c 2,8,-1
 706 597 l 1,9,-1
 706 633 l 2,10,11
 706 746 706 746 663 806.5 c 128,-1,12
 620 867 620 867 503 867 c 0,13,14
 396 867 396 867 347.5 828 c 128,-1,15
 299 789 299 789 284 723 c 1,16,-1
 142 739 l 1,17,18
 167 871 167 871 259 930.5 c 128,-1,19
 351 990 351 990 508 990 c 0,20,21
 647 990 647 990 723.5 941.5 c 128,-1,22
 800 893 800 893 830 810.5 c 128,-1,23
 860 728 860 728 860 625 c 2,24,-1
 860 0 l 1,25,-1
 709 0 l 1,26,-1
 709 132 l 1,27,28
 661 70 661 70 586.5 23.5 c 128,-1,29
 512 -23 512 -23 402 -23 c 0,0,1
255 268 m 0,30,31
 255 195 255 195 295 150.5 c 128,-1,32
 335 106 335 106 426 106 c 0,33,34
 549 106 549 106 624 172 c 0,35,36
 662 206 662 206 684 255.5 c 128,-1,37
 706 305 706 305 706 374 c 2,38,-1
 706 484 l 1,39,-1
 566 478 l 2,40,41
 397 471 397 471 326 422.5 c 128,-1,42
 255 374 255 374 255 268 c 0,30,31
EndSplineSet
Validated: 1048577
Substitution2: "'ordn' Ordinals lookup 31 subtable" ordfeminine
EndChar

StartChar: b
Encoding: 98 98 129
Width: 1060
GlyphClass: 2
Flags: W
AnchorPoint: "Anchor-7" 398 1336 basechar 0
AnchorPoint: "Anchor-0" 488 -55 basechar 0
LayerCount: 2
Fore
SplineSet
589 -30 m 0,0,1
 513 -30 513 -30 439.5 4 c 128,-1,2
 366 38 366 38 308 122 c 1,3,-1
 308 0 l 1,4,-1
 154 0 l 1,5,-1
 154 1324 l 1,6,-1
 310 1324 l 1,7,-1
 310 825 l 1,8,9
 364 904 364 904 436.5 947 c 128,-1,10
 509 990 509 990 607 990 c 0,11,12
 733 990 733 990 816 925.5 c 128,-1,13
 899 861 899 861 940.5 747.5 c 128,-1,14
 982 634 982 634 982 487 c 0,15,16
 982 249 982 249 876.5 109.5 c 128,-1,17
 771 -30 771 -30 589 -30 c 0,0,1
567 99 m 0,18,19
 674 99 674 99 747 186.5 c 128,-1,20
 820 274 820 274 820 485 c 0,21,22
 820 628 820 628 784.5 710 c 128,-1,23
 749 792 749 792 694 826.5 c 128,-1,24
 639 861 639 861 579 861 c 0,25,26
 444 861 444 861 372 754 c 0,27,28
 309 665 309 665 309 518 c 2,29,-1
 309 453 l 2,30,31
 309 290 309 290 370 200 c 0,32,33
 405 147 405 147 456 123 c 128,-1,34
 507 99 507 99 567 99 c 0,18,19
EndSplineSet
Validated: 1048577
EndChar

StartChar: c
Encoding: 99 99 130
Width: 954
GlyphClass: 2
Flags: W
AnchorPoint: "Anchor-2" 519 1021 basechar 0
AnchorPoint: "Anchor-0" 514 -55 basechar 0
LayerCount: 2
Fore
SplineSet
741 675 m 1,0,1
 722 758 722 758 673 809.5 c 128,-1,2
 624 861 624 861 526 861 c 256,3,4
 428 861 428 861 367 810 c 128,-1,5
 306 759 306 759 278 673 c 128,-1,6
 250 587 250 587 250 480 c 0,7,8
 250 375 250 375 276.5 288.5 c 128,-1,9
 303 202 303 202 363.5 150.5 c 128,-1,10
 424 99 424 99 524 99 c 0,11,12
 626 99 626 99 678.5 149.5 c 128,-1,13
 731 200 731 200 751 282 c 1,14,-1
 909 282 l 1,15,16
 880 137 880 137 782.5 53.5 c 128,-1,17
 685 -30 685 -30 520 -30 c 0,18,19
 309 -30 309 -30 198.5 107.5 c 128,-1,20
 88 245 88 245 88 477 c 0,21,22
 88 631 88 631 141.5 746 c 128,-1,23
 195 861 195 861 294.5 925.5 c 128,-1,24
 394 990 394 990 531 990 c 0,25,26
 681 990 681 990 772 917.5 c 128,-1,27
 863 845 863 845 895 717 c 1,28,-1
 741 675 l 1,0,1
EndSplineSet
Validated: 1048577
EndChar

StartChar: d
Encoding: 100 100 131
Width: 1068
GlyphClass: 2
Flags: W
AnchorPoint: "Anchor-8" 1119 666 basechar 0
AnchorPoint: "Anchor-7" 633 1336 basechar 0
AnchorPoint: "Anchor-0" 510 -55 basechar 0
LayerCount: 2
Fore
SplineSet
467 -30 m 0,0,1
 337 -30 337 -30 253 37.5 c 128,-1,2
 169 105 169 105 128.5 219.5 c 128,-1,3
 88 334 88 334 88 475 c 0,4,5
 88 713 88 713 194 851.5 c 128,-1,6
 300 990 300 990 484 990 c 0,7,8
 553 990 553 990 624.5 959 c 128,-1,9
 696 928 696 928 758 842 c 1,10,-1
 758 1324 l 1,11,-1
 914 1324 l 1,12,-1
 914 0 l 1,13,-1
 762 0 l 1,14,-1
 762 140 l 1,15,16
 706 58 706 58 633.5 14 c 128,-1,17
 561 -30 561 -30 467 -30 c 0,0,1
495 101 m 0,18,19
 545 101 545 101 582.5 114 c 128,-1,20
 620 127 620 127 657 159 c 0,21,22
 714 208 714 208 738.5 278.5 c 128,-1,23
 763 349 763 349 763 443 c 2,24,-1
 763 509 l 2,25,26
 763 616 763 616 742 683 c 128,-1,27
 721 750 721 750 662 802 c 0,28,29
 625 835 625 835 588.5 848 c 128,-1,30
 552 861 552 861 507 861 c 0,31,32
 398 861 398 861 324 773.5 c 128,-1,33
 250 686 250 686 250 478 c 0,34,35
 250 335 250 335 286 252.5 c 128,-1,36
 322 170 322 170 378 135.5 c 128,-1,37
 434 101 434 101 495 101 c 0,18,19
EndSplineSet
Validated: 1048577
EndChar

StartChar: e
Encoding: 101 101 132
Width: 1016
GlyphClass: 2
Flags: W
AnchorPoint: "Anchor-5" 589 -93 basechar 0
AnchorPoint: "Anchor-2" 520 1021 basechar 0
AnchorPoint: "Anchor-0" 518 -55 basechar 0
LayerCount: 2
Fore
SplineSet
524 -30 m 0,0,1
 316 -30 316 -30 202 104 c 128,-1,2
 88 238 88 238 88 473 c 0,3,4
 88 640 88 640 144.5 755 c 128,-1,5
 201 870 201 870 299.5 930 c 128,-1,6
 398 990 398 990 524 990 c 0,7,8
 666 990 666 990 756 929 c 128,-1,9
 846 868 846 868 889 762.5 c 128,-1,10
 932 657 932 657 932 522 c 2,11,-1
 932 441 l 1,12,-1
 248 441 l 1,13,14
 250 291 250 291 319 194 c 128,-1,15
 388 97 388 97 524 97 c 0,16,17
 639 97 639 97 694.5 143 c 128,-1,18
 750 189 750 189 769 268 c 1,19,-1
 919 268 l 1,20,21
 897 131 897 131 799 50.5 c 128,-1,22
 701 -30 701 -30 524 -30 c 0,0,1
522 869 m 0,23,24
 400 869 400 869 326.5 789 c 128,-1,25
 253 709 253 709 248 559 c 1,26,-1
 778 559 l 1,27,-1
 778 560 l 2,28,29
 778 698 778 698 718 783.5 c 128,-1,30
 658 869 658 869 522 869 c 0,23,24
EndSplineSet
Validated: 1048577
EndChar

StartChar: f
Encoding: 102 102 133
Width: 590
GlyphClass: 2
Flags: W
AnchorPoint: "Anchor-7" 441 1336 basechar 0
AnchorPoint: "Anchor-0" 254 -55 basechar 0
LayerCount: 2
Fore
SplineSet
177 0 m 1,0,-1
 177 839 l 1,1,-1
 34 839 l 1,2,-1
 34 961 l 1,3,-1
 177 961 l 1,4,-1
 177 1046 l 2,5,6
 177 1199 177 1199 262 1269.5 c 128,-1,7
 347 1340 347 1340 464 1340 c 0,8,9
 508 1340 508 1340 550.5 1334.5 c 128,-1,10
 593 1329 593 1329 630 1315 c 1,11,-1
 605 1193 l 1,12,13
 554 1211 554 1211 491 1211 c 0,14,15
 425 1211 425 1211 379 1176 c 128,-1,16
 333 1141 333 1141 333 1050 c 2,17,-1
 333 961 l 1,18,-1
 582 961 l 1,19,-1
 582 839 l 1,20,-1
 333 839 l 1,21,-1
 333 0 l 1,22,-1
 177 0 l 1,0,-1
EndSplineSet
Validated: 1048577
EndChar

StartChar: g
Encoding: 103 103 134
Width: 1068
GlyphClass: 2
Flags: W
AnchorPoint: "Anchor-2" 510 1021 basechar 0
AnchorPoint: "Anchor-1" 505 -397 basechar 0
LayerCount: 2
Fore
SplineSet
518 -385 m 0,0,1
 340 -385 340 -385 241 -317 c 128,-1,2
 142 -249 142 -249 125 -95 c 1,3,-1
 279 -95 l 1,4,5
 297 -183 297 -183 351.5 -220.5 c 128,-1,6
 406 -258 406 -258 516 -258 c 0,7,8
 614 -258 614 -258 666 -215.5 c 128,-1,9
 718 -173 718 -173 737.5 -98 c 128,-1,10
 757 -23 757 -23 757 75 c 2,11,-1
 757 182 l 1,12,13
 703 104 703 104 632 60.5 c 128,-1,14
 561 17 561 17 467 17 c 0,15,16
 339 17 339 17 255 83 c 128,-1,17
 171 149 171 149 129.5 259 c 128,-1,18
 88 369 88 369 88 501 c 0,19,20
 88 646 88 646 136.5 756 c 128,-1,21
 185 866 185 866 274 928 c 128,-1,22
 363 990 363 990 485 990 c 0,23,24
 557 990 557 990 627.5 957.5 c 128,-1,25
 698 925 698 925 759 836 c 1,26,-1
 759 960 l 1,27,-1
 914 960 l 1,28,-1
 914 153 l 2,29,30
 914 41 914 41 899.5 -56.5 c 128,-1,31
 885 -154 885 -154 844 -228 c 128,-1,32
 803 -302 803 -302 724.5 -343.5 c 128,-1,33
 646 -385 646 -385 518 -385 c 0,0,1
761 490 m 2,34,-1
 761 509 l 2,35,36
 761 616 761 616 740 683 c 128,-1,37
 719 750 719 750 660 802 c 0,38,39
 623 835 623 835 587 848 c 128,-1,40
 551 861 551 861 506 861 c 0,41,42
 398 861 398 861 324 776.5 c 128,-1,43
 250 692 250 692 250 502 c 0,44,45
 250 370 250 370 285.5 292.5 c 128,-1,46
 321 215 321 215 377 181.5 c 128,-1,47
 433 148 433 148 494 148 c 0,48,49
 543 148 543 148 580.5 161 c 128,-1,50
 618 174 618 174 655 206 c 0,51,52
 712 255 712 255 736.5 325.5 c 128,-1,53
 761 396 761 396 761 490 c 2,34,-1
EndSplineSet
Validated: 1048577
EndChar

StartChar: h
Encoding: 104 104 135
Width: 1078
GlyphClass: 2
Flags: W
AnchorPoint: "Anchor-7" 441 1336 basechar 0
AnchorPoint: "Anchor-0" 541 -55 basechar 0
LayerCount: 2
Fore
SplineSet
154 0 m 1,0,-1
 154 1324 l 1,1,-1
 310 1324 l 1,2,-1
 310 817 l 1,3,4
 379 909 379 909 459 949.5 c 128,-1,5
 539 990 539 990 626 990 c 0,6,7
 779 990 779 990 853.5 900 c 128,-1,8
 928 810 928 810 928 639 c 2,9,-1
 928 0 l 1,10,-1
 772 0 l 1,11,-1
 772 608 l 2,12,13
 772 730 772 730 731.5 792.5 c 128,-1,14
 691 855 691 855 589 855 c 0,15,16
 479 855 479 855 399 777 c 0,17,18
 349 728 349 728 329.5 680 c 128,-1,19
 310 632 310 632 310 569 c 2,20,-1
 310 0 l 1,21,-1
 154 0 l 1,0,-1
EndSplineSet
Validated: 1048577
EndChar

StartChar: i
Encoding: 105 105 136
Width: 464
GlyphClass: 2
Flags: W
AnchorPoint: "Anchor-3" 232 -93 basechar 0
AnchorPoint: "Anchor-0" 209 -55 basechar 0
LayerCount: 2
Fore
SplineSet
149 1138 m 1,0,-1
 149 1324 l 1,1,-1
 316 1324 l 1,2,-1
 316 1138 l 1,3,-1
 149 1138 l 1,0,-1
154 0 m 1,4,-1
 154 960 l 1,5,-1
 310 960 l 1,6,-1
 310 0 l 1,7,-1
 154 0 l 1,4,-1
EndSplineSet
Validated: 1048577
Substitution2: "'locl' Localized Forms in Latin lookup 0 subtable" i.locl
EndChar

StartChar: j
Encoding: 106 106 137
Width: 464
GlyphClass: 2
Flags: W
AnchorPoint: "Anchor-1" 98 -397 basechar 0
LayerCount: 2
Fore
SplineSet
148 1138 m 1,0,-1
 148 1324 l 1,1,-1
 316 1324 l 1,2,-1
 316 1138 l 1,3,-1
 148 1138 l 1,0,-1
63 -385 m 0,4,5
 9 -385 9 -385 -32 -376.5 c 128,-1,6
 -73 -368 -73 -368 -109 -355 c 1,7,-1
 -82 -231 l 1,8,9
 -57 -239 -57 -239 -28 -244 c 128,-1,10
 1 -249 1 -249 36 -249 c 0,11,12
 108 -249 108 -249 131 -205.5 c 128,-1,13
 154 -162 154 -162 154 -96 c 2,14,-1
 154 960 l 1,15,-1
 310 960 l 1,16,-1
 310 -51 l 2,17,18
 310 -106 310 -106 302.5 -165 c 128,-1,19
 295 -224 295 -224 270.5 -273.5 c 128,-1,20
 246 -323 246 -323 196.5 -354 c 128,-1,21
 147 -385 147 -385 63 -385 c 0,4,5
EndSplineSet
Validated: 1048577
EndChar

StartChar: k
Encoding: 107 107 138
Width: 958
GlyphClass: 2
Flags: W
AnchorPoint: "Anchor-7" 398 1336 basechar 0
AnchorPoint: "Anchor-0" 477 -55 basechar 0
LayerCount: 2
Fore
SplineSet
154 0 m 1,0,-1
 154 1324 l 1,1,-1
 308 1324 l 1,2,-1
 308 556 l 1,3,-1
 715 960 l 1,4,-1
 903 960 l 1,5,-1
 577 638 l 1,6,-1
 938 0 l 1,7,-1
 760 0 l 1,8,-1
 461 546 l 1,9,-1
 308 393 l 1,10,-1
 308 0 l 1,11,-1
 154 0 l 1,0,-1
EndSplineSet
Validated: 1048577
EndChar

StartChar: l
Encoding: 108 108 139
Width: 464
GlyphClass: 2
Flags: W
AnchorPoint: "Anchor-8" 515 666 basechar 0
AnchorPoint: "Anchor-7" 228 1336 basechar 0
AnchorPoint: "Anchor-0" 231 -55 basechar 0
LayerCount: 2
Fore
SplineSet
154 0 m 1,0,-1
 154 1324 l 1,1,-1
 310 1324 l 1,2,-1
 310 0 l 1,3,-1
 154 0 l 1,0,-1
EndSplineSet
Validated: 1048577
EndChar

StartChar: m
Encoding: 109 109 140
Width: 1652
GlyphClass: 2
Flags: W
AnchorPoint: "Anchor-2" 797 1021 basechar 0
AnchorPoint: "Anchor-0" 797 -55 basechar 0
LayerCount: 2
Fore
SplineSet
154 0 m 1,0,-1
 154 960 l 1,1,-1
 308 960 l 1,2,-1
 308 808 l 1,3,4
 373 899 373 899 452 944.5 c 128,-1,5
 531 990 531 990 614 990 c 0,6,7
 719 990 719 990 785 942.5 c 128,-1,8
 851 895 851 895 881 807 c 1,9,10
 1014 990 1014 990 1210 990 c 0,11,12
 1348 990 1348 990 1425 912.5 c 128,-1,13
 1502 835 1502 835 1502 665 c 2,14,-1
 1502 0 l 1,15,-1
 1346 0 l 1,16,-1
 1346 628 l 2,17,18
 1346 749 1346 749 1307 802 c 128,-1,19
 1268 855 1268 855 1175 855 c 0,20,21
 1131 855 1131 855 1081.5 841 c 128,-1,22
 1032 827 1032 827 985 787 c 0,23,24
 949 756 949 756 927.5 710.5 c 128,-1,25
 906 665 906 665 906 606 c 2,26,-1
 906 0 l 1,27,-1
 750 0 l 1,28,-1
 750 626 l 2,29,30
 750 741 750 741 710.5 798 c 128,-1,31
 671 855 671 855 581 855 c 0,32,33
 479 855 479 855 394 776 c 0,34,35
 362 746 362 746 336 698.5 c 128,-1,36
 310 651 310 651 310 572 c 2,37,-1
 310 0 l 1,38,-1
 154 0 l 1,0,-1
EndSplineSet
Validated: 1048577
EndChar

StartChar: n
Encoding: 110 110 141
Width: 1078
GlyphClass: 2
Flags: W
AnchorPoint: "Anchor-2" 549 1021 basechar 0
AnchorPoint: "Anchor-0" 542 -55 basechar 0
LayerCount: 2
Fore
SplineSet
154 0 m 1,0,-1
 154 960 l 1,1,-1
 308 960 l 1,2,-1
 308 814 l 1,3,4
 378 908 378 908 458 949 c 128,-1,5
 538 990 538 990 626 990 c 0,6,7
 779 990 779 990 853.5 900 c 128,-1,8
 928 810 928 810 928 639 c 2,9,-1
 928 0 l 1,10,-1
 772 0 l 1,11,-1
 772 608 l 2,12,13
 772 730 772 730 731.5 792.5 c 128,-1,14
 691 855 691 855 589 855 c 0,15,16
 479 855 479 855 399 777 c 0,17,18
 349 728 349 728 329.5 680 c 128,-1,19
 310 632 310 632 310 569 c 2,20,-1
 310 0 l 1,21,-1
 154 0 l 1,0,-1
EndSplineSet
Validated: 1048577
EndChar

StartChar: o
Encoding: 111 111 142
Width: 1060
GlyphClass: 2
Flags: W
AnchorPoint: "Anchor-2" 530 1021 basechar 0
AnchorPoint: "Anchor-0" 530 -55 basechar 0
LayerCount: 2
Fore
SplineSet
530 -30 m 0,0,1
 323 -30 323 -30 205.5 106 c 128,-1,2
 88 242 88 242 88 477 c 0,3,4
 88 634 88 634 142.5 749 c 128,-1,5
 197 864 197 864 296.5 927 c 128,-1,6
 396 990 396 990 530 990 c 0,7,8
 737 990 737 990 854.5 854 c 128,-1,9
 972 718 972 718 972 483 c 0,10,11
 972 327 972 327 917.5 211.5 c 128,-1,12
 863 96 863 96 764 33 c 128,-1,13
 665 -30 665 -30 530 -30 c 0,0,1
530 99 m 0,14,15
 677 99 677 99 743.5 206 c 128,-1,16
 810 313 810 313 810 480 c 0,17,18
 810 646 810 646 744.5 753.5 c 128,-1,19
 679 861 679 861 530 861 c 0,20,21
 383 861 383 861 316.5 754 c 128,-1,22
 250 647 250 647 250 480 c 0,23,24
 250 314 250 314 316 206.5 c 128,-1,25
 382 99 382 99 530 99 c 0,14,15
EndSplineSet
Validated: 1048577
Substitution2: "'ordn' Ordinals lookup 31 subtable" ordmasculine
EndChar

StartChar: p
Encoding: 112 112 143
Width: 1070
GlyphClass: 2
Flags: W
AnchorPoint: "Anchor-2" 577 1021 basechar 0
AnchorPoint: "Anchor-1" 231 -397 basechar 0
LayerCount: 2
Fore
SplineSet
154 -363 m 1,0,-1
 154 960 l 1,1,-1
 308 960 l 1,2,-1
 308 823 l 1,3,4
 361 901 361 901 434.5 945.5 c 128,-1,5
 508 990 508 990 607 990 c 0,6,7
 733 990 733 990 816 925.5 c 128,-1,8
 899 861 899 861 940.5 747.5 c 128,-1,9
 982 634 982 634 982 487 c 0,10,11
 982 249 982 249 876.5 109.5 c 128,-1,12
 771 -30 771 -30 589 -30 c 0,13,14
 515 -30 515 -30 441.5 3 c 128,-1,15
 368 36 368 36 310 120 c 1,16,-1
 310 -363 l 1,17,-1
 154 -363 l 1,0,-1
567 99 m 0,18,19
 674 99 674 99 747 186.5 c 128,-1,20
 820 274 820 274 820 485 c 0,21,22
 820 628 820 628 784.5 710 c 128,-1,23
 749 792 749 792 694 826.5 c 128,-1,24
 639 861 639 861 579 861 c 0,25,26
 517 861 517 861 463 834 c 128,-1,27
 409 807 409 807 372 754 c 0,28,29
 342 711 342 711 325.5 651.5 c 128,-1,30
 309 592 309 592 309 518 c 2,31,-1
 309 453 l 2,32,33
 309 294 309 294 370 200 c 0,34,35
 405 148 405 148 457 123.5 c 128,-1,36
 509 99 509 99 567 99 c 0,18,19
EndSplineSet
Validated: 1048577
EndChar

StartChar: q
Encoding: 113 113 144
Width: 1068
GlyphClass: 2
Flags: W
AnchorPoint: "Anchor-2" 510 1021 basechar 0
AnchorPoint: "Anchor-1" 853 -397 basechar 0
LayerCount: 2
Fore
SplineSet
758 -363 m 1,0,-1
 758 137 l 1,1,2
 701 57 701 57 630.5 13.5 c 128,-1,3
 560 -30 560 -30 466 -30 c 0,4,5
 336 -30 336 -30 252 37.5 c 128,-1,6
 168 105 168 105 128 219.5 c 128,-1,7
 88 334 88 334 88 475 c 0,8,9
 88 715 88 715 194 852.5 c 128,-1,10
 300 990 300 990 483 990 c 0,11,12
 555 990 555 990 626.5 958.5 c 128,-1,13
 698 927 698 927 760 837 c 1,14,-1
 760 960 l 1,15,-1
 914 960 l 1,16,-1
 914 -363 l 1,17,-1
 758 -363 l 1,0,-1
494 101 m 0,18,19
 543 101 543 101 580.5 114 c 128,-1,20
 618 127 618 127 655 159 c 0,21,22
 712 208 712 208 736.5 278.5 c 128,-1,23
 761 349 761 349 761 443 c 2,24,-1
 761 509 l 2,25,26
 761 616 761 616 740 683 c 128,-1,27
 719 750 719 750 660 802 c 0,28,29
 623 835 623 835 587 848 c 128,-1,30
 551 861 551 861 506 861 c 0,31,32
 398 861 398 861 324 773.5 c 128,-1,33
 250 686 250 686 250 478 c 0,34,35
 250 335 250 335 285.5 252.5 c 128,-1,36
 321 170 321 170 377 135.5 c 128,-1,37
 433 101 433 101 494 101 c 0,18,19
EndSplineSet
Validated: 1048577
EndChar

StartChar: r
Encoding: 114 114 145
Width: 708
GlyphClass: 2
Flags: W
AnchorPoint: "Anchor-2" 411 1021 basechar 0
AnchorPoint: "Anchor-0" 231 -55 basechar 0
LayerCount: 2
Fore
SplineSet
154 0 m 1,0,-1
 154 960 l 1,1,-1
 308 960 l 1,2,-1
 308 810 l 1,3,4
 415 976 415 976 574 976 c 0,5,6
 636 976 636 976 665 969 c 1,7,-1
 645 824 l 1,8,9
 630 827 630 827 608.5 830 c 128,-1,10
 587 833 587 833 561 833 c 0,11,12
 518 833 518 833 475 816.5 c 128,-1,13
 432 800 432 800 394 764 c 0,14,15
 310 684 310 684 310 573 c 2,16,-1
 310 0 l 1,17,-1
 154 0 l 1,0,-1
EndSplineSet
Validated: 1048577
EndChar

StartChar: s
Encoding: 115 115 146
Width: 890
GlyphClass: 2
Flags: W
AnchorPoint: "Anchor-2" 443 1021 basechar 0
AnchorPoint: "Anchor-0" 437 -55 basechar 0
LayerCount: 2
Fore
SplineSet
647 736 m 1,0,1
 622 802 622 802 577 833.5 c 128,-1,2
 532 865 532 865 437 865 c 0,3,4
 316 865 316 865 270.5 819.5 c 128,-1,5
 225 774 225 774 225 720 c 0,6,7
 225 653 225 653 261.5 619.5 c 128,-1,8
 298 586 298 586 390 570 c 2,9,-1
 522 548 l 2,10,11
 678 522 678 522 747 453.5 c 128,-1,12
 816 385 816 385 816 252 c 0,13,14
 816 131 816 131 726 50.5 c 128,-1,15
 636 -30 636 -30 455 -30 c 0,16,17
 303 -30 303 -30 192.5 30.5 c 128,-1,18
 82 91 82 91 58 239 c 1,19,-1
 219 239 l 1,20,21
 238 160 238 160 297 128.5 c 128,-1,22
 356 97 356 97 451 97 c 0,23,24
 563 97 563 97 609.5 139.5 c 128,-1,25
 656 182 656 182 656 252 c 0,26,27
 656 318 656 318 622.5 357 c 128,-1,28
 589 396 589 396 501 410 c 2,29,-1
 386 429 l 2,30,31
 238 454 238 454 157 514 c 128,-1,32
 76 574 76 574 76 708 c 0,33,34
 76 840 76 840 178 915 c 128,-1,35
 280 990 280 990 432 990 c 0,36,37
 548 990 548 990 619 961 c 128,-1,38
 690 932 690 932 729.5 883 c 128,-1,39
 769 834 769 834 788 773 c 1,40,-1
 647 736 l 1,0,1
EndSplineSet
Validated: 1048577
EndChar

StartChar: t
Encoding: 116 116 147
Width: 710
GlyphClass: 2
Flags: W
AnchorPoint: "Anchor-9" 545 966 basechar 0
AnchorPoint: "Anchor-2" 263 1276 basechar 0
AnchorPoint: "Anchor-0" 405 -55 basechar 0
LayerCount: 2
Fore
SplineSet
642 960 m 1,0,-1
 642 837 l 1,1,-1
 342 837 l 1,2,-1
 342 266 l 2,3,4
 342 195 342 195 372.5 151.5 c 128,-1,5
 403 108 403 108 468 108 c 0,6,7
 516 108 516 108 558 118.5 c 128,-1,8
 600 129 600 129 633 142 c 1,9,-1
 660 23 l 1,10,11
 623 7 623 7 566 -7 c 128,-1,12
 509 -21 509 -21 440 -21 c 0,13,14
 330 -21 330 -21 275.5 25.5 c 128,-1,15
 221 72 221 72 203.5 148 c 128,-1,16
 186 224 186 224 186 310 c 2,17,-1
 186 837 l 1,18,-1
 45 837 l 1,19,-1
 45 960 l 1,20,-1
 186 960 l 1,21,-1
 186 1222 l 1,22,-1
 342 1222 l 1,23,-1
 342 960 l 1,24,-1
 642 960 l 1,0,-1
EndSplineSet
Validated: 1048577
EndChar

StartChar: u
Encoding: 117 117 148
Width: 1063
GlyphClass: 2
Flags: W
AnchorPoint: "Anchor-3" 831 -93 basechar 0
AnchorPoint: "Anchor-2" 532 1021 basechar 0
AnchorPoint: "Anchor-0" 532 -55 basechar 0
LayerCount: 2
Fore
SplineSet
444 -30 m 0,0,1
 332 -30 332 -30 268 14.5 c 128,-1,2
 204 59 204 59 177 138.5 c 128,-1,3
 150 218 150 218 150 323 c 2,4,-1
 150 960 l 1,5,-1
 306 960 l 1,6,-1
 306 354 l 2,7,8
 306 232 306 232 343.5 168 c 128,-1,9
 381 104 381 104 481 104 c 0,10,11
 534 104 534 104 579 125 c 128,-1,12
 624 146 624 146 663 183 c 0,13,14
 710 229 710 229 731 275 c 128,-1,15
 752 321 752 321 752 391 c 2,16,-1
 752 960 l 1,17,-1
 909 960 l 1,18,-1
 909 0 l 1,19,-1
 754 0 l 1,20,-1
 754 149 l 1,21,22
 688 57 688 57 611 13.5 c 128,-1,23
 534 -30 534 -30 444 -30 c 0,0,1
EndSplineSet
Validated: 1048577
EndChar

StartChar: v
Encoding: 118 118 149
Width: 918
GlyphClass: 2
Flags: W
AnchorPoint: "Anchor-2" 463 1021 basechar 0
AnchorPoint: "Anchor-0" 463 -55 basechar 0
LayerCount: 2
Fore
SplineSet
374 0 m 1,0,-1
 11 960 l 1,1,-1
 192 960 l 1,2,-1
 460 182 l 1,3,-1
 734 960 l 1,4,-1
 906 960 l 1,5,-1
 542 0 l 1,6,-1
 374 0 l 1,0,-1
EndSplineSet
Validated: 1048577
EndChar

StartChar: w
Encoding: 119 119 150
Width: 1367
GlyphClass: 2
Flags: W
AnchorPoint: "Anchor-2" 686 1021 basechar 0
AnchorPoint: "Anchor-0" 686 -55 basechar 0
LayerCount: 2
Fore
SplineSet
301 0 m 1,0,-1
 22 960 l 1,1,-1
 192 960 l 1,2,-1
 389 187 l 1,3,-1
 612 955 l 1,4,-1
 768 955 l 1,5,-1
 986 190 l 1,6,-1
 1180 960 l 1,7,-1
 1345 960 l 1,8,-1
 1065 0 l 1,9,-1
 900 0 l 1,10,-1
 683 770 l 1,11,-1
 464 0 l 1,12,-1
 301 0 l 1,0,-1
EndSplineSet
Validated: 1048577
EndChar

StartChar: x
Encoding: 120 120 151
Width: 916
GlyphClass: 2
Flags: W
AnchorPoint: "Anchor-2" 464 1021 basechar 0
AnchorPoint: "Anchor-0" 452 -55 basechar 0
LayerCount: 2
Fore
SplineSet
33 0 m 1,0,-1
 371 506 l 1,1,-1
 64 960 l 1,2,-1
 247 960 l 1,3,-1
 461 621 l 1,4,-1
 684 960 l 1,5,-1
 851 960 l 1,6,-1
 550 506 l 1,7,-1
 883 0 l 1,8,-1
 702 0 l 1,9,-1
 454 391 l 1,10,-1
 205 0 l 1,11,-1
 33 0 l 1,0,-1
EndSplineSet
Validated: 1048577
EndChar

StartChar: y
Encoding: 121 121 152
Width: 918
GlyphClass: 2
Flags: W
AnchorPoint: "Anchor-2" 464 1021 basechar 0
AnchorPoint: "Anchor-1" 245 -397 basechar 0
LayerCount: 2
Fore
SplineSet
228 -385 m 0,0,1
 187 -385 187 -385 152.5 -380 c 128,-1,2
 118 -375 118 -375 77 -360 c 1,3,-1
 108 -234 l 1,4,5
 134 -244 134 -244 158.5 -248.5 c 128,-1,6
 183 -253 183 -253 206 -253 c 0,7,8
 263 -253 263 -253 293 -222.5 c 128,-1,9
 323 -192 323 -192 354 -107 c 2,10,-1
 401 23 l 1,11,-1
 14 960 l 1,12,-1
 195 960 l 1,13,-1
 480 204 l 1,14,-1
 739 960 l 1,15,-1
 911 960 l 1,16,-1
 505 -118 l 2,17,18
 473 -202 473 -202 439.5 -262 c 128,-1,19
 406 -322 406 -322 357 -353.5 c 128,-1,20
 308 -385 308 -385 228 -385 c 0,0,1
EndSplineSet
Validated: 1048577
EndChar

StartChar: z
Encoding: 122 122 153
Width: 876
GlyphClass: 2
Flags: W
AnchorPoint: "Anchor-2" 446 1021 basechar 0
AnchorPoint: "Anchor-0" 438 -55 basechar 0
LayerCount: 2
Fore
SplineSet
81 0 m 1,0,-1
 81 117 l 1,1,-1
 603 834 l 1,2,-1
 92 834 l 1,3,-1
 92 960 l 1,4,-1
 790 960 l 1,5,-1
 790 843 l 1,6,-1
 268 125 l 1,7,-1
 816 125 l 1,8,-1
 796 0 l 1,9,-1
 81 0 l 1,0,-1
EndSplineSet
Validated: 1048577
EndChar

StartChar: trademark
Encoding: 8482 8482 154
Width: 1344
Flags: W
LayerCount: 2
Fore
SplineSet
609 681 m 1,0,-1
 609 1324 l 1,1,-1
 744 1324 l 1,2,-1
 912 828 l 1,3,-1
 1085 1324 l 1,4,-1
 1219 1324 l 1,5,-1
 1219 681 l 1,6,-1
 1113 681 l 1,7,-1
 1113 1138 l 1,8,-1
 952 681 l 1,9,-1
 871 681 l 1,10,-1
 713 1134 l 1,11,-1
 713 681 l 1,12,-1
 609 681 l 1,0,-1
230 681 m 1,13,-1
 230 1218 l 1,14,-1
 50 1218 l 1,15,-1
 50 1324 l 1,16,-1
 527 1324 l 1,17,-1
 527 1218 l 1,18,-1
 346 1218 l 1,19,-1
 346 681 l 1,20,-1
 230 681 l 1,13,-1
EndSplineSet
Validated: 1
EndChar

StartChar: ordfeminine
Encoding: 170 170 155
Width: 678
Flags: W
LayerCount: 2
Fore
SplineSet
280 617 m 0,0,1
 176 617 176 617 109.5 671 c 128,-1,2
 43 725 43 725 43 831 c 0,3,4
 43 928 43 928 92.5 978.5 c 128,-1,5
 142 1029 142 1029 220 1048.5 c 128,-1,6
 298 1068 298 1068 385 1072 c 2,7,-1
 497 1077 l 1,8,-1
 497 1094 l 2,9,10
 497 1168 497 1168 467.5 1213 c 128,-1,11
 438 1258 438 1258 353 1258 c 0,12,13
 273 1258 273 1258 238.5 1229 c 128,-1,14
 204 1200 204 1200 193 1153 c 1,15,-1
 80 1167 l 1,16,17
 98 1261 98 1261 165 1309.5 c 128,-1,18
 232 1358 232 1358 356 1358 c 0,19,20
 463 1358 463 1358 521.5 1322 c 128,-1,21
 580 1286 580 1286 602.5 1225 c 128,-1,22
 625 1164 625 1164 625 1089 c 2,23,-1
 625 633 l 1,24,-1
 501 633 l 1,25,-1
 501 719 l 1,26,27
 462 675 462 675 407 646 c 128,-1,28
 352 617 352 617 280 617 c 0,0,1
173 834 m 0,29,30
 173 782 173 782 202 752.5 c 128,-1,31
 231 723 231 723 299 723 c 0,32,33
 334 723 334 723 366 730.5 c 128,-1,34
 398 738 398 738 433 760 c 0,35,36
 470 783 470 783 483.5 821 c 128,-1,37
 497 859 497 859 497 906 c 2,38,-1
 497 983 l 1,39,-1
 401 979 l 2,40,41
 280 975 280 975 226.5 943 c 128,-1,42
 173 911 173 911 173 834 c 0,29,30
EndSplineSet
Validated: 1
EndChar

StartChar: ordmasculine
Encoding: 186 186 156
Width: 740
Flags: W
LayerCount: 2
Fore
SplineSet
369 610 m 0,0,1
 220 610 220 610 131.5 710.5 c 128,-1,2
 43 811 43 811 43 983 c 256,3,4
 43 1155 43 1155 134.5 1256.5 c 128,-1,5
 226 1358 226 1358 372 1358 c 0,6,7
 522 1358 522 1358 610 1257.5 c 128,-1,8
 698 1157 698 1157 698 987 c 0,9,10
 698 815 698 815 609 712.5 c 128,-1,11
 520 610 520 610 369 610 c 0,0,1
371 722 m 256,12,13
 474 722 474 722 520 795.5 c 128,-1,14
 566 869 566 869 566 984 c 0,15,16
 566 1098 566 1098 520 1173 c 128,-1,17
 474 1248 474 1248 371 1248 c 0,18,19
 269 1248 269 1248 222.5 1172.5 c 128,-1,20
 176 1097 176 1097 176 983 c 0,21,22
 176 868 176 868 222 795 c 128,-1,23
 268 722 268 722 371 722 c 256,12,13
EndSplineSet
Validated: 1
EndChar

StartChar: copyright
Encoding: 169 169 157
Width: 1584
Flags: W
LayerCount: 2
Fore
SplineSet
794 -2 m 0,0,1
 617 -2 617 -2 481 80 c 128,-1,2
 345 162 345 162 268.5 311.5 c 128,-1,3
 192 461 192 461 192 661 c 0,4,5
 192 862 192 862 272.5 1011 c 128,-1,6
 353 1160 353 1160 490 1242 c 128,-1,7
 627 1324 627 1324 794 1324 c 0,8,9
 971 1324 971 1324 1105.5 1242 c 128,-1,10
 1240 1160 1240 1160 1315.5 1011 c 128,-1,11
 1391 862 1391 862 1391 661 c 0,12,13
 1391 461 1391 461 1311 311.5 c 128,-1,14
 1231 162 1231 162 1096 80 c 128,-1,15
 961 -2 961 -2 794 -2 c 0,0,1
792 121 m 0,16,17
 928 121 928 121 1033.5 188.5 c 128,-1,18
 1139 256 1139 256 1199.5 377.5 c 128,-1,19
 1260 499 1260 499 1260 661 c 0,20,21
 1260 824 1260 824 1199.5 944.5 c 128,-1,22
 1139 1065 1139 1065 1033.5 1132 c 128,-1,23
 928 1199 928 1199 792 1199 c 0,24,25
 654 1199 654 1199 548.5 1132.5 c 128,-1,26
 443 1066 443 1066 383 945 c 128,-1,27
 323 824 323 824 323 661 c 256,28,29
 323 498 323 498 383 377 c 128,-1,30
 443 256 443 256 548.5 188.5 c 128,-1,31
 654 121 654 121 792 121 c 0,16,17
795 290 m 0,32,33
 640 290 640 290 558.5 390.5 c 128,-1,34
 477 491 477 491 477 657 c 0,35,36
 477 824 477 824 563.5 927.5 c 128,-1,37
 650 1031 650 1031 801 1031 c 0,38,39
 921 1031 921 1031 989.5 968 c 128,-1,40
 1058 905 1058 905 1075 798 c 1,41,-1
 945 774 l 1,42,43
 918 915 918 915 797 915 c 0,44,45
 699 915 699 915 658 840 c 128,-1,46
 617 765 617 765 617 661 c 0,47,48
 617 558 617 558 657.5 482 c 128,-1,49
 698 406 698 406 795 406 c 0,50,51
 860 406 860 406 902 441 c 128,-1,52
 944 476 944 476 954 552 c 1,53,-1
 1088 552 l 1,54,55
 1071 431 1071 431 998.5 360.5 c 128,-1,56
 926 290 926 290 795 290 c 0,32,33
EndSplineSet
Validated: 1
EndChar

StartChar: registered
Encoding: 174 174 158
Width: 1216
Flags: W
LayerCount: 2
Fore
SplineSet
70 812 m 0,0,1
 70 980 70 980 143.5 1102.5 c 128,-1,2
 217 1225 217 1225 339 1292 c 128,-1,3
 461 1359 461 1359 608 1359 c 256,4,5
 755 1359 755 1359 877.5 1292 c 128,-1,6
 1000 1225 1000 1225 1073 1102.5 c 128,-1,7
 1146 980 1146 980 1146 812 c 0,8,9
 1146 645 1146 645 1073 522 c 128,-1,10
 1000 399 1000 399 877.5 332 c 128,-1,11
 755 265 755 265 608 265 c 256,12,13
 461 265 461 265 339 332 c 128,-1,14
 217 399 217 399 143.5 522 c 128,-1,15
 70 645 70 645 70 812 c 0,0,1
166 812 m 256,16,17
 166 667 166 667 223.5 564.5 c 128,-1,18
 281 462 281 462 381 407.5 c 128,-1,19
 481 353 481 353 608 353 c 256,20,21
 735 353 735 353 835 407.5 c 128,-1,22
 935 462 935 462 992.5 564.5 c 128,-1,23
 1050 667 1050 667 1050 812 c 256,24,25
 1050 957 1050 957 992.5 1059.5 c 128,-1,26
 935 1162 935 1162 835 1216.5 c 128,-1,27
 735 1271 735 1271 608 1271 c 256,28,29
 481 1271 481 1271 381 1216.5 c 128,-1,30
 281 1162 281 1162 223.5 1059.5 c 128,-1,31
 166 957 166 957 166 812 c 256,16,17
749 505 m 1,32,-1
 655 738 l 1,33,-1
 512 738 l 1,34,-1
 512 505 l 1,35,-1
 407 505 l 1,36,-1
 407 1119 l 1,37,-1
 596 1119 l 2,38,39
 736 1119 736 1119 787 1066 c 128,-1,40
 838 1013 838 1013 838 927 c 0,41,42
 838 818 838 818 747 774 c 1,43,-1
 866 505 l 1,44,-1
 749 505 l 1,32,-1
604 1033 m 2,45,-1
 512 1033 l 1,46,-1
 512 820 l 1,47,-1
 604 820 l 2,48,49
 681 820 681 820 705 852 c 128,-1,50
 729 884 729 884 729 927 c 0,51,52
 729 969 729 969 705 1001 c 128,-1,53
 681 1033 681 1033 604 1033 c 2,45,-1
EndSplineSet
Validated: 1
EndChar

StartChar: partialdiff
Encoding: 8706 8706 159
Width: 1060
Flags: W
LayerCount: 2
Fore
SplineSet
466 -34 m 0,0,1
 347 -34 347 -34 262.5 19 c 128,-1,2
 178 72 178 72 133 161 c 128,-1,3
 88 250 88 250 88 357 c 0,4,5
 88 473 88 473 133 578.5 c 128,-1,6
 178 684 178 684 270 751 c 128,-1,7
 362 818 362 818 504 818 c 0,8,9
 705 818 705 818 803 651 c 1,10,11
 807 713 807 713 807 753 c 0,12,13
 807 923 807 923 774 1017 c 128,-1,14
 741 1111 741 1111 685 1149 c 128,-1,15
 629 1187 629 1187 561 1187 c 0,16,17
 474 1187 474 1187 419 1146 c 128,-1,18
 364 1105 364 1105 333 996 c 1,19,-1
 198 1021 l 1,20,21
 237 1184 237 1184 332 1251.5 c 128,-1,22
 427 1319 427 1319 567 1319 c 0,23,24
 669 1319 669 1319 757 1270 c 128,-1,25
 845 1221 845 1221 898.5 1097.5 c 128,-1,26
 952 974 952 974 952 751 c 0,27,28
 952 621 952 621 932.5 482.5 c 128,-1,29
 913 344 913 344 861 231 c 256,30,31
 809 118 809 118 713.5 42 c 128,-1,32
 618 -34 618 -34 466 -34 c 0,0,1
481 98 m 0,33,34
 568 98 568 98 629 147.5 c 128,-1,35
 690 197 690 197 722 275 c 128,-1,36
 754 353 754 353 754 436 c 0,37,38
 754 567 754 567 683.5 629 c 128,-1,39
 613 691 613 691 518 691 c 0,40,41
 419 691 419 691 357.5 645 c 128,-1,42
 296 599 296 599 268 524 c 128,-1,43
 240 449 240 449 240 362 c 0,44,45
 240 252 240 252 303.5 175 c 128,-1,46
 367 98 367 98 481 98 c 0,33,34
EndSplineSet
Validated: 1
EndChar

StartChar: product
Encoding: 8719 8719 160
Width: 1296
Flags: W
LayerCount: 2
Fore
SplineSet
183 0 m 1,0,-1
 183 1324 l 1,1,-1
 1114 1324 l 1,2,-1
 1114 0 l 1,3,-1
 949 0 l 1,4,-1
 949 1176 l 1,5,-1
 348 1176 l 1,6,-1
 348 0 l 1,7,-1
 183 0 l 1,0,-1
EndSplineSet
Validated: 1
EndChar

StartChar: summation
Encoding: 8721 8721 161
Width: 1000
Flags: W
LayerCount: 2
Fore
SplineSet
50 -190 m 1,0,-1
 50 -74 l 1,1,-1
 451 573 l 1,2,-1
 50 1205 l 1,3,-1
 50 1324 l 1,4,-1
 962 1324 l 1,5,-1
 962 1185 l 1,6,-1
 244 1185 l 1,7,-1
 623 577 l 1,8,-1
 233 -50 l 1,9,-1
 983 -50 l 1,10,-1
 958 -190 l 1,11,-1
 50 -190 l 1,0,-1
EndSplineSet
Validated: 1
EndChar

StartChar: radical
Encoding: 8730 8730 162
Width: 1200
Flags: W
LayerCount: 2
Fore
SplineSet
496 0 m 1,0,-1
 274 577 l 1,1,-1
 136 577 l 1,2,-1
 136 716 l 1,3,-1
 393 716 l 1,4,-1
 579 204 l 1,5,-1
 942 1356 l 1,6,-1
 1111 1356 l 1,7,-1
 663 0 l 1,8,-1
 496 0 l 1,0,-1
EndSplineSet
Validated: 1
EndChar

StartChar: infinity
Encoding: 8734 8734 163
Width: 1528
Flags: W
LayerCount: 2
Fore
SplineSet
517 326 m 0,0,1
 414 326 414 326 342.5 401.5 c 128,-1,2
 271 477 271 477 271 635 c 256,3,4
 271 793 271 793 342.5 868.5 c 128,-1,5
 414 944 414 944 518 944 c 0,6,7
 615 944 615 944 673.5 891 c 128,-1,8
 732 838 732 838 765 773 c 1,9,10
 797 837 797 837 856 890.5 c 128,-1,11
 915 944 915 944 1011 944 c 0,12,13
 1115 944 1115 944 1186 868.5 c 128,-1,14
 1257 793 1257 793 1257 635 c 0,15,16
 1257 478 1257 478 1185.5 402 c 128,-1,17
 1114 326 1114 326 1010 326 c 0,18,19
 913 326 913 326 854.5 379 c 128,-1,20
 796 432 796 432 763 497 c 1,21,22
 731 433 731 433 672 379.5 c 128,-1,23
 613 326 613 326 517 326 c 0,0,1
1000 448 m 0,24,25
 1056 448 1056 448 1091 495.5 c 128,-1,26
 1126 543 1126 543 1126 635 c 256,27,28
 1126 727 1126 727 1091 775 c 128,-1,29
 1056 823 1056 823 1000 823 c 0,30,31
 926 823 926 823 882.5 764 c 128,-1,32
 839 705 839 705 825 630 c 1,33,34
 840 561 840 561 883.5 504.5 c 128,-1,35
 927 448 927 448 1000 448 c 0,24,25
528 447 m 0,36,37
 602 447 602 447 645.5 506 c 128,-1,38
 689 565 689 565 703 640 c 1,39,40
 688 709 688 709 644.5 765.5 c 128,-1,41
 601 822 601 822 528 822 c 0,42,43
 473 822 473 822 437.5 774.5 c 128,-1,44
 402 727 402 727 402 635 c 0,45,46
 402 544 402 544 437.5 495.5 c 128,-1,47
 473 447 473 447 528 447 c 0,36,37
EndSplineSet
Validated: 1
EndChar

StartChar: integral
Encoding: 8747 8747 164
Width: 884
Flags: W
LayerCount: 2
Fore
SplineSet
334 -223 m 0,0,1
 302 -223 302 -223 270 -217 c 128,-1,2
 238 -211 238 -211 197 -195 c 1,3,-1
 224 -77 l 1,4,5
 278 -97 278 -97 318 -97 c 0,6,7
 380 -97 380 -97 401 -63 c 128,-1,8
 422 -29 422 -29 422 22 c 0,9,10
 422 42 422 42 420 64 c 128,-1,11
 418 86 418 86 415 109 c 2,12,-1
 301 1006 l 2,13,14
 296 1046 296 1046 296 1084 c 0,15,16
 296 1194 296 1194 350.5 1266.5 c 128,-1,17
 405 1339 405 1339 536 1339 c 0,18,19
 600 1339 600 1339 672 1312 c 1,20,-1
 647 1193 l 1,21,22
 616 1206 616 1206 596.5 1210 c 128,-1,23
 577 1214 577 1214 552 1214 c 0,24,25
 491 1214 491 1214 469 1178.5 c 128,-1,26
 447 1143 447 1143 447 1090 c 0,27,28
 447 1073 447 1073 449 1052.5 c 128,-1,29
 451 1032 451 1032 454 1009 c 2,30,-1
 569 111 l 2,31,32
 571 100 571 100 573 78 c 128,-1,33
 575 56 575 56 575 31 c 0,34,35
 575 -78 575 -78 520.5 -150.5 c 128,-1,36
 466 -223 466 -223 334 -223 c 0,0,1
EndSplineSet
Validated: 1
EndChar

StartChar: lozenge
Encoding: 9674 9674 165
Width: 1232
Flags: W
LayerCount: 2
Fore
SplineSet
551 0 m 1,0,-1
 167 662 l 1,1,-1
 551 1324 l 1,2,-1
 683 1324 l 1,3,-1
 1064 662 l 1,4,-1
 683 0 l 1,5,-1
 551 0 l 1,0,-1
332 662 m 1,6,-1
 615 167 l 1,7,-1
 904 662 l 1,8,-1
 615 1157 l 1,9,-1
 332 662 l 1,6,-1
EndSplineSet
Validated: 1
EndChar

StartChar: quoteleft
Encoding: 8216 8216 168
Width: 392
Flags: W
LayerCount: 2
Fore
SplineSet
90 932 m 1,0,-1
 184 1324 l 1,1,-1
 308 1324 l 1,2,-1
 257 932 l 1,3,-1
 90 932 l 1,0,-1
EndSplineSet
Validated: 1
EndChar

StartChar: quoteright
Encoding: 8217 8217 169
Width: 392
Flags: W
LayerCount: 2
Fore
SplineSet
98 930 m 1,0,-1
 151 1324 l 1,1,-1
 316 1324 l 1,2,-1
 223 930 l 1,3,-1
 98 930 l 1,0,-1
EndSplineSet
Validated: 1
EndChar

StartChar: dotlessi
Encoding: 305 305 177
Width: 464
GlyphClass: 2
Flags: W
AnchorPoint: "Anchor-3" 232 -93 basechar 0
AnchorPoint: "Anchor-2" 232 1021 basechar 0
AnchorPoint: "Anchor-0" 232 -55 basechar 0
LayerCount: 2
Fore
SplineSet
154 0 m 1,0,-1
 154 960 l 1,1,-1
 310 960 l 1,2,-1
 310 0 l 1,3,-1
 154 0 l 1,0,-1
EndSplineSet
Validated: 1048577
EndChar

StartChar: uni0237
Encoding: 567 567 178
Width: 464
GlyphClass: 2
Flags: W
AnchorPoint: "Anchor-2" 228 1021 basechar 0
AnchorPoint: "Anchor-1" 115 -397 basechar 0
LayerCount: 2
Fore
SplineSet
63 -385 m 0,0,1
 9 -385 9 -385 -32 -376.5 c 128,-1,2
 -73 -368 -73 -368 -109 -355 c 1,3,-1
 -82 -231 l 1,4,5
 -57 -239 -57 -239 -28 -244 c 128,-1,6
 1 -249 1 -249 36 -249 c 0,7,8
 108 -249 108 -249 131 -205.5 c 128,-1,9
 154 -162 154 -162 154 -96 c 2,10,-1
 154 960 l 1,11,-1
 310 960 l 1,12,-1
 310 -51 l 2,13,14
 310 -106 310 -106 302.5 -165 c 128,-1,15
 295 -224 295 -224 270.5 -273.5 c 128,-1,16
 246 -323 246 -323 196.5 -354 c 128,-1,17
 147 -385 147 -385 63 -385 c 0,0,1
EndSplineSet
Validated: 1048577
EndChar

StartChar: IJ
Encoding: 306 306 180
Width: 1194
Flags: W
LayerCount: 2
Fore
SplineSet
608 -34 m 0,0,1
 410 -34 410 -34 294 70 c 128,-1,2
 178 174 178 174 158 394 c 1,3,-1
 326 394 l 1,4,5
 335 314 335 314 362.5 249.5 c 128,-1,6
 390 185 390 185 447.5 147 c 128,-1,7
 505 109 505 109 604 109 c 0,8,9
 709 109 709 109 767 153.5 c 128,-1,10
 825 198 825 198 848 275 c 128,-1,11
 871 352 871 352 871 449 c 2,12,-1
 871 1324 l 1,13,-1
 1036 1324 l 1,14,-1
 1036 434 l 2,15,16
 1036 199 1036 199 922 82.5 c 128,-1,17
 808 -34 808 -34 608 -34 c 0,0,1
160 590 m 1,18,-1
 160 1324 l 1,19,-1
 325 1324 l 1,20,-1
 325 590 l 1,21,-1
 160 590 l 1,18,-1
EndSplineSet
Validated: 1
Ligature2: "'dlig' Discretionary Ligatures lookup 1 subtable" I j
Ligature2: "'dlig' Discretionary Ligatures lookup 1 subtable" I J
EndChar

StartChar: f_f
Encoding: 65542 -1 187
Width: 1107
Flags: W
LayerCount: 2
Fore
SplineSet
177 0 m 1,0,-1
 177 839 l 1,1,-1
 34 839 l 1,2,-1
 34 961 l 1,3,-1
 177 961 l 1,4,-1
 177 1046 l 2,5,6
 177 1199 177 1199 259 1269.5 c 128,-1,7
 341 1340 341 1340 454 1340 c 0,8,9
 494 1340 494 1340 530.5 1335.5 c 128,-1,10
 567 1331 567 1331 605 1318 c 1,11,-1
 580 1196 l 1,12,13
 532 1211 532 1211 481 1211 c 0,14,15
 420 1211 420 1211 376.5 1176 c 128,-1,16
 333 1141 333 1141 333 1050 c 2,17,-1
 333 961 l 1,18,-1
 714 961 l 1,19,-1
 714 1046 l 2,20,21
 714 1199 714 1199 796 1269.5 c 128,-1,22
 878 1340 878 1340 991 1340 c 0,23,24
 1032 1340 1032 1340 1069.5 1335.5 c 128,-1,25
 1107 1331 1107 1331 1147 1318 c 1,26,-1
 1122 1196 l 1,27,28
 1072 1211 1072 1211 1018 1211 c 0,29,30
 957 1211 957 1211 913.5 1176 c 128,-1,31
 870 1141 870 1141 870 1050 c 2,32,-1
 870 961 l 1,33,-1
 1099 961 l 1,34,-1
 1099 839 l 1,35,-1
 870 839 l 1,36,-1
 870 0 l 1,37,-1
 714 0 l 1,38,-1
 714 839 l 1,39,-1
 333 839 l 1,40,-1
 333 0 l 1,41,-1
 177 0 l 1,0,-1
EndSplineSet
Validated: 1
Ligature2: "'dlig' Discretionary Ligatures lookup 30 subtable" f f
EndChar

StartChar: f_i
Encoding: 65543 -1 188
Width: 1024
Flags: W
LayerCount: 2
Fore
SplineSet
177 0 m 1,0,-1
 177 839 l 1,1,-1
 34 839 l 1,2,-1
 34 961 l 1,3,-1
 177 961 l 1,4,-1
 177 1046 l 2,5,6
 177 1199 177 1199 259 1269.5 c 128,-1,7
 341 1340 341 1340 454 1340 c 0,8,9
 488 1340 488 1340 518.5 1336.5 c 128,-1,10
 549 1333 549 1333 581 1323 c 1,11,-1
 558 1201 l 1,12,13
 519 1211 519 1211 481 1211 c 0,14,15
 420 1211 420 1211 376.5 1176 c 128,-1,16
 333 1141 333 1141 333 1050 c 2,17,-1
 333 961 l 1,18,-1
 870 961 l 1,19,-1
 870 0 l 1,20,-1
 714 0 l 1,21,-1
 714 839 l 1,22,-1
 333 839 l 1,23,-1
 333 0 l 1,24,-1
 177 0 l 1,0,-1
709 1138 m 1,25,-1
 709 1324 l 1,26,-1
 876 1324 l 1,27,-1
 876 1138 l 1,28,-1
 709 1138 l 1,25,-1
EndSplineSet
Validated: 1
Ligature2: "'dlig' Discretionary Ligatures lookup 30 subtable" f i
EndChar

StartChar: f_l
Encoding: 65544 -1 189
Width: 1024
Flags: W
LayerCount: 2
Fore
SplineSet
177 0 m 1,0,-1
 177 839 l 1,1,-1
 34 839 l 1,2,-1
 34 961 l 1,3,-1
 177 961 l 1,4,-1
 177 1046 l 2,5,6
 177 1199 177 1199 259 1269.5 c 128,-1,7
 341 1340 341 1340 454 1340 c 0,8,9
 495 1340 495 1340 532.5 1335.5 c 128,-1,10
 570 1331 570 1331 610 1318 c 1,11,-1
 585 1196 l 1,12,13
 535 1211 535 1211 481 1211 c 0,14,15
 420 1211 420 1211 376.5 1176 c 128,-1,16
 333 1141 333 1141 333 1050 c 2,17,-1
 333 961 l 1,18,-1
 562 961 l 1,19,-1
 562 839 l 1,20,-1
 333 839 l 1,21,-1
 333 0 l 1,22,-1
 177 0 l 1,0,-1
714 0 m 1,23,-1
 714 1324 l 1,24,-1
 870 1324 l 1,25,-1
 870 0 l 1,26,-1
 714 0 l 1,23,-1
EndSplineSet
Validated: 1
Ligature2: "'dlig' Discretionary Ligatures lookup 30 subtable" f l
EndChar

StartChar: f_f_i
Encoding: 65545 -1 190
Width: 1561
Flags: W
LayerCount: 2
Fore
SplineSet
177 0 m 1,0,-1
 177 839 l 1,1,-1
 34 839 l 1,2,-1
 34 961 l 1,3,-1
 177 961 l 1,4,-1
 177 1046 l 2,5,6
 177 1199 177 1199 259 1269.5 c 128,-1,7
 341 1340 341 1340 454 1340 c 0,8,9
 494 1340 494 1340 530.5 1335.5 c 128,-1,10
 567 1331 567 1331 605 1318 c 1,11,-1
 580 1196 l 1,12,13
 532 1211 532 1211 481 1211 c 0,14,15
 420 1211 420 1211 376.5 1176 c 128,-1,16
 333 1141 333 1141 333 1050 c 2,17,-1
 333 961 l 1,18,-1
 714 961 l 1,19,-1
 714 1046 l 2,20,21
 714 1199 714 1199 796 1269.5 c 128,-1,22
 878 1340 878 1340 991 1340 c 0,23,24
 1025 1340 1025 1340 1055.5 1336.5 c 128,-1,25
 1086 1333 1086 1333 1118 1323 c 1,26,-1
 1095 1201 l 1,27,28
 1056 1211 1056 1211 1018 1211 c 0,29,30
 957 1211 957 1211 913.5 1176 c 128,-1,31
 870 1141 870 1141 870 1050 c 2,32,-1
 870 961 l 1,33,-1
 1407 961 l 1,34,-1
 1407 0 l 1,35,-1
 1251 0 l 1,36,-1
 1251 839 l 1,37,-1
 870 839 l 1,38,-1
 870 0 l 1,39,-1
 714 0 l 1,40,-1
 714 839 l 1,41,-1
 333 839 l 1,42,-1
 333 0 l 1,43,-1
 177 0 l 1,0,-1
1246 1138 m 1,44,-1
 1246 1324 l 1,45,-1
 1413 1324 l 1,46,-1
 1413 1138 l 1,47,-1
 1246 1138 l 1,44,-1
EndSplineSet
Validated: 1
Ligature2: "'dlig' Discretionary Ligatures lookup 30 subtable" f f i
EndChar

StartChar: f_b
Encoding: 65546 -1 191
Width: 1630
Flags: W
LayerCount: 2
Fore
SplineSet
177 0 m 1,0,-1
 177 839 l 1,1,-1
 34 839 l 1,2,-1
 34 961 l 1,3,-1
 177 961 l 1,4,-1
 177 1046 l 2,5,6
 177 1199 177 1199 259 1269.5 c 128,-1,7
 341 1340 341 1340 454 1340 c 0,8,9
 495 1340 495 1340 532.5 1335.5 c 128,-1,10
 570 1331 570 1331 610 1318 c 1,11,-1
 585 1196 l 1,12,13
 535 1211 535 1211 481 1211 c 0,14,15
 420 1211 420 1211 376.5 1176 c 128,-1,16
 333 1141 333 1141 333 1050 c 2,17,-1
 333 961 l 1,18,-1
 562 961 l 1,19,-1
 562 839 l 1,20,-1
 333 839 l 1,21,-1
 333 0 l 1,22,-1
 177 0 l 1,0,-1
1149 -30 m 0,23,24
 1073 -30 1073 -30 999.5 4 c 128,-1,25
 926 38 926 38 868 122 c 1,26,-1
 868 0 l 1,27,-1
 714 0 l 1,28,-1
 714 1324 l 1,29,-1
 870 1324 l 1,30,-1
 870 825 l 1,31,32
 924 904 924 904 996.5 947 c 128,-1,33
 1069 990 1069 990 1167 990 c 0,34,35
 1293 990 1293 990 1376.5 925.5 c 128,-1,36
 1460 861 1460 861 1501 747.5 c 128,-1,37
 1542 634 1542 634 1542 487 c 0,38,39
 1542 249 1542 249 1436.5 109.5 c 128,-1,40
 1331 -30 1331 -30 1149 -30 c 0,23,24
1127 99 m 0,41,42
 1234 99 1234 99 1307 186.5 c 128,-1,43
 1380 274 1380 274 1380 485 c 0,44,45
 1380 628 1380 628 1344.5 710 c 128,-1,46
 1309 792 1309 792 1254 826.5 c 128,-1,47
 1199 861 1199 861 1139 861 c 0,48,49
 1004 861 1004 861 932 754 c 0,50,51
 869 665 869 665 869 518 c 2,52,-1
 869 453 l 2,53,54
 869 290 869 290 930 200 c 0,55,56
 965 147 965 147 1016 123 c 128,-1,57
 1067 99 1067 99 1127 99 c 0,41,42
EndSplineSet
Validated: 1
Ligature2: "'dlig' Discretionary Ligatures lookup 30 subtable" f b
EndChar

StartChar: f_f_j
Encoding: 65549 -1 194
Width: 1562
Flags: W
LayerCount: 2
Fore
SplineSet
177 0 m 1,0,-1
 177 839 l 1,1,-1
 34 839 l 1,2,-1
 34 961 l 1,3,-1
 177 961 l 1,4,-1
 177 1046 l 2,5,6
 177 1199 177 1199 259 1269.5 c 128,-1,7
 341 1340 341 1340 454 1340 c 0,8,9
 494 1340 494 1340 530.5 1335.5 c 128,-1,10
 567 1331 567 1331 605 1318 c 1,11,-1
 580 1196 l 1,12,13
 532 1211 532 1211 481 1211 c 0,14,15
 420 1211 420 1211 376.5 1176 c 128,-1,16
 333 1141 333 1141 333 1050 c 2,17,-1
 333 961 l 1,18,-1
 715 961 l 1,19,-1
 715 1046 l 2,20,21
 715 1199 715 1199 797 1269.5 c 128,-1,22
 879 1340 879 1340 992 1340 c 0,23,24
 1026 1340 1026 1340 1056.5 1336.5 c 128,-1,25
 1087 1333 1087 1333 1119 1323 c 1,26,-1
 1096 1201 l 1,27,28
 1057 1211 1057 1211 1019 1211 c 0,29,30
 958 1211 958 1211 914.5 1176 c 128,-1,31
 871 1141 871 1141 871 1050 c 2,32,-1
 871 961 l 1,33,-1
 1408 961 l 1,34,-1
 1408 -51 l 2,35,36
 1408 -106 1408 -106 1400.5 -165 c 128,-1,37
 1393 -224 1393 -224 1368.5 -273.5 c 128,-1,38
 1344 -323 1344 -323 1294.5 -354 c 128,-1,39
 1245 -385 1245 -385 1161 -385 c 0,40,41
 1107 -385 1107 -385 1066 -376.5 c 128,-1,42
 1025 -368 1025 -368 989 -355 c 1,43,-1
 1016 -231 l 1,44,45
 1041 -239 1041 -239 1070 -244 c 128,-1,46
 1099 -249 1099 -249 1134 -249 c 0,47,48
 1206 -249 1206 -249 1229 -205.5 c 128,-1,49
 1252 -162 1252 -162 1252 -96 c 2,50,-1
 1252 839 l 1,51,-1
 871 839 l 1,52,-1
 871 0 l 1,53,-1
 715 0 l 1,54,-1
 715 839 l 1,55,-1
 333 839 l 1,56,-1
 333 0 l 1,57,-1
 177 0 l 1,0,-1
1246 1138 m 1,58,-1
 1246 1324 l 1,59,-1
 1414 1324 l 1,60,-1
 1414 1138 l 1,61,-1
 1246 1138 l 1,58,-1
EndSplineSet
Validated: 1
Ligature2: "'dlig' Discretionary Ligatures lookup 30 subtable" f f j
EndChar

StartChar: f_h
Encoding: 65551 -1 196
Width: 1638
Flags: W
LayerCount: 2
Fore
SplineSet
177 0 m 1,0,-1
 177 839 l 1,1,-1
 34 839 l 1,2,-1
 34 961 l 1,3,-1
 177 961 l 1,4,-1
 177 1046 l 2,5,6
 177 1199 177 1199 259 1269.5 c 128,-1,7
 341 1340 341 1340 454 1340 c 0,8,9
 495 1340 495 1340 532.5 1335.5 c 128,-1,10
 570 1331 570 1331 610 1318 c 1,11,-1
 585 1196 l 1,12,13
 535 1211 535 1211 481 1211 c 0,14,15
 420 1211 420 1211 376.5 1176 c 128,-1,16
 333 1141 333 1141 333 1050 c 2,17,-1
 333 961 l 1,18,-1
 562 961 l 1,19,-1
 562 839 l 1,20,-1
 333 839 l 1,21,-1
 333 0 l 1,22,-1
 177 0 l 1,0,-1
714 0 m 1,23,-1
 714 1324 l 1,24,-1
 870 1324 l 1,25,-1
 870 817 l 1,26,27
 939 909 939 909 1019 949.5 c 128,-1,28
 1099 990 1099 990 1186 990 c 0,29,30
 1339 990 1339 990 1413.5 900 c 128,-1,31
 1488 810 1488 810 1488 639 c 2,32,-1
 1488 0 l 1,33,-1
 1332 0 l 1,34,-1
 1332 608 l 2,35,36
 1332 730 1332 730 1291.5 792.5 c 128,-1,37
 1251 855 1251 855 1149 855 c 0,38,39
 1039 855 1039 855 959 777 c 0,40,41
 909 728 909 728 889.5 680 c 128,-1,42
 870 632 870 632 870 569 c 2,43,-1
 870 0 l 1,44,-1
 714 0 l 1,23,-1
EndSplineSet
Validated: 1
Ligature2: "'dlig' Discretionary Ligatures lookup 30 subtable" f h
EndChar

StartChar: f_j
Encoding: 65552 -1 197
Width: 1024
Flags: W
LayerCount: 2
Fore
SplineSet
177 0 m 1,0,-1
 177 839 l 1,1,-1
 34 839 l 1,2,-1
 34 961 l 1,3,-1
 177 961 l 1,4,-1
 177 1046 l 2,5,6
 177 1199 177 1199 259 1269.5 c 128,-1,7
 341 1340 341 1340 454 1340 c 0,8,9
 488 1340 488 1340 518.5 1336.5 c 128,-1,10
 549 1333 549 1333 581 1323 c 1,11,-1
 558 1201 l 1,12,13
 519 1211 519 1211 481 1211 c 0,14,15
 420 1211 420 1211 376.5 1176 c 128,-1,16
 333 1141 333 1141 333 1050 c 2,17,-1
 333 961 l 1,18,-1
 870 961 l 1,19,-1
 870 -51 l 2,20,21
 870 -106 870 -106 862.5 -165 c 128,-1,22
 855 -224 855 -224 830.5 -273.5 c 128,-1,23
 806 -323 806 -323 756.5 -354 c 128,-1,24
 707 -385 707 -385 623 -385 c 0,25,26
 569 -385 569 -385 528 -376.5 c 128,-1,27
 487 -368 487 -368 451 -355 c 1,28,-1
 478 -231 l 1,29,30
 503 -239 503 -239 532 -244 c 128,-1,31
 561 -249 561 -249 596 -249 c 0,32,33
 668 -249 668 -249 691 -205.5 c 128,-1,34
 714 -162 714 -162 714 -96 c 2,35,-1
 714 839 l 1,36,-1
 333 839 l 1,37,-1
 333 0 l 1,38,-1
 177 0 l 1,0,-1
708 1138 m 1,39,-1
 708 1324 l 1,40,-1
 876 1324 l 1,41,-1
 876 1138 l 1,42,-1
 708 1138 l 1,39,-1
EndSplineSet
Validated: 1
Ligature2: "'dlig' Discretionary Ligatures lookup 30 subtable" f j
EndChar

StartChar: f_k
Encoding: 65553 -1 198
Width: 1518
Flags: W
LayerCount: 2
Fore
SplineSet
177 0 m 1,0,-1
 177 839 l 1,1,-1
 34 839 l 1,2,-1
 34 961 l 1,3,-1
 177 961 l 1,4,-1
 177 1046 l 2,5,6
 177 1199 177 1199 259 1269.5 c 128,-1,7
 341 1340 341 1340 454 1340 c 0,8,9
 495 1340 495 1340 532.5 1335.5 c 128,-1,10
 570 1331 570 1331 610 1318 c 1,11,-1
 585 1196 l 1,12,13
 535 1211 535 1211 481 1211 c 0,14,15
 420 1211 420 1211 376.5 1176 c 128,-1,16
 333 1141 333 1141 333 1050 c 2,17,-1
 333 961 l 1,18,-1
 562 961 l 1,19,-1
 562 839 l 1,20,-1
 333 839 l 1,21,-1
 333 0 l 1,22,-1
 177 0 l 1,0,-1
714 0 m 1,23,-1
 714 1324 l 1,24,-1
 868 1324 l 1,25,-1
 868 556 l 1,26,-1
 1275 960 l 1,27,-1
 1463 960 l 1,28,-1
 1137 638 l 1,29,-1
 1498 0 l 1,30,-1
 1320 0 l 1,31,-1
 1021 546 l 1,32,-1
 868 393 l 1,33,-1
 868 0 l 1,34,-1
 714 0 l 1,23,-1
EndSplineSet
Validated: 1
Ligature2: "'dlig' Discretionary Ligatures lookup 30 subtable" f k
EndChar

StartChar: Thorn
Encoding: 222 222 200
Width: 1106
Flags: W
LayerCount: 2
Fore
SplineSet
178 0 m 1,0,-1
 178 1324 l 1,1,-1
 341 1324 l 1,2,-1
 341 1077 l 1,3,-1
 599 1077 l 2,4,5
 785 1077 785 1077 885.5 1022 c 128,-1,6
 986 967 986 967 1025 878 c 128,-1,7
 1064 789 1064 789 1064 685 c 0,8,9
 1064 573 1064 573 1024 478 c 128,-1,10
 984 383 984 383 883 325.5 c 128,-1,11
 782 268 782 268 599 268 c 2,12,-1
 341 268 l 1,13,-1
 341 0 l 1,14,-1
 178 0 l 1,0,-1
595 937 m 2,15,-1
 341 937 l 1,16,-1
 341 408 l 1,17,-1
 597 408 l 2,18,19
 762 408 762 408 830.5 472.5 c 128,-1,20
 899 537 899 537 899 680 c 0,21,22
 899 824 899 824 826.5 880.5 c 128,-1,23
 754 937 754 937 595 937 c 2,15,-1
EndSplineSet
Validated: 1
EndChar

StartChar: AE
Encoding: 198 198 201
Width: 1819
Flags: W
LayerCount: 2
Fore
SplineSet
15 0 m 1,0,-1
 778 1324 l 1,1,-1
 1720 1324 l 1,2,-1
 1720 1178 l 1,3,-1
 1113 1178 l 1,4,-1
 1113 758 l 1,5,-1
 1685 758 l 1,6,-1
 1685 611 l 1,7,-1
 1113 611 l 1,8,-1
 1113 146 l 1,9,-1
 1754 146 l 1,10,-1
 1728 0 l 1,11,-1
 954 0 l 1,12,-1
 954 442 l 1,13,-1
 447 442 l 1,14,-1
 203 0 l 1,15,-1
 15 0 l 1,0,-1
530 584 m 1,16,-1
 954 584 l 1,17,-1
 954 1178 l 1,18,-1
 862 1178 l 1,19,-1
 530 584 l 1,16,-1
EndSplineSet
Validated: 1
EndChar

StartChar: OE
Encoding: 338 338 202
Width: 1917
Flags: W
LayerCount: 2
Fore
SplineSet
1052 0 m 1,0,-1
 1052 198 l 1,1,2
 984 86 984 86 893 26 c 128,-1,3
 802 -34 802 -34 664 -34 c 0,4,5
 509 -34 509 -34 385 46.5 c 128,-1,6
 261 127 261 127 188.5 282 c 128,-1,7
 116 437 116 437 116 660 c 256,8,9
 116 883 116 883 188.5 1038.5 c 128,-1,10
 261 1194 261 1194 385 1276 c 128,-1,11
 509 1358 509 1358 664 1358 c 0,12,13
 799 1358 799 1358 891.5 1301 c 128,-1,14
 984 1244 984 1244 1052 1131 c 1,15,-1
 1052 1324 l 1,16,-1
 1818 1324 l 1,17,-1
 1818 1178 l 1,18,-1
 1212 1178 l 1,19,-1
 1212 758 l 1,20,-1
 1783 758 l 1,21,-1
 1783 611 l 1,22,-1
 1212 611 l 1,23,-1
 1212 146 l 1,24,-1
 1852 146 l 1,25,-1
 1826 0 l 1,26,-1
 1052 0 l 1,0,-1
671 107 m 256,27,28
 794 107 794 107 879 175.5 c 128,-1,29
 964 244 964 244 1008 367 c 128,-1,30
 1052 490 1052 490 1052 654 c 2,31,-1
 1052 673 l 2,32,33
 1052 833 1052 833 1007.5 955.5 c 128,-1,34
 963 1078 963 1078 878 1147.5 c 128,-1,35
 793 1217 793 1217 671 1217 c 256,36,37
 549 1217 549 1217 463 1147 c 128,-1,38
 377 1077 377 1077 332.5 952 c 128,-1,39
 288 827 288 827 288 662 c 0,40,41
 288 496 288 496 332.5 371 c 128,-1,42
 377 246 377 246 462.5 176.5 c 128,-1,43
 548 107 548 107 671 107 c 256,27,28
EndSplineSet
Validated: 1
EndChar

StartChar: thorn
Encoding: 254 254 203
Width: 1070
Flags: W
LayerCount: 2
Fore
SplineSet
154 -363 m 1,0,-1
 154 1324 l 1,1,-1
 310 1324 l 1,2,-1
 310 826 l 1,3,4
 363 903 363 903 436 946.5 c 128,-1,5
 509 990 509 990 607 990 c 0,6,7
 733 990 733 990 816 925.5 c 128,-1,8
 899 861 899 861 940.5 747.5 c 128,-1,9
 982 634 982 634 982 487 c 0,10,11
 982 249 982 249 876.5 109.5 c 128,-1,12
 771 -30 771 -30 589 -30 c 0,13,14
 515 -30 515 -30 441.5 3 c 128,-1,15
 368 36 368 36 310 120 c 1,16,-1
 310 -363 l 1,17,-1
 154 -363 l 1,0,-1
567 99 m 0,18,19
 674 99 674 99 747 186.5 c 128,-1,20
 820 274 820 274 820 485 c 0,21,22
 820 628 820 628 784.5 710 c 128,-1,23
 749 792 749 792 694 826.5 c 128,-1,24
 639 861 639 861 579 861 c 0,25,26
 517 861 517 861 463 834 c 128,-1,27
 409 807 409 807 372 754 c 0,28,29
 342 711 342 711 325.5 651.5 c 128,-1,30
 309 592 309 592 309 518 c 2,31,-1
 309 453 l 2,32,33
 309 294 309 294 370 200 c 0,34,35
 405 148 405 148 457 123.5 c 128,-1,36
 509 99 509 99 567 99 c 0,18,19
EndSplineSet
Validated: 1
EndChar

StartChar: ae
Encoding: 230 230 204
Width: 1604
Flags: W
LayerCount: 2
Fore
SplineSet
1124 -30 m 0,0,1
 1009 -30 1009 -30 919.5 20.5 c 128,-1,2
 830 71 830 71 775 181 c 1,3,4
 730 105 730 105 672 61 c 0,5,6
 626 25 626 25 563.5 1 c 128,-1,7
 501 -23 501 -23 417 -23 c 0,8,9
 275 -23 275 -23 185.5 49 c 128,-1,10
 96 121 96 121 96 266 c 0,11,12
 96 367 96 367 136.5 429.5 c 128,-1,13
 177 492 177 492 243 526 c 128,-1,14
 309 560 309 560 389.5 573.5 c 128,-1,15
 470 587 470 587 549 590 c 2,16,-1
 704 595 l 1,17,-1
 704 623 l 2,18,19
 704 733 704 733 666 800 c 128,-1,20
 628 867 628 867 503 867 c 0,21,22
 397 867 397 867 348 828 c 128,-1,23
 299 789 299 789 284 723 c 1,24,-1
 142 739 l 1,25,26
 174 873 174 873 262 931.5 c 128,-1,27
 350 990 350 990 513 990 c 0,28,29
 618 990 618 990 695.5 946.5 c 128,-1,30
 773 903 773 903 810 817 c 1,31,32
 867 905 867 905 947 947.5 c 128,-1,33
 1027 990 1027 990 1124 990 c 0,34,35
 1262 990 1262 990 1349.5 929 c 128,-1,36
 1437 868 1437 868 1478.5 762.5 c 128,-1,37
 1520 657 1520 657 1520 522 c 2,38,-1
 1520 441 l 1,39,-1
 862 441 l 1,40,41
 864 295 864 295 929.5 196 c 128,-1,42
 995 97 995 97 1125 97 c 0,43,44
 1233 97 1233 97 1284.5 143 c 128,-1,45
 1336 189 1336 189 1355 268 c 1,46,-1
 1506 268 l 1,47,48
 1484 129 1484 129 1390 49.5 c 128,-1,49
 1296 -30 1296 -30 1124 -30 c 0,0,1
1122 869 m 0,50,51
 1006 869 1006 869 938.5 789.5 c 128,-1,52
 871 710 871 710 863 559 c 1,53,-1
 1365 559 l 1,54,-1
 1365 560 l 2,55,56
 1365 698 1365 698 1308 783.5 c 128,-1,57
 1251 869 1251 869 1122 869 c 0,50,51
255 268 m 0,58,59
 255 177 255 177 308.5 141.5 c 128,-1,60
 362 106 362 106 445 106 c 0,61,62
 544 106 544 106 616 162 c 0,63,64
 660 197 660 197 682 252 c 128,-1,65
 704 307 704 307 704 374 c 2,66,-1
 704 482 l 1,67,-1
 560 477 l 2,68,69
 394 471 394 471 324.5 423 c 128,-1,70
 255 375 255 375 255 268 c 0,58,59
EndSplineSet
Validated: 1
EndChar

StartChar: oe
Encoding: 339 339 205
Width: 1701
Flags: W
LayerCount: 2
Fore
SplineSet
521 -30 m 0,0,1
 319 -30 319 -30 203.5 106 c 128,-1,2
 88 242 88 242 88 477 c 0,3,4
 88 634 88 634 142.5 749 c 128,-1,5
 197 864 197 864 295.5 927 c 128,-1,6
 394 990 394 990 526 990 c 0,7,8
 770 990 770 990 873 763 c 1,9,10
 983 990 983 990 1220 990 c 0,11,12
 1358 990 1358 990 1445.5 929 c 128,-1,13
 1533 868 1533 868 1575 762.5 c 128,-1,14
 1617 657 1617 657 1617 522 c 2,15,-1
 1617 441 l 1,16,-1
 954 441 l 1,17,18
 956 295 956 295 1023.5 196 c 128,-1,19
 1091 97 1091 97 1220 97 c 0,20,21
 1330 97 1330 97 1381.5 143 c 128,-1,22
 1433 189 1433 189 1453 268 c 1,23,-1
 1603 268 l 1,24,25
 1581 131 1581 131 1486.5 50.5 c 128,-1,26
 1392 -30 1392 -30 1220 -30 c 0,27,28
 1092 -30 1092 -30 1007.5 31.5 c 128,-1,29
 923 93 923 93 872 202 c 1,30,31
 818 89 818 89 731.5 29.5 c 128,-1,32
 645 -30 645 -30 521 -30 c 0,0,1
1219 869 m 0,33,34
 1107 869 1107 869 1037 790.5 c 128,-1,35
 967 712 967 712 957 559 c 1,36,-1
 1461 559 l 1,37,-1
 1461 560 l 2,38,39
 1461 698 1461 698 1404 783.5 c 128,-1,40
 1347 869 1347 869 1219 869 c 0,33,34
523 99 m 0,41,42
 664 99 664 99 729.5 206.5 c 128,-1,43
 795 314 795 314 795 480 c 256,44,45
 795 646 795 646 732 753.5 c 128,-1,46
 669 861 669 861 523 861 c 0,47,48
 382 861 382 861 318 754 c 128,-1,49
 254 647 254 647 254 480 c 0,50,51
 254 314 254 314 317.5 206.5 c 128,-1,52
 381 99 381 99 523 99 c 0,41,42
EndSplineSet
Validated: 1
EndChar

StartChar: germandbls
Encoding: 223 223 206
Width: 1096
Flags: W
LayerCount: 2
Fore
SplineSet
625 -21 m 0,0,1
 569 -21 569 -21 515.5 -11 c 128,-1,2
 462 -1 462 -1 425 11 c 1,3,-1
 452 133 l 1,4,5
 478 124 478 124 524 115 c 128,-1,6
 570 106 570 106 611 106 c 0,7,8
 763 106 763 106 817.5 180.5 c 128,-1,9
 872 255 872 255 872 374 c 0,10,11
 872 514 872 514 785.5 577.5 c 128,-1,12
 699 641 699 641 550 641 c 2,13,-1
 455 641 l 1,14,-1
 455 768 l 1,15,-1
 536 768 l 2,16,17
 764 768 764 768 764 1007 c 0,18,19
 764 1095 764 1095 714 1155.5 c 128,-1,20
 664 1216 664 1216 548 1216 c 0,21,22
 430 1216 430 1216 368.5 1149 c 128,-1,23
 307 1082 307 1082 307 955 c 2,24,-1
 307 0 l 1,25,-1
 154 0 l 1,26,-1
 154 960 l 2,27,28
 154 1136 154 1136 259 1237.5 c 128,-1,29
 364 1339 364 1339 541 1339 c 0,30,31
 729 1339 729 1339 823.5 1252.5 c 128,-1,32
 918 1166 918 1166 918 1018 c 0,33,34
 918 812 918 812 756 731 c 1,35,36
 869 704 869 704 948.5 615 c 128,-1,37
 1028 526 1028 526 1028 369 c 0,38,39
 1028 264 1028 264 988.5 175.5 c 128,-1,40
 949 87 949 87 860.5 33 c 128,-1,41
 772 -21 772 -21 625 -21 c 0,0,1
EndSplineSet
Validated: 1
EndChar

StartChar: florin
Encoding: 402 402 207
Width: 1164
Flags: W
LayerCount: 2
Fore
SplineSet
271 -324 m 0,0,1
 225 -324 225 -324 184.5 -315 c 128,-1,2
 144 -306 144 -306 112 -292 c 1,3,-1
 152 -169 l 1,4,5
 210 -194 210 -194 263 -194 c 0,6,7
 343 -194 343 -194 374 -154 c 128,-1,8
 405 -114 405 -114 420 -29 c 2,9,-1
 570 802 l 1,10,-1
 428 802 l 1,11,-1
 448 932 l 1,12,-1
 594 932 l 1,13,-1
 612 1034 l 2,14,15
 636 1165 636 1165 704 1240.5 c 128,-1,16
 772 1316 772 1316 925 1316 c 0,17,18
 972 1316 972 1316 1012 1306.5 c 128,-1,19
 1052 1297 1052 1297 1089 1281 c 1,20,-1
 1048 1159 l 1,21,22
 1022 1171 1022 1171 995.5 1178.5 c 128,-1,23
 969 1186 969 1186 932 1186 c 0,24,25
 859 1186 859 1186 820 1151 c 128,-1,26
 781 1116 781 1116 764 1020 c 2,27,-1
 748 932 l 1,28,-1
 981 932 l 1,29,-1
 960 802 l 1,30,-1
 725 802 l 1,31,-1
 573 -41 l 2,32,33
 549 -175 549 -175 483 -249.5 c 128,-1,34
 417 -324 417 -324 271 -324 c 0,0,1
EndSplineSet
Validated: 1
EndChar

StartChar: Eth
Encoding: 208 208 208
Width: 1315
Flags: W
LayerCount: 2
Fore
SplineSet
174 0 m 1,0,-1
 174 615 l 1,1,-1
 30 615 l 1,2,-1
 30 755 l 1,3,-1
 174 755 l 1,4,-1
 174 1324 l 1,5,-1
 615 1324 l 2,6,7
 888 1324 888 1324 1043.5 1162.5 c 128,-1,8
 1199 1001 1199 1001 1199 671 c 0,9,10
 1199 338 1199 338 1031.5 169 c 128,-1,11
 864 0 864 0 575 0 c 2,12,-1
 174 0 l 1,0,-1
657 615 m 1,13,-1
 339 615 l 1,14,-1
 339 143 l 1,15,-1
 582 143 l 2,16,17
 813 143 813 143 919.5 283 c 128,-1,18
 1026 423 1026 423 1026 667 c 0,19,20
 1026 912 1026 912 929 1047.5 c 128,-1,21
 832 1183 832 1183 615 1183 c 2,22,-1
 339 1183 l 1,23,-1
 339 755 l 1,24,-1
 657 755 l 1,25,-1
 657 615 l 1,13,-1
EndSplineSet
Validated: 1
EndChar

StartChar: Hbar
Encoding: 294 294 210
Width: 1360
Flags: W
LayerCount: 2
Fore
SplineSet
190 0 m 1,0,-1
 190 983 l 1,1,-1
 62 983 l 1,2,-1
 62 1118 l 1,3,-1
 190 1118 l 1,4,-1
 190 1324 l 1,5,-1
 355 1324 l 1,6,-1
 355 1118 l 1,7,-1
 1005 1118 l 1,8,-1
 1005 1324 l 1,9,-1
 1170 1324 l 1,10,-1
 1170 1118 l 1,11,-1
 1298 1118 l 1,12,-1
 1298 983 l 1,13,-1
 1170 983 l 1,14,-1
 1170 0 l 1,15,-1
 1005 0 l 1,16,-1
 1005 609 l 1,17,-1
 355 609 l 1,18,-1
 355 0 l 1,19,-1
 190 0 l 1,0,-1
355 763 m 1,20,-1
 1005 763 l 1,21,-1
 1005 983 l 1,22,-1
 355 983 l 1,23,-1
 355 763 l 1,20,-1
EndSplineSet
Validated: 1
EndChar

StartChar: Tbar
Encoding: 358 358 211
Width: 1000
Flags: W
LayerCount: 2
Fore
SplineSet
416 0 m 1,0,-1
 416 582 l 1,1,-1
 151 582 l 1,2,-1
 151 722 l 1,3,-1
 416 722 l 1,4,-1
 416 1178 l 1,5,-1
 3 1178 l 1,6,-1
 3 1324 l 1,7,-1
 997 1324 l 1,8,-1
 997 1178 l 1,9,-1
 584 1178 l 1,10,-1
 584 722 l 1,11,-1
 849 722 l 1,12,-1
 849 582 l 1,13,-1
 584 582 l 1,14,-1
 584 0 l 1,15,-1
 416 0 l 1,0,-1
EndSplineSet
Validated: 1
EndChar

StartChar: Lslash
Encoding: 321 321 212
Width: 970
Flags: W
LayerCount: 2
Fore
SplineSet
198 0 m 1,0,-1
 198 457 l 1,1,-1
 54 353 l 1,2,-1
 54 507 l 1,3,-1
 198 611 l 1,4,-1
 198 1324 l 1,5,-1
 363 1324 l 1,6,-1
 363 734 l 1,7,-1
 712 992 l 1,8,-1
 712 838 l 1,9,-1
 363 580 l 1,10,-1
 363 146 l 1,11,-1
 930 146 l 1,12,-1
 905 0 l 1,13,-1
 198 0 l 1,0,-1
EndSplineSet
Validated: 1
EndChar

StartChar: Oslash
Encoding: 216 216 213
Width: 1388
Flags: W
LayerCount: 2
Fore
SplineSet
289 -98 m 1,0,-1
 188 -26 l 1,1,-1
 288 133 l 1,2,3
 206 222 206 222 161 355 c 128,-1,4
 116 488 116 488 116 661 c 0,5,6
 116 885 116 885 190 1041 c 128,-1,7
 264 1197 264 1197 394 1278.5 c 128,-1,8
 524 1360 524 1360 694 1360 c 0,9,10
 871 1360 871 1360 1002 1276 c 1,11,-1
 1095 1424 l 1,12,-1
 1196 1351 l 1,13,-1
 1099 1196 l 1,14,15
 1181 1107 1181 1107 1226.5 974 c 128,-1,16
 1272 841 1272 841 1272 667 c 0,17,18
 1272 443 1272 443 1200 286.5 c 128,-1,19
 1128 130 1128 130 998.5 48 c 128,-1,20
 869 -34 869 -34 694 -34 c 0,21,22
 516 -34 516 -34 383 52 c 1,23,-1
 289 -98 l 1,0,-1
288 663 m 0,24,25
 288 421 288 421 378 278 c 1,26,-1
 919 1143 l 1,27,28
 825 1217 825 1217 694 1217 c 0,29,30
 559 1217 559 1217 469 1147.5 c 128,-1,31
 379 1078 379 1078 333.5 953.5 c 128,-1,32
 288 829 288 829 288 663 c 0,24,25
694 109 m 0,33,34
 894 109 894 109 997 260.5 c 128,-1,35
 1100 412 1100 412 1100 663 c 0,36,37
 1100 900 1100 900 1006 1047 c 1,38,-1
 464 181 l 1,39,40
 558 109 558 109 694 109 c 0,33,34
EndSplineSet
Validated: 1
EndChar

StartChar: eth
Encoding: 240 240 214
Width: 1058
Flags: W
LayerCount: 2
Fore
SplineSet
526 -30 m 0,0,1
 390 -30 390 -30 292 29.5 c 128,-1,2
 194 89 194 89 141 195 c 128,-1,3
 88 301 88 301 88 439 c 256,4,5
 88 577 88 577 143 684 c 128,-1,6
 198 791 198 791 293 852 c 128,-1,7
 388 913 388 913 508 913 c 0,8,9
 603 913 603 913 669.5 882 c 128,-1,10
 736 851 736 851 791 789 c 1,11,12
 767 921 767 921 703 1008.5 c 128,-1,13
 639 1096 639 1096 543 1147 c 1,14,-1
 407 1007 l 1,15,-1
 336 1083 l 1,16,-1
 439 1190 l 1,17,18
 347 1219 347 1219 233 1227 c 1,19,-1
 256 1353 l 1,20,21
 329 1346 329 1346 401.5 1330.5 c 128,-1,22
 474 1315 474 1315 537 1291 c 1,23,-1
 649 1406 l 1,24,-1
 720 1329 l 1,25,-1
 636 1243 l 1,26,27
 970 1045 970 1045 970 512 c 0,28,29
 970 253 970 253 849 111.5 c 128,-1,30
 728 -30 728 -30 526 -30 c 0,0,1
528 102 m 0,31,32
 666 102 666 102 735.5 199.5 c 128,-1,33
 805 297 805 297 805 458 c 0,34,35
 805 617 805 617 731.5 700.5 c 128,-1,36
 658 784 658 784 520 784 c 0,37,38
 431 784 431 784 372 737.5 c 128,-1,39
 313 691 313 691 283.5 613 c 128,-1,40
 254 535 254 535 254 442 c 256,41,42
 254 349 254 349 283.5 271.5 c 128,-1,43
 313 194 313 194 373.5 148 c 128,-1,44
 434 102 434 102 528 102 c 0,31,32
EndSplineSet
Validated: 1
EndChar

StartChar: dcroat
Encoding: 273 273 215
Width: 1086
Flags: W
LayerCount: 2
Fore
SplineSet
475 -30 m 0,0,1
 342 -30 342 -30 256 37.5 c 128,-1,2
 170 105 170 105 129 215.5 c 128,-1,3
 88 326 88 326 88 454 c 0,4,5
 88 600 88 600 137 711 c 128,-1,6
 186 822 186 822 276.5 884.5 c 128,-1,7
 367 947 367 947 492 947 c 0,8,9
 566 947 566 947 639 917.5 c 128,-1,10
 712 888 712 888 776 799 c 1,11,-1
 776 1074 l 1,12,-1
 480 1074 l 1,13,-1
 480 1188 l 1,14,-1
 776 1188 l 1,15,-1
 776 1324 l 1,16,-1
 932 1324 l 1,17,-1
 932 1188 l 1,18,-1
 1053 1188 l 1,19,-1
 1053 1074 l 1,20,-1
 932 1074 l 1,21,-1
 932 0 l 1,22,-1
 779 0 l 1,23,-1
 779 138 l 1,24,25
 722 56 722 56 647.5 13 c 128,-1,26
 573 -30 573 -30 475 -30 c 0,0,1
505 101 m 0,27,28
 563 101 563 101 614 125 c 128,-1,29
 665 149 665 149 701 191 c 256,30,31
 737 233 737 233 758 292.5 c 128,-1,32
 779 352 779 352 779 421 c 2,33,-1
 779 476 l 2,34,35
 779 580 779 580 757 646 c 128,-1,36
 735 712 735 712 681 758 c 0,37,38
 638 795 638 795 598.5 807 c 128,-1,39
 559 819 559 819 515 819 c 0,40,41
 404 819 404 819 328 731 c 128,-1,42
 252 643 252 643 252 455 c 0,43,44
 252 325 252 325 289 247.5 c 128,-1,45
 326 170 326 170 384 135.5 c 128,-1,46
 442 101 442 101 505 101 c 0,27,28
EndSplineSet
Validated: 1
EndChar

StartChar: hbar
Encoding: 295 295 216
Width: 1078
Flags: W
LayerCount: 2
Fore
SplineSet
154 0 m 1,0,-1
 154 1074 l 1,1,-1
 32 1074 l 1,2,-1
 32 1188 l 1,3,-1
 154 1188 l 1,4,-1
 154 1324 l 1,5,-1
 310 1324 l 1,6,-1
 310 1188 l 1,7,-1
 606 1188 l 1,8,-1
 606 1074 l 1,9,-1
 310 1074 l 1,10,-1
 310 777 l 1,11,12
 378 867 378 867 458 908 c 128,-1,13
 538 949 538 949 624 949 c 0,14,15
 781 949 781 949 854.5 857.5 c 128,-1,16
 928 766 928 766 928 594 c 2,17,-1
 928 0 l 1,18,-1
 772 0 l 1,19,-1
 772 565 l 2,20,21
 772 687 772 687 732 750.5 c 128,-1,22
 692 814 692 814 589 814 c 0,23,24
 539 814 539 814 488.5 794 c 128,-1,25
 438 774 438 774 396 733 c 0,26,27
 353 690 353 690 331.5 643.5 c 128,-1,28
 310 597 310 597 310 527 c 2,29,-1
 310 0 l 1,30,-1
 154 0 l 1,0,-1
EndSplineSet
Validated: 1
EndChar

StartChar: tbar
Encoding: 359 359 217
Width: 710
Flags: W
LayerCount: 2
Fore
SplineSet
440 -21 m 0,0,1
 330 -21 330 -21 275.5 25.5 c 128,-1,2
 221 72 221 72 203.5 148 c 128,-1,3
 186 224 186 224 186 310 c 2,4,-1
 186 444 l 1,5,-1
 45 444 l 1,6,-1
 45 571 l 1,7,-1
 186 571 l 1,8,-1
 186 837 l 1,9,-1
 45 837 l 1,10,-1
 45 960 l 1,11,-1
 186 960 l 1,12,-1
 186 1222 l 1,13,-1
 342 1222 l 1,14,-1
 342 960 l 1,15,-1
 642 960 l 1,16,-1
 642 837 l 1,17,-1
 342 837 l 1,18,-1
 342 571 l 1,19,-1
 642 571 l 1,20,-1
 642 444 l 1,21,-1
 342 444 l 1,22,-1
 342 266 l 2,23,24
 342 195 342 195 372.5 151.5 c 128,-1,25
 403 108 403 108 468 108 c 0,26,27
 516 108 516 108 558 118.5 c 128,-1,28
 600 129 600 129 633 142 c 1,29,-1
 660 23 l 1,30,31
 623 7 623 7 566 -7 c 128,-1,32
 509 -21 509 -21 440 -21 c 0,0,1
EndSplineSet
Validated: 1
EndChar

StartChar: lslash
Encoding: 322 322 218
Width: 484
Flags: W
LayerCount: 2
Fore
SplineSet
164 0 m 1,0,-1
 164 604 l 1,1,-1
 4 486 l 1,2,-1
 4 622 l 1,3,-1
 164 740 l 1,4,-1
 164 1324 l 1,5,-1
 321 1324 l 1,6,-1
 321 842 l 1,7,-1
 480 962 l 1,8,-1
 480 823 l 1,9,-1
 321 705 l 1,10,-1
 321 0 l 1,11,-1
 164 0 l 1,0,-1
EndSplineSet
Validated: 1
EndChar

StartChar: oslash
Encoding: 248 248 219
Width: 1060
Flags: W
LayerCount: 2
Fore
SplineSet
227 -107 m 1,0,-1
 133 -37 l 1,1,-1
 217 94 l 1,2,3
 88 230 88 230 88 477 c 0,4,5
 88 634 88 634 142.5 749 c 128,-1,6
 197 864 197 864 296.5 927 c 128,-1,7
 396 990 396 990 530 990 c 0,8,9
 655 990 655 990 752 934 c 1,10,-1
 830 1056 l 1,11,-1
 923 988 l 1,12,-1
 843 861 l 1,13,14
 905 794 905 794 938.5 696.5 c 128,-1,15
 972 599 972 599 972 477 c 0,16,17
 972 242 972 242 854.5 106 c 128,-1,18
 737 -30 737 -30 530 -30 c 0,19,20
 405 -30 405 -30 309 22 c 1,21,-1
 227 -107 l 1,0,-1
250 480 m 0,22,23
 250 406 250 406 262.5 342 c 128,-1,24
 275 278 275 278 302 229 c 1,25,-1
 679 819 l 1,26,27
 617 861 617 861 530 861 c 0,28,29
 383 861 383 861 316.5 754 c 128,-1,30
 250 647 250 647 250 480 c 0,22,23
530 99 m 0,31,32
 679 99 679 99 744.5 206.5 c 128,-1,33
 810 314 810 314 810 480 c 0,34,35
 810 554 810 554 797.5 617 c 128,-1,36
 785 680 785 680 759 729 c 1,37,-1
 383 139 l 1,38,39
 444 99 444 99 530 99 c 0,31,32
EndSplineSet
Validated: 1
EndChar

StartChar: uni0327
Encoding: 807 807 220
Width: 0
GlyphClass: 4
Flags: W
AnchorPoint: "Anchor-0" 0 -55 mark 0
LayerCount: 2
Fore
SplineSet
-58 -385 m 0,0,1
 -80 -385 -80 -385 -106.5 -383.5 c 128,-1,2
 -133 -382 -133 -382 -166 -376 c 1,3,-1
 -166 -275 l 1,4,5
 -106 -283 -106 -283 -60 -283 c 0,6,7
 -7 -283 -7 -283 15.5 -268 c 128,-1,8
 38 -253 38 -253 38 -225 c 0,9,10
 38 -189 38 -189 8.5 -177 c 128,-1,11
 -21 -165 -21 -165 -83 -165 c 2,12,-1
 -120 -165 l 1,13,-1
 -60 9 l 1,14,-1
 41 9 l 1,15,-1
 7 -90 l 1,16,17
 101 -101 101 -101 134 -143.5 c 128,-1,18
 167 -186 167 -186 167 -235 c 0,19,20
 167 -319 167 -319 106.5 -352 c 128,-1,21
 46 -385 46 -385 -58 -385 c 0,0,1
EndSplineSet
Validated: 1
EndChar

StartChar: uni0327.cap
Encoding: 65555 -1 221
Width: 0
GlyphClass: 4
Flags: W
AnchorPoint: "Anchor-1" 0 -55 mark 0
LayerCount: 2
Fore
SplineSet
-51 -408 m 0,0,1
 -74 -408 -74 -408 -101.5 -406.5 c 128,-1,2
 -129 -405 -129 -405 -164 -398 c 1,3,-1
 -164 -297 l 1,4,5
 -129 -302 -129 -302 -103.5 -304 c 128,-1,6
 -78 -306 -78 -306 -53 -306 c 0,7,8
 0 -306 0 -306 23 -289 c 128,-1,9
 46 -272 46 -272 46 -240 c 0,10,11
 46 -204 46 -204 17 -191.5 c 128,-1,12
 -12 -179 -12 -179 -78 -179 c 2,13,-1
 -115 -179 l 1,14,-1
 -52 5 l 1,15,-1
 52 6 l 1,16,-1
 13 -101 l 1,17,18
 113 -113 113 -113 147 -157.5 c 128,-1,19
 181 -202 181 -202 181 -253 c 0,20,21
 181 -341 181 -341 118.5 -374.5 c 128,-1,22
 56 -408 56 -408 -51 -408 c 0,0,1
EndSplineSet
Validated: 1
EndChar

StartChar: uni0326
Encoding: 806 806 223
Width: 0
GlyphClass: 4
Flags: W
AnchorPoint: "Anchor-0" 0 -55 mark 0
LayerCount: 2
Fore
SplineSet
-222 -394 m 1,0,-1
 -91 -124 l 1,1,-1
 79 -124 l 1,2,-1
 -85 -394 l 1,3,-1
 -222 -394 l 1,0,-1
EndSplineSet
Validated: 1
EndChar

StartChar: uni0326.cap
Encoding: 65556 -1 224
Width: 0
GlyphClass: 4
Flags: W
AnchorPoint: "Anchor-1" 0 -55 mark 0
LayerCount: 2
Fore
SplineSet
-158 -401 m 1,0,-1
 -25 -124 l 1,1,-1
 153 -124 l 1,2,-1
 -16 -401 l 1,3,-1
 -158 -401 l 1,0,-1
EndSplineSet
Validated: 1
EndChar

StartChar: uni0312
Encoding: 786 786 225
Width: 0
GlyphClass: 4
Flags: W
AnchorPoint: "Anchor-2" 0 1021 mark 0
LayerCount: 2
Fore
SplineSet
-150 1092 m 1,0,-1
 14 1360 l 1,1,-1
 151 1360 l 1,2,-1
 20 1092 l 1,3,-1
 -150 1092 l 1,0,-1
EndSplineSet
Validated: 1
EndChar

StartChar: uni0328
Encoding: 808 808 226
Width: 0
GlyphClass: 4
Flags: W
AnchorPoint: "Anchor-3" 0 -93 mark 0
LayerCount: 2
Fore
SplineSet
28 -333 m 0,0,1
 -81 -333 -81 -333 -126.5 -295 c 128,-1,2
 -172 -257 -172 -257 -172 -187 c 0,3,4
 -172 -90 -172 -90 -53 0 c 1,5,-1
 78 0 l 1,6,7
 -33 -87 -33 -87 -33 -161 c 0,8,9
 -33 -198 -33 -198 -10 -211 c 128,-1,10
 13 -224 13 -224 41 -224 c 0,11,12
 52 -224 52 -224 61.5 -224 c 128,-1,13
 71 -224 71 -224 85 -223 c 1,14,-1
 85 -329 l 1,15,16
 74 -330 74 -330 58 -331.5 c 128,-1,17
 42 -333 42 -333 28 -333 c 0,0,1
EndSplineSet
Validated: 1
EndChar

StartChar: uni0328.cap
Encoding: 65557 -1 227
Width: 0
GlyphClass: 4
Flags: W
AnchorPoint: "Anchor-4" 0 -93 mark 0
LayerCount: 2
Fore
SplineSet
29 -344 m 0,0,1
 -83 -344 -83 -344 -130.5 -304 c 128,-1,2
 -178 -264 -178 -264 -178 -192 c 0,3,4
 -178 -97 -178 -97 -58 0 c 1,5,-1
 83 0 l 1,6,7
 -33 -86 -33 -86 -33 -164 c 0,8,9
 -33 -204 -33 -204 -11 -217 c 128,-1,10
 11 -230 11 -230 42 -230 c 0,11,12
 53 -230 53 -230 65 -229.5 c 128,-1,13
 77 -229 77 -229 86 -228 c 1,14,-1
 86 -341 l 1,15,16
 79 -342 79 -342 62 -343 c 128,-1,17
 45 -344 45 -344 29 -344 c 0,0,1
EndSplineSet
Validated: 1
EndChar

StartChar: uni0328.round
Encoding: 65558 -1 228
Width: 0
GlyphClass: 4
Flags: W
AnchorPoint: "Anchor-5" 0 -93 mark 0
LayerCount: 2
Fore
SplineSet
69 -333 m 0,0,1
 -42 -333 -42 -333 -86.5 -295 c 128,-1,2
 -131 -257 -131 -257 -131 -187 c 0,3,4
 -131 -93 -131 -93 -12 0 c 1,5,-1
 119 0 l 1,6,7
 9 -86 9 -86 9 -161 c 0,8,9
 9 -198 9 -198 31 -211 c 128,-1,10
 53 -224 53 -224 82 -224 c 0,11,12
 93 -224 93 -224 102.5 -224 c 128,-1,13
 112 -224 112 -224 126 -223 c 1,14,-1
 126 -329 l 1,15,16
 114 -330 114 -330 99.5 -331.5 c 128,-1,17
 85 -333 85 -333 69 -333 c 0,0,1
EndSplineSet
Validated: 1
EndChar

StartChar: uni0328.round.cap
Encoding: 65559 -1 229
Width: 0
GlyphClass: 4
Flags: W
AnchorPoint: "Anchor-6" 0 -93 mark 0
LayerCount: 2
Fore
SplineSet
43 -344 m 0,0,1
 -69 -344 -69 -344 -116 -304 c 128,-1,2
 -163 -264 -163 -264 -163 -192 c 0,3,4
 -163 -97 -163 -97 -53 -10 c 1,5,-1
 128 23 l 1,6,7
 52 -26 52 -26 16.5 -74.5 c 128,-1,8
 -19 -123 -19 -123 -19 -164 c 0,9,10
 -19 -204 -19 -204 3 -217 c 128,-1,11
 25 -230 25 -230 57 -230 c 0,12,13
 68 -230 68 -230 79.5 -229.5 c 128,-1,14
 91 -229 91 -229 101 -228 c 1,15,-1
 101 -341 l 1,16,17
 94 -342 94 -342 76 -343 c 128,-1,18
 58 -344 58 -344 43 -344 c 0,0,1
EndSplineSet
Validated: 1
EndChar

StartChar: acutecomb
Encoding: 769 769 259
Width: 0
GlyphClass: 4
Flags: W
AnchorPoint: "Anchor-2" 0 1021 mark 0
LayerCount: 2
Fore
SplineSet
-95 1098 m 1,0,-1
 106 1360 l 1,1,-1
 297 1360 l 1,2,-1
 60 1098 l 1,3,-1
 -95 1098 l 1,0,-1
EndSplineSet
Validated: 1
Substitution2: "Single Substitution lookup 8 subtable" acutecomb.grek
Substitution2: "Single Substitution lookup 5 subtable" acutecomb.grek.cap
EndChar

StartChar: acutecomb.cap
Encoding: 65560 -1 260
Width: 0
GlyphClass: 4
Flags: W
AnchorPoint: "Anchor-7" 0 1338 mark 0
LayerCount: 2
Fore
SplineSet
-96 1436 m 1,0,-1
 110 1686 l 1,1,-1
 304 1686 l 1,2,-1
 61 1436 l 1,3,-1
 -96 1436 l 1,0,-1
EndSplineSet
Validated: 1
EndChar

StartChar: uni030B
Encoding: 779 779 262
Width: 0
GlyphClass: 4
Flags: W
AnchorPoint: "Anchor-2" 0 1021 mark 0
LayerCount: 2
Fore
SplineSet
67 1098 m 1,0,-1
 249 1360 l 1,1,-1
 427 1360 l 1,2,-1
 207 1098 l 1,3,-1
 67 1098 l 1,0,-1
-241 1098 m 1,4,-1
 -60 1360 l 1,5,-1
 119 1360 l 1,6,-1
 -100 1098 l 1,7,-1
 -241 1098 l 1,4,-1
EndSplineSet
Validated: 1
EndChar

StartChar: uni030B.cap
Encoding: 65561 -1 263
Width: 0
GlyphClass: 4
Flags: W
AnchorPoint: "Anchor-7" 0 1338 mark 0
LayerCount: 2
Fore
SplineSet
76 1436 m 1,0,-1
 267 1686 l 1,1,-1
 449 1686 l 1,2,-1
 219 1436 l 1,3,-1
 76 1436 l 1,0,-1
-241 1436 m 1,4,-1
 -50 1686 l 1,5,-1
 132 1686 l 1,6,-1
 -98 1436 l 1,7,-1
 -241 1436 l 1,4,-1
EndSplineSet
Validated: 1
EndChar

StartChar: gravecomb
Encoding: 768 768 295
Width: 0
GlyphClass: 4
Flags: W
AnchorPoint: "Anchor-2" 0 1021 mark 0
LayerCount: 2
Fore
SplineSet
-51 1098 m 1,0,-1
 -290 1360 l 1,1,-1
 -99 1360 l 1,2,-1
 102 1098 l 1,3,-1
 -51 1098 l 1,0,-1
EndSplineSet
Validated: 1
EndChar

StartChar: gravecomb.cap
Encoding: 65562 -1 296
Width: 0
GlyphClass: 4
Flags: W
AnchorPoint: "Anchor-7" 0 1338 mark 0
LayerCount: 2
Fore
SplineSet
-61 1436 m 1,0,-1
 -304 1686 l 1,1,-1
 -111 1686 l 1,2,-1
 96 1436 l 1,3,-1
 -61 1436 l 1,0,-1
EndSplineSet
Validated: 1
EndChar

StartChar: uni0302
Encoding: 770 770 313
Width: 0
GlyphClass: 4
Flags: W
AnchorPoint: "Anchor-2" 0 1021 mark 0
LayerCount: 2
Fore
SplineSet
-281 1098 m 1,0,-1
 -78 1360 l 1,1,-1
 77 1360 l 1,2,-1
 280 1098 l 1,3,-1
 135 1098 l 1,4,-1
 -1 1260 l 1,5,-1
 -138 1098 l 1,6,-1
 -281 1098 l 1,0,-1
EndSplineSet
Validated: 1
EndChar

StartChar: uni0302.cap
Encoding: 65563 -1 314
Width: 0
GlyphClass: 4
Flags: W
AnchorPoint: "Anchor-7" 0 1338 mark 0
LayerCount: 2
Fore
SplineSet
-282 1436 m 1,0,-1
 -77 1686 l 1,1,-1
 79 1686 l 1,2,-1
 282 1436 l 1,3,-1
 135 1436 l 1,4,-1
 0 1581 l 1,5,-1
 -135 1436 l 1,6,-1
 -282 1436 l 1,0,-1
EndSplineSet
Validated: 1
EndChar

StartChar: tildecomb
Encoding: 771 771 316
Width: 0
GlyphClass: 4
Flags: W
AnchorPoint: "Anchor-2" 0 1021 mark 0
LayerCount: 2
Fore
SplineSet
-308 1125 m 1,0,1
 -308 1231 -308 1231 -260 1285.5 c 128,-1,2
 -212 1340 -212 1340 -129 1340 c 0,3,4
 -83 1340 -83 1340 -49 1322.5 c 128,-1,5
 -15 1305 -15 1305 11 1288 c 0,6,7
 38 1271 38 1271 64.5 1256.5 c 128,-1,8
 91 1242 91 1242 119 1242 c 0,9,10
 161 1242 161 1242 178.5 1266.5 c 128,-1,11
 196 1291 196 1291 196 1334 c 1,12,-1
 310 1334 l 1,13,14
 310 1228 310 1228 262 1173.5 c 128,-1,15
 214 1119 214 1119 131 1119 c 0,16,17
 85 1119 85 1119 49.5 1138.5 c 128,-1,18
 14 1158 14 1158 -17 1177 c 0,19,20
 -42 1193 -42 1193 -65.5 1205.5 c 128,-1,21
 -89 1218 -89 1218 -115 1218 c 0,22,23
 -158 1218 -158 1218 -176 1192 c 128,-1,24
 -194 1166 -194 1166 -194 1125 c 1,25,-1
 -308 1125 l 1,0,1
EndSplineSet
Validated: 1
EndChar

StartChar: tildecomb.cap
Encoding: 65564 -1 317
Width: 0
GlyphClass: 4
Flags: W
AnchorPoint: "Anchor-7" 0 1338 mark 0
LayerCount: 2
Fore
SplineSet
-318 1447 m 1,0,1
 -318 1554 -318 1554 -268 1609 c 128,-1,2
 -218 1664 -218 1664 -133 1664 c 0,3,4
 -85 1664 -85 1664 -51 1646 c 128,-1,5
 -17 1628 -17 1628 13 1608 c 0,6,7
 36 1593 36 1593 61.5 1579 c 128,-1,8
 87 1565 87 1565 117 1565 c 0,9,10
 163 1565 163 1565 180 1591 c 128,-1,11
 197 1617 197 1617 197 1660 c 1,12,-1
 316 1660 l 1,13,14
 316 1551 316 1551 266 1497 c 128,-1,15
 216 1443 216 1443 130 1443 c 0,16,17
 84 1443 84 1443 50 1461.5 c 128,-1,18
 16 1480 16 1480 -16 1500 c 0,19,20
 -38 1514 -38 1514 -63 1528.5 c 128,-1,21
 -88 1543 -88 1543 -119 1543 c 0,22,23
 -165 1543 -165 1543 -182.5 1517 c 128,-1,24
 -200 1491 -200 1491 -200 1447 c 1,25,-1
 -318 1447 l 1,0,1
EndSplineSet
Validated: 1
EndChar

StartChar: uni030C
Encoding: 780 780 353
Width: 0
GlyphClass: 4
Flags: W
AnchorPoint: "Anchor-2" 0 1021 mark 0
LayerCount: 2
Fore
SplineSet
-79 1102 m 1,0,-1
 -282 1364 l 1,1,-1
 -137 1364 l 1,2,-1
 0 1203 l 1,3,-1
 136 1364 l 1,4,-1
 280 1364 l 1,5,-1
 77 1102 l 1,6,-1
 -79 1102 l 1,0,-1
EndSplineSet
Validated: 1
EndChar

StartChar: uni030C.cap
Encoding: 65565 -1 354
Width: 0
GlyphClass: 4
Flags: W
AnchorPoint: "Anchor-7" 0 1338 mark 0
LayerCount: 2
Fore
SplineSet
-77 1443 m 1,0,-1
 -282 1691 l 1,1,-1
 -133 1691 l 1,2,-1
 2 1544 l 1,3,-1
 136 1691 l 1,4,-1
 282 1691 l 1,5,-1
 79 1443 l 1,6,-1
 -77 1443 l 1,0,-1
EndSplineSet
Validated: 1
EndChar

StartChar: uni0315
Encoding: 789 789 356
Width: 0
GlyphClass: 4
Flags: W
AnchorPoint: "Anchor-8" 0 668 mark 0
LayerCount: 2
Fore
SplineSet
-101 952 m 1,0,-1
 -53 1326 l 1,1,-1
 101 1326 l 1,2,-1
 19 952 l 1,3,-1
 -101 952 l 1,0,-1
EndSplineSet
Validated: 1
EndChar

StartChar: uni0315.short
Encoding: 65566 -1 357
Width: 0
GlyphClass: 4
Flags: W
AnchorPoint: "Anchor-9" 0 966 mark 0
LayerCount: 2
Fore
SplineSet
-96 1066 m 1,0,-1
 -50 1359 l 1,1,-1
 95 1359 l 1,2,-1
 18 1066 l 1,3,-1
 -96 1066 l 1,0,-1
EndSplineSet
Validated: 1
EndChar

StartChar: uni0304
Encoding: 772 772 358
Width: 0
GlyphClass: 4
Flags: W
AnchorPoint: "Anchor-2" 0 1021 mark 0
LayerCount: 2
Fore
SplineSet
-231 1158 m 1,0,-1
 -231 1285 l 1,1,-1
 229 1285 l 1,2,-1
 229 1158 l 1,3,-1
 -231 1158 l 1,0,-1
EndSplineSet
Validated: 1
EndChar

StartChar: uni0304.cap
Encoding: 65567 -1 359
Width: 0
GlyphClass: 4
Flags: W
AnchorPoint: "Anchor-7" 0 1338 mark 0
LayerCount: 2
Fore
SplineSet
-257 1477 m 1,0,-1
 -257 1611 l 1,1,-1
 257 1611 l 1,2,-1
 257 1477 l 1,3,-1
 -257 1477 l 1,0,-1
EndSplineSet
Validated: 1
EndChar

StartChar: uni0308
Encoding: 776 776 390
Width: 0
GlyphClass: 4
Flags: W
AnchorPoint: "Anchor-2" 0 1021 mark 0
LayerCount: 2
Fore
SplineSet
73 1144 m 1,0,-1
 73 1325 l 1,1,-1
 232 1325 l 1,2,-1
 232 1144 l 1,3,-1
 73 1144 l 1,0,-1
-234 1144 m 1,4,-1
 -234 1325 l 1,5,-1
 -77 1325 l 1,6,-1
 -77 1144 l 1,7,-1
 -234 1144 l 1,4,-1
EndSplineSet
Validated: 1
Substitution2: "Single Substitution lookup 24 subtable" uni0308.cap
Ligature2: "Ligature Substitution lookup 20 subtable" uni0308 acutecomb.grek
Ligature2: "Ligature Substitution lookup 19 subtable" uni0308 acutecomb.grek.cap
Ligature2: "Ligature Substitution lookup 18 subtable" uni0308 acutecomb
EndChar

StartChar: uni0308.cap
Encoding: 65568 -1 391
Width: 0
GlyphClass: 4
Flags: W
AnchorPoint: "Anchor-7" 0 1338 mark 0
LayerCount: 2
Fore
SplineSet
75 1468 m 1,0,-1
 75 1655 l 1,1,-1
 239 1655 l 1,2,-1
 239 1468 l 1,3,-1
 75 1468 l 1,0,-1
-239 1468 m 1,4,-1
 -239 1655 l 1,5,-1
 -76 1655 l 1,6,-1
 -76 1468 l 1,7,-1
 -239 1468 l 1,4,-1
EndSplineSet
Validated: 1
EndChar

StartChar: uni0306
Encoding: 774 774 393
Width: 0
GlyphClass: 4
Flags: W
AnchorPoint: "Anchor-2" 0 1021 mark 0
LayerCount: 2
Fore
SplineSet
-2 1096 m 0,0,1
 -114 1096 -114 1096 -178.5 1163 c 128,-1,2
 -243 1230 -243 1230 -243 1353 c 1,3,-1
 -124 1353 l 1,4,5
 -124 1274 -124 1274 -88.5 1237.5 c 128,-1,6
 -53 1201 -53 1201 -2 1201 c 256,7,8
 49 1201 49 1201 85.5 1237.5 c 128,-1,9
 122 1274 122 1274 122 1353 c 1,10,-1
 241 1353 l 1,11,12
 241 1230 241 1230 176 1163 c 128,-1,13
 111 1096 111 1096 -2 1096 c 0,0,1
EndSplineSet
Validated: 1
Substitution2: "'ccmp' Glyph Composition/Decomposition in Cyrillic lookup 4 subtable" uni0306.cyrl
EndChar

StartChar: uni0306.cap
Encoding: 65569 -1 394
Width: 0
GlyphClass: 4
Flags: W
AnchorPoint: "Anchor-7" 0 1338 mark 0
LayerCount: 2
Fore
SplineSet
-2 1436 m 0,0,1
 -117 1436 -117 1436 -181.5 1501 c 128,-1,2
 -246 1566 -246 1566 -246 1693 c 1,3,-1
 -124 1693 l 1,4,5
 -124 1614 -124 1614 -89 1578.5 c 128,-1,6
 -54 1543 -54 1543 -2 1543 c 256,7,8
 50 1543 50 1543 86 1578.5 c 128,-1,9
 122 1614 122 1614 122 1693 c 1,10,-1
 245 1693 l 1,11,12
 245 1567 245 1567 179.5 1501.5 c 128,-1,13
 114 1436 114 1436 -2 1436 c 0,0,1
EndSplineSet
Validated: 1
Substitution2: "'ccmp' Glyph Composition/Decomposition in Cyrillic lookup 4 subtable" uni0306.cyrl.cap
EndChar

StartChar: uni0307
Encoding: 775 775 422
Width: 0
GlyphClass: 4
Flags: W
AnchorPoint: "Anchor-2" 0 1021 mark 0
LayerCount: 2
Fore
SplineSet
-81 1141 m 1,0,-1
 -81 1327 l 1,1,-1
 79 1327 l 1,2,-1
 79 1141 l 1,3,-1
 -81 1141 l 1,0,-1
EndSplineSet
Validated: 1
EndChar

StartChar: uni0307.cap
Encoding: 65570 -1 423
Width: 0
GlyphClass: 4
Flags: W
AnchorPoint: "Anchor-7" 0 1338 mark 0
LayerCount: 2
Fore
SplineSet
-84 1467 m 1,0,-1
 -84 1659 l 1,1,-1
 83 1659 l 1,2,-1
 83 1467 l 1,3,-1
 -84 1467 l 1,0,-1
EndSplineSet
Validated: 1
EndChar

StartChar: uni030A
Encoding: 778 778 434
Width: 0
GlyphClass: 4
Flags: W
AnchorPoint: "Anchor-2" 0 1021 mark 0
LayerCount: 2
Fore
SplineSet
-1 1095 m 0,0,1
 -73 1095 -73 1095 -126.5 1141 c 128,-1,2
 -180 1187 -180 1187 -180 1279 c 0,3,4
 -180 1372 -180 1372 -126.5 1419.5 c 128,-1,5
 -73 1467 -73 1467 -1 1467 c 0,6,7
 69 1467 69 1467 124.5 1419.5 c 128,-1,8
 180 1372 180 1372 180 1279 c 0,9,10
 180 1187 180 1187 124.5 1141 c 128,-1,11
 69 1095 69 1095 -1 1095 c 0,0,1
-1 1184 m 256,12,13
 82 1184 82 1184 82 1279 c 0,14,15
 82 1377 82 1377 -1 1377 c 256,16,17
 -84 1377 -84 1377 -84 1279 c 0,18,19
 -84 1184 -84 1184 -1 1184 c 256,12,13
EndSplineSet
Validated: 1
EndChar

StartChar: uni030A.cap
Encoding: 65571 -1 435
Width: 0
GlyphClass: 4
Flags: W
AnchorPoint: "Anchor-7" 0 1338 mark 0
LayerCount: 2
Fore
SplineSet
-2 1367 m 256,0,1
 -76 1367 -76 1367 -131 1414.5 c 128,-1,2
 -186 1462 -186 1462 -186 1556 c 0,3,4
 -186 1652 -186 1652 -131.5 1700 c 128,-1,5
 -77 1748 -77 1748 -2 1748 c 0,6,7
 72 1748 72 1748 127.5 1700 c 128,-1,8
 183 1652 183 1652 183 1556 c 0,9,10
 183 1462 183 1462 127.5 1414.5 c 128,-1,11
 72 1367 72 1367 -2 1367 c 256,0,1
-2 1462 m 0,12,13
 83 1462 83 1462 83 1556 c 0,14,15
 83 1611 83 1611 61 1634.5 c 128,-1,16
 39 1658 39 1658 -2 1658 c 256,17,18
 -43 1658 -43 1658 -65.5 1634.5 c 128,-1,19
 -88 1611 -88 1611 -88 1556 c 0,20,21
 -88 1462 -88 1462 -2 1462 c 0,12,13
EndSplineSet
Validated: 1
EndChar

StartChar: Aring
Encoding: 197 197 437
Width: 1218
Flags: W
LayerCount: 2
Fore
SplineSet
35 0 m 1,0,-1
 506 1280 l 1,1,2
 469 1302 469 1302 446 1343 c 128,-1,3
 423 1384 423 1384 423 1443 c 0,4,5
 423 1539 423 1539 477.5 1587 c 128,-1,6
 532 1635 532 1635 607 1635 c 0,7,8
 681 1635 681 1635 736.5 1587 c 128,-1,9
 792 1539 792 1539 792 1443 c 0,10,11
 792 1386 792 1386 770 1346 c 128,-1,12
 748 1306 748 1306 712 1283 c 1,13,-1
 1183 0 l 1,14,-1
 1004 0 l 1,15,-1
 872 374 l 1,16,-1
 338 374 l 1,17,-1
 207 0 l 1,18,-1
 35 0 l 1,0,-1
607 1348 m 0,19,20
 693 1348 693 1348 693 1443 c 0,21,22
 693 1545 693 1545 607 1545 c 0,23,24
 568 1545 568 1545 544.5 1520.5 c 128,-1,25
 521 1496 521 1496 521 1443 c 0,26,27
 521 1394 521 1394 544.5 1371 c 128,-1,28
 568 1348 568 1348 607 1348 c 0,19,20
387 517 m 1,29,-1
 824 517 l 1,30,-1
 604 1128 l 1,31,-1
 387 517 l 1,29,-1
EndSplineSet
Validated: 1
EndChar

StartChar: uni0411
Encoding: 1041 1041 442
Width: 1154
Flags: W
LayerCount: 2
Fore
SplineSet
178 0 m 1,0,-1
 178 1324 l 1,1,-1
 930 1324 l 1,2,-1
 930 1176 l 1,3,-1
 343 1176 l 1,4,-1
 343 810 l 1,5,-1
 618 810 l 2,6,7
 1072 810 1072 810 1072 402 c 0,8,9
 1072 0 1072 0 602 0 c 2,10,-1
 178 0 l 1,0,-1
592 667 m 2,11,-1
 343 667 l 1,12,-1
 343 143 l 1,13,-1
 615 143 l 2,14,15
 772 143 772 143 839.5 201.5 c 128,-1,16
 907 260 907 260 907 396 c 0,17,18
 907 539 907 539 833 603 c 128,-1,19
 759 667 759 667 592 667 c 2,11,-1
EndSplineSet
Validated: 1
EndChar

StartChar: uni0414
Encoding: 1044 1044 445
Width: 1289
Flags: W
LayerCount: 2
Fore
SplineSet
13 -321 m 1,0,-1
 13 146 l 1,1,-1
 124 146 l 1,2,3
 314 382 314 382 377 1048 c 2,4,-1
 403 1324 l 1,5,-1
 1106 1324 l 1,6,-1
 1106 146 l 1,7,-1
 1229 146 l 1,8,-1
 1229 -321 l 1,9,-1
 1077 -321 l 1,10,-1
 1077 0 l 1,11,-1
 165 0 l 1,12,-1
 165 -321 l 1,13,-1
 13 -321 l 1,0,-1
530 978 m 2,14,15
 484 423 484 423 312 146 c 1,16,-1
 941 146 l 1,17,-1
 941 1178 l 1,18,-1
 547 1178 l 1,19,-1
 530 978 l 2,14,15
EndSplineSet
Validated: 1
Substitution2: "'locl' Localized Forms in Cyrillic lookup 3 subtable" uni0414.loclBGR
EndChar

StartChar: uni0416
Encoding: 1046 1046 447
Width: 1767
GlyphClass: 2
Flags: W
AnchorPoint: "Anchor-7" 884 1336 basechar 0
LayerCount: 2
Fore
SplineSet
15 0 m 1,0,-1
 356 537 l 2,1,2
 405 613 405 613 442.5 649 c 128,-1,3
 480 685 480 685 530 700 c 1,4,5
 419 743 419 743 356 905 c 2,6,-1
 298 1055 l 2,7,8
 271 1123 271 1123 237.5 1150.5 c 128,-1,9
 204 1178 204 1178 150 1178 c 0,10,11
 124 1178 124 1178 104 1175 c 2,12,-1
 76 1171 l 1,13,-1
 54 1312 l 1,14,15
 80 1317 80 1317 109 1320.5 c 128,-1,16
 138 1324 138 1324 163 1324 c 0,17,18
 268 1324 268 1324 323 1283 c 128,-1,19
 378 1242 378 1242 424 1129 c 2,20,-1
 491 967 l 2,21,22
 578 754 578 754 757 754 c 2,23,-1
 800 754 l 1,24,-1
 800 1324 l 1,25,-1
 965 1324 l 1,26,-1
 965 754 l 1,27,-1
 1014 754 l 2,28,29
 1102 754 1102 754 1164 805 c 128,-1,30
 1226 856 1226 856 1274 968 c 2,31,-1
 1344 1129 l 2,32,33
 1389 1233 1389 1233 1455 1278.5 c 128,-1,34
 1521 1324 1521 1324 1624 1324 c 0,35,36
 1682 1324 1682 1324 1716 1312 c 1,37,-1
 1698 1171 l 1,38,-1
 1677 1174 l 2,39,40
 1654 1178 1654 1178 1628 1178 c 0,41,42
 1570 1178 1570 1178 1534 1150.5 c 128,-1,43
 1498 1123 1498 1123 1469 1054 c 2,44,-1
 1408 905 l 2,45,46
 1374 821 1374 821 1334 772.5 c 128,-1,47
 1294 724 1294 724 1238 700 c 1,48,49
 1284 686 1284 686 1322 650 c 128,-1,50
 1360 614 1360 614 1408 538 c 2,51,-1
 1752 0 l 1,52,-1
 1555 0 l 1,53,-1
 1270 455 l 2,54,55
 1230 520 1230 520 1196.5 553.5 c 128,-1,56
 1163 587 1163 587 1120.5 599 c 128,-1,57
 1078 611 1078 611 1011 611 c 2,58,-1
 965 611 l 1,59,-1
 965 0 l 1,60,-1
 800 0 l 1,61,-1
 800 611 l 1,62,-1
 749 611 l 2,63,64
 685 611 685 611 643.5 598.5 c 128,-1,65
 602 586 602 586 568.5 552.5 c 128,-1,66
 535 519 535 519 495 455 c 2,67,-1
 211 0 l 1,68,-1
 15 0 l 1,0,-1
EndSplineSet
Validated: 1048577
EndChar

StartChar: uni0417
Encoding: 1047 1047 448
Width: 1092
GlyphClass: 2
Flags: W
AnchorPoint: "Anchor-7" 542 1336 basechar 0
AnchorPoint: "Anchor-1" 570 -56 basechar 0
LayerCount: 2
Fore
SplineSet
75 353 m 1,0,-1
 233 353 l 1,1,2
 252 220 252 220 323.5 164.5 c 128,-1,3
 395 109 395 109 548 109 c 0,4,5
 845 109 845 109 845 370 c 0,6,7
 845 618 845 618 559 618 c 2,8,-1
 386 618 l 1,9,-1
 386 761 l 1,10,-1
 564 761 l 2,11,12
 686 761 686 761 752 823 c 128,-1,13
 818 885 818 885 818 998 c 0,14,15
 818 1215 818 1215 551 1215 c 0,16,17
 422 1215 422 1215 352 1165.5 c 128,-1,18
 282 1116 282 1116 245 997 c 1,19,-1
 92 1021 l 1,20,21
 121 1181 121 1181 243.5 1269.5 c 128,-1,22
 366 1358 366 1358 558 1358 c 0,23,24
 754 1358 754 1358 867.5 1266 c 128,-1,25
 981 1174 981 1174 981 1016 c 0,26,27
 981 800 981 800 805 703 c 1,28,29
 1008 619 1008 619 1008 371 c 0,30,31
 1008 179 1008 179 886.5 72.5 c 128,-1,32
 765 -34 765 -34 544 -34 c 0,33,34
 327 -34 327 -34 203.5 67.5 c 128,-1,35
 80 169 80 169 75 353 c 1,0,-1
EndSplineSet
Validated: 1048577
EndChar

StartChar: uni0418
Encoding: 1048 1048 449
Width: 1292
GlyphClass: 2
Flags: W
AnchorPoint: "Anchor-7" 646 1336 basechar 0
LayerCount: 2
Fore
SplineSet
178 0 m 1,0,-1
 178 1324 l 1,1,-1
 339 1324 l 1,2,-1
 339 273 l 1,3,-1
 953 1324 l 1,4,-1
 1114 1324 l 1,5,-1
 1114 0 l 1,6,-1
 954 0 l 1,7,-1
 954 1050 l 1,8,-1
 339 0 l 1,9,-1
 178 0 l 1,0,-1
EndSplineSet
Validated: 1048577
EndChar

StartChar: uni041A
Encoding: 1050 1050 450
Width: 1171
GlyphClass: 2
Flags: W
AnchorPoint: "Anchor-7" 668 1336 basechar 0
LayerCount: 2
Fore
SplineSet
178 0 m 1,0,-1
 178 1324 l 1,1,-1
 343 1324 l 1,2,-1
 343 755 l 1,3,-1
 421 755 l 2,4,5
 513 755 513 755 569.5 799.5 c 128,-1,6
 626 844 626 844 677 958 c 2,7,-1
 756 1133 l 2,8,9
 803 1237 803 1237 863 1280.5 c 128,-1,10
 923 1324 923 1324 1019 1324 c 0,11,12
 1047 1324 1047 1324 1077 1320.5 c 128,-1,13
 1107 1317 1107 1317 1124 1312 c 1,14,-1
 1106 1171 l 1,15,-1
 1087 1174 l 2,16,17
 1062 1178 1062 1178 1044 1178 c 0,18,19
 984 1178 984 1178 948 1150 c 128,-1,20
 912 1122 912 1122 879 1048 c 2,21,-1
 808 887 l 2,22,23
 747 750 747 750 647 700 c 1,24,25
 691 686 691 686 724.5 654.5 c 128,-1,26
 758 623 758 623 800 557 c 2,27,-1
 1157 0 l 1,28,-1
 961 0 l 1,29,-1
 669 461 l 2,30,31
 630 523 630 523 599 555.5 c 128,-1,32
 568 588 568 588 533 600 c 128,-1,33
 498 612 498 612 446 612 c 2,34,-1
 343 612 l 1,35,-1
 343 0 l 1,36,-1
 178 0 l 1,0,-1
EndSplineSet
Validated: 1048577
EndChar

StartChar: uni041B
Encoding: 1051 1051 451
Width: 1319
Flags: W
LayerCount: 2
Fore
SplineSet
16 -11 m 1,0,-1
 16 137 l 1,1,-1
 39 137 l 2,2,3
 136 137 136 137 200 198.5 c 128,-1,4
 264 260 264 260 305 400 c 128,-1,5
 346 540 346 540 373 775 c 2,6,-1
 435 1324 l 1,7,-1
 1141 1324 l 1,8,-1
 1141 0 l 1,9,-1
 977 0 l 1,10,-1
 977 1178 l 1,11,-1
 583 1178 l 1,12,-1
 527 696 l 2,13,14
 498 443 498 443 440.5 287.5 c 128,-1,15
 383 132 383 132 288.5 60.5 c 128,-1,16
 194 -11 194 -11 54 -11 c 2,17,-1
 16 -11 l 1,0,-1
EndSplineSet
Validated: 1
Substitution2: "'locl' Localized Forms in Cyrillic lookup 3 subtable" uni041B.loclBGR
EndChar

StartChar: uni0423
Encoding: 1059 1059 459
Width: 1019
GlyphClass: 2
Flags: W
AnchorPoint: "Anchor-7" 522 1336 basechar 0
LayerCount: 2
Fore
SplineSet
51 2 m 1,0,-1
 84 133 l 1,1,2
 151 106 151 106 220 106 c 0,3,4
 296 106 296 106 344.5 148.5 c 128,-1,5
 393 191 393 191 439 297 c 2,6,-1
 471 371 l 1,7,-1
 25 1324 l 1,8,-1
 207 1324 l 1,9,-1
 551 548 l 1,10,-1
 843 1324 l 1,11,-1
 1019 1324 l 1,12,-1
 614 317 l 2,13,14
 562 187 562 187 507 110 c 128,-1,15
 452 33 452 33 383 -0.5 c 128,-1,16
 314 -34 314 -34 220 -34 c 0,17,18
 120 -34 120 -34 51 2 c 1,0,-1
EndSplineSet
Validated: 1048577
EndChar

StartChar: uni0426
Encoding: 1062 1062 462
Width: 1267
Flags: W
LayerCount: 2
Fore
SplineSet
178 0 m 1,0,-1
 178 1324 l 1,1,-1
 343 1324 l 1,2,-1
 343 146 l 1,3,-1
 919 146 l 1,4,-1
 919 1324 l 1,5,-1
 1084 1324 l 1,6,-1
 1084 146 l 1,7,-1
 1209 146 l 1,8,-1
 1209 -321 l 1,9,-1
 1057 -321 l 1,10,-1
 1057 0 l 1,11,-1
 178 0 l 1,0,-1
EndSplineSet
Validated: 1
EndChar

StartChar: uni0427
Encoding: 1063 1063 463
Width: 1168
GlyphClass: 2
Flags: W
AnchorPoint: "Anchor-7" 540 1336 basechar 0
LayerCount: 2
Fore
SplineSet
825 0 m 1,0,-1
 825 586 l 1,1,2
 689 526 689 526 523 526 c 0,3,4
 90 526 90 526 90 935 c 2,5,-1
 90 1324 l 1,6,-1
 255 1324 l 1,7,-1
 255 986 l 2,8,9
 255 811 255 811 322.5 740 c 128,-1,10
 390 669 390 669 556 669 c 0,11,12
 699 669 699 669 825 724 c 1,13,-1
 825 1324 l 1,14,-1
 990 1324 l 1,15,-1
 990 0 l 1,16,-1
 825 0 l 1,0,-1
EndSplineSet
Validated: 1048577
EndChar

StartChar: uni0428
Encoding: 1064 1064 464
Width: 1777
Flags: W
LayerCount: 2
Fore
SplineSet
178 0 m 1,0,-1
 178 1324 l 1,1,-1
 343 1324 l 1,2,-1
 343 146 l 1,3,-1
 806 146 l 1,4,-1
 806 1324 l 1,5,-1
 971 1324 l 1,6,-1
 971 146 l 1,7,-1
 1434 146 l 1,8,-1
 1434 1324 l 1,9,-1
 1599 1324 l 1,10,-1
 1599 0 l 1,11,-1
 178 0 l 1,0,-1
EndSplineSet
Validated: 1
EndChar

StartChar: uni0429
Encoding: 1065 1065 465
Width: 1782
Flags: W
LayerCount: 2
Fore
SplineSet
178 0 m 1,0,-1
 178 1324 l 1,1,-1
 343 1324 l 1,2,-1
 343 146 l 1,3,-1
 806 146 l 1,4,-1
 806 1324 l 1,5,-1
 971 1324 l 1,6,-1
 971 146 l 1,7,-1
 1434 146 l 1,8,-1
 1434 1324 l 1,9,-1
 1599 1324 l 1,10,-1
 1599 146 l 1,11,-1
 1724 146 l 1,12,-1
 1724 -321 l 1,13,-1
 1572 -321 l 1,14,-1
 1572 0 l 1,15,-1
 178 0 l 1,0,-1
EndSplineSet
Validated: 1
EndChar

StartChar: uni042A
Encoding: 1066 1066 466
Width: 1245
Flags: W
LayerCount: 2
Fore
SplineSet
284 0 m 1,0,-1
 284 1179 l 1,1,-1
 5 1179 l 1,2,-1
 5 1324 l 1,3,-1
 449 1324 l 1,4,-1
 449 829 l 1,5,-1
 705 829 l 2,6,7
 1175 829 1175 829 1175 414 c 0,8,9
 1175 0 1175 0 695 0 c 2,10,-1
 284 0 l 1,0,-1
695 686 m 2,11,-1
 449 686 l 1,12,-1
 449 143 l 1,13,-1
 704 143 l 2,14,15
 868 143 868 143 939.5 204.5 c 128,-1,16
 1011 266 1011 266 1011 408 c 0,17,18
 1011 555 1011 555 936.5 620.5 c 128,-1,19
 862 686 862 686 695 686 c 2,11,-1
EndSplineSet
Validated: 1
EndChar

StartChar: uni042B
Encoding: 1067 1067 467
Width: 1599
GlyphClass: 2
Flags: W
AnchorPoint: "Anchor-7" 800 1336 basechar 0
LayerCount: 2
Fore
SplineSet
1256 0 m 1,0,-1
 1256 1324 l 1,1,-1
 1421 1324 l 1,2,-1
 1421 0 l 1,3,-1
 1256 0 l 1,0,-1
178 0 m 1,4,-1
 178 1324 l 1,5,-1
 343 1324 l 1,6,-1
 343 829 l 1,7,-1
 599 829 l 2,8,9
 1069 829 1069 829 1069 414 c 0,10,11
 1069 0 1069 0 589 0 c 2,12,-1
 178 0 l 1,4,-1
589 686 m 2,13,-1
 343 686 l 1,14,-1
 343 143 l 1,15,-1
 598 143 l 2,16,17
 762 143 762 143 833.5 204.5 c 128,-1,18
 905 266 905 266 905 408 c 0,19,20
 905 555 905 555 830.5 620.5 c 128,-1,21
 756 686 756 686 589 686 c 2,13,-1
EndSplineSet
Validated: 1048577
EndChar

StartChar: uni042C
Encoding: 1068 1068 468
Width: 1159
Flags: W
LayerCount: 2
Fore
SplineSet
178 0 m 1,0,-1
 178 1324 l 1,1,-1
 343 1324 l 1,2,-1
 343 829 l 1,3,-1
 613 829 l 2,4,5
 1087 829 1087 829 1087 414 c 0,6,7
 1087 0 1087 0 603 0 c 2,8,-1
 178 0 l 1,0,-1
603 686 m 2,9,-1
 343 686 l 1,10,-1
 343 143 l 1,11,-1
 612 143 l 2,12,13
 779 143 779 143 851 204.5 c 128,-1,14
 923 266 923 266 923 408 c 0,15,16
 923 556 923 556 848 621 c 128,-1,17
 773 686 773 686 603 686 c 2,9,-1
EndSplineSet
Validated: 1
EndChar

StartChar: uni042D
Encoding: 1069 1069 469
Width: 1269
GlyphClass: 2
Flags: W
AnchorPoint: "Anchor-7" 620 1336 basechar 0
LayerCount: 2
Fore
SplineSet
86 365 m 1,0,-1
 259 365 l 1,1,2
 285 243 285 243 370.5 176 c 128,-1,3
 456 109 456 109 589 109 c 0,4,5
 772 109 772 109 871.5 236 c 128,-1,6
 971 363 971 363 982 609 c 1,7,-1
 433 609 l 1,8,-1
 433 756 l 1,9,-1
 981 756 l 1,10,11
 966 979 966 979 868.5 1097 c 128,-1,12
 771 1215 771 1215 599 1215 c 0,13,14
 341 1215 341 1215 270 963 c 1,15,-1
 112 999 l 1,16,17
 156 1169 156 1169 286 1263.5 c 128,-1,18
 416 1358 416 1358 605 1358 c 0,19,20
 868 1358 868 1358 1010.5 1180 c 128,-1,21
 1153 1002 1153 1002 1153 674 c 0,22,23
 1153 337 1153 337 1003.5 151.5 c 128,-1,24
 854 -34 854 -34 581 -34 c 0,25,26
 376 -34 376 -34 243.5 73.5 c 128,-1,27
 111 181 111 181 86 365 c 1,0,-1
EndSplineSet
Validated: 1048577
EndChar

StartChar: uni042E
Encoding: 1070 1070 470
Width: 1849
Flags: W
LayerCount: 2
Fore
SplineSet
178 0 m 1,0,-1
 178 1324 l 1,1,-1
 343 1324 l 1,2,-1
 343 757 l 1,3,-1
 616 757 l 1,4,5
 638 1043 638 1043 783 1200.5 c 128,-1,6
 928 1358 928 1358 1173 1358 c 0,7,8
 1438 1358 1438 1358 1585.5 1174.5 c 128,-1,9
 1733 991 1733 991 1733 662 c 256,10,11
 1733 333 1733 333 1585.5 149.5 c 128,-1,12
 1438 -34 1438 -34 1173 -34 c 0,13,14
 919 -34 919 -34 772.5 135.5 c 128,-1,15
 626 305 626 305 614 610 c 1,16,-1
 343 610 l 1,17,-1
 343 0 l 1,18,-1
 178 0 l 1,0,-1
1173 112 m 0,19,20
 1361 112 1361 112 1461 254.5 c 128,-1,21
 1561 397 1561 397 1561 662 c 0,22,23
 1561 928 1561 928 1461 1070 c 128,-1,24
 1361 1212 1361 1212 1173 1212 c 0,25,26
 986 1212 986 1212 885.5 1070 c 128,-1,27
 785 928 785 928 785 662 c 0,28,29
 785 397 785 397 885.5 254.5 c 128,-1,30
 986 112 986 112 1173 112 c 0,19,20
EndSplineSet
Validated: 1
EndChar

StartChar: uni042F
Encoding: 1071 1071 471
Width: 1203
Flags: W
LayerCount: 2
Fore
SplineSet
51 0 m 1,0,-1
 245 417 l 2,1,2
 277 485 277 485 311.5 525 c 128,-1,3
 346 565 346 565 396 588 c 1,4,5
 268 631 268 631 207.5 715.5 c 128,-1,6
 147 800 147 800 147 936 c 0,7,8
 147 1324 147 1324 618 1324 c 2,9,-1
 1025 1324 l 1,10,-1
 1025 0 l 1,11,-1
 860 0 l 1,12,-1
 860 553 l 1,13,-1
 662 553 l 2,14,15
 568 553 568 553 508 509 c 128,-1,16
 448 465 448 465 402 364 c 2,17,-1
 238 0 l 1,18,-1
 51 0 l 1,0,-1
597 696 m 2,19,-1
 860 696 l 1,20,-1
 860 1185 l 1,21,-1
 618 1185 l 2,22,23
 455 1185 455 1185 385.5 1128.5 c 128,-1,24
 316 1072 316 1072 316 940 c 0,25,26
 316 815 316 815 384 755.5 c 128,-1,27
 452 696 452 696 597 696 c 2,19,-1
EndSplineSet
Validated: 1
EndChar

StartChar: uni0430
Encoding: 1072 1072 472
Width: 1020
GlyphClass: 2
Flags: W
AnchorPoint: "Anchor-2" 483 1021 basechar 0
LayerCount: 2
Fore
SplineSet
719 0 m 1,0,-1
 719 132 l 1,1,2
 597 -23 597 -23 404 -23 c 0,3,4
 259 -23 259 -23 177.5 53.5 c 128,-1,5
 96 130 96 130 96 266 c 0,6,7
 96 429 96 429 208.5 509 c 128,-1,8
 321 589 321 589 564 599 c 2,9,-1
 716 606 l 1,10,-1
 716 644 l 2,11,12
 716 768 716 768 668 823 c 128,-1,13
 620 878 620 878 513 878 c 0,14,15
 318 878 318 878 284 730 c 1,16,-1
 142 746 l 1,17,18
 190 1001 190 1001 518 1001 c 0,19,20
 698 1001 698 1001 784 912 c 128,-1,21
 870 823 870 823 870 636 c 2,22,-1
 870 0 l 1,23,-1
 719 0 l 1,0,-1
255 271 m 0,24,25
 255 192 255 192 302.5 149 c 128,-1,26
 350 106 350 106 438 106 c 0,27,28
 557 106 557 106 634 172 c 0,29,30
 716 244 716 244 716 374 c 2,31,-1
 716 492 l 1,32,-1
 576 487 l 2,33,34
 407 480 407 480 331 429 c 128,-1,35
 255 378 255 378 255 271 c 0,24,25
EndSplineSet
Validated: 1048577
EndChar

StartChar: uni0431
Encoding: 1073 1073 473
Width: 1066
Flags: W
LayerCount: 2
Fore
SplineSet
978 453 m 0,0,1
 978 229 978 229 863.5 99.5 c 128,-1,2
 749 -30 749 -30 552 -30 c 0,3,4
 336 -30 336 -30 223 117.5 c 128,-1,5
 110 265 110 265 110 547 c 0,6,7
 110 767 110 767 149.5 904.5 c 128,-1,8
 189 1042 189 1042 280 1137 c 0,9,10
 410 1272 410 1272 726 1329 c 2,11,-1
 859 1353 l 1,12,-1
 877 1219 l 1,13,-1
 726 1191 l 2,14,15
 479 1145 479 1145 381 1043 c 0,16,17
 280 938 280 938 262 722 c 1,18,19
 376 913 376 913 593 913 c 0,20,21
 772 913 772 913 875 789.5 c 128,-1,22
 978 666 978 666 978 453 c 0,0,1
554 99 m 0,23,24
 681 99 681 99 748.5 188.5 c 128,-1,25
 816 278 816 278 816 446 c 0,26,27
 816 784 816 784 567 784 c 0,28,29
 455 784 455 784 377 712 c 0,30,31
 279 622 279 622 279 463 c 0,32,33
 279 288 279 288 350.5 193.5 c 128,-1,34
 422 99 422 99 554 99 c 0,23,24
EndSplineSet
Validated: 1
Substitution2: "'locl' Localized Forms in Cyrillic lookup 3 subtable" uni0431.loclMKDSRB
Substitution2: "'locl' Localized Forms in Cyrillic lookup 2 subtable" uni0431.loclMKDSRB
EndChar

StartChar: uni0432
Encoding: 1074 1074 474
Width: 1006
Flags: W
LayerCount: 2
Fore
SplineSet
154 0 m 1,0,-1
 154 971 l 1,1,-1
 551 971 l 2,2,3
 905 971 905 971 905 722 c 0,4,5
 905 563 905 563 771 505 c 1,6,7
 848 478 848 478 890.5 419 c 128,-1,8
 933 360 933 360 933 278 c 0,9,10
 933 136 933 136 842 68 c 128,-1,11
 751 0 751 0 560 0 c 2,12,-1
 154 0 l 1,0,-1
549 845 m 2,13,-1
 310 845 l 1,14,-1
 310 556 l 1,15,-1
 570 556 l 2,16,17
 748 556 748 556 748 700 c 0,18,19
 748 775 748 775 700 810 c 128,-1,20
 652 845 652 845 549 845 c 2,13,-1
562 438 m 2,21,-1
 310 438 l 1,22,-1
 310 126 l 1,23,-1
 560 126 l 2,24,25
 673 126 673 126 723.5 162.5 c 128,-1,26
 774 199 774 199 774 280 c 0,27,28
 774 438 774 438 562 438 c 2,21,-1
EndSplineSet
Validated: 1
Substitution2: "'locl' Localized Forms in Cyrillic lookup 3 subtable" uni0432.loclBGR
EndChar

StartChar: uni0433
Encoding: 1075 1075 475
Width: 803
GlyphClass: 2
Flags: W
AnchorPoint: "Anchor-2" 461 1021 basechar 0
LayerCount: 2
Fore
SplineSet
154 0 m 1,0,-1
 154 971 l 1,1,-1
 768 971 l 1,2,-1
 768 835 l 1,3,-1
 310 835 l 1,4,-1
 310 0 l 1,5,-1
 154 0 l 1,0,-1
EndSplineSet
Validated: 1048577
Substitution2: "'locl' Localized Forms in Cyrillic lookup 3 subtable" uni0433.loclBGR
EndChar

StartChar: uni0434
Encoding: 1076 1076 476
Width: 1060
Flags: W
LayerCount: 2
Fore
SplineSet
39 -260 m 1,0,-1
 39 132 l 1,1,-1
 129 132 l 1,2,3
 196 199 196 199 237.5 355.5 c 128,-1,4
 279 512 279 512 301 778 c 2,5,-1
 317 971 l 1,6,-1
 900 971 l 1,7,-1
 900 132 l 1,8,-1
 1008 132 l 1,9,-1
 1008 -260 l 1,10,-1
 868 -260 l 1,11,-1
 868 0 l 1,12,-1
 179 0 l 1,13,-1
 179 -260 l 1,14,-1
 39 -260 l 1,0,-1
439 692 m 2,15,16
 400 277 400 277 299 132 c 1,17,-1
 744 132 l 1,18,-1
 744 843 l 1,19,-1
 453 843 l 1,20,-1
 439 692 l 2,15,16
EndSplineSet
Validated: 1
Substitution2: "'locl' Localized Forms in Cyrillic lookup 3 subtable" uni0434.loclBGR
EndChar

StartChar: uni0435
Encoding: 1077 1077 477
Width: 1016
GlyphClass: 2
Flags: W
AnchorPoint: "Anchor-2" 510 1021 basechar 0
LayerCount: 2
Fore
SplineSet
919 268 m 1,0,1
 895 123 895 123 793.5 46.5 c 128,-1,2
 692 -30 692 -30 524 -30 c 0,3,4
 319 -30 319 -30 203.5 105 c 128,-1,5
 88 240 88 240 88 478 c 0,6,7
 88 637 88 637 142 754.5 c 128,-1,8
 196 872 196 872 294 936.5 c 128,-1,9
 392 1001 392 1001 524 1001 c 0,10,11
 718 1001 718 1001 825 877 c 128,-1,12
 932 753 932 753 932 527 c 2,13,-1
 932 446 l 1,14,-1
 248 446 l 1,15,16
 250 285 250 285 323.5 192 c 128,-1,17
 397 99 397 99 524 99 c 0,18,19
 730 99 730 99 769 268 c 1,20,-1
 919 268 l 1,0,1
522 880 m 0,21,22
 398 880 398 880 325.5 796 c 128,-1,23
 253 712 253 712 248 564 c 1,24,-1
 778 564 l 1,25,-1
 778 565 l 2,26,27
 778 718 778 718 712.5 799 c 128,-1,28
 647 880 647 880 522 880 c 0,21,22
EndSplineSet
Validated: 1048577
EndChar

StartChar: uni0436
Encoding: 1078 1078 478
Width: 1368
GlyphClass: 2
Flags: W
AnchorPoint: "Anchor-2" 684 1021 basechar 0
LayerCount: 2
Fore
SplineSet
20 0 m 1,0,-1
 265 381 l 2,1,2
 321 469 321 469 395 499 c 1,3,4
 348 521 348 521 321.5 550.5 c 128,-1,5
 295 580 295 580 271 636 c 2,6,-1
 218 761 l 2,7,8
 196 811 196 811 176 828 c 128,-1,9
 156 845 156 845 116 845 c 0,10,11
 88 845 88 845 60 838 c 1,12,-1
 47 960 l 1,13,14
 80 971 80 971 124 971 c 0,15,16
 214 971 214 971 260.5 936.5 c 128,-1,17
 307 902 307 902 348 801 c 0,18,19
 359 776 359 776 369.5 750 c 128,-1,20
 380 724 380 724 392 698 c 0,21,22
 430 619 430 619 468.5 584 c 128,-1,23
 507 549 507 549 571 549 c 2,24,-1
 610 549 l 1,25,-1
 610 971 l 1,26,-1
 759 971 l 1,27,-1
 759 549 l 1,28,-1
 797 549 l 2,29,30
 859 549 859 549 897 581 c 128,-1,31
 935 613 935 613 975 698 c 0,32,33
 987 724 987 724 998.5 750 c 128,-1,34
 1010 776 1010 776 1023 801 c 0,35,36
 1072 898 1072 898 1117.5 934.5 c 128,-1,37
 1163 971 1163 971 1247 971 c 0,38,39
 1288 971 1288 971 1324 960 c 1,40,-1
 1310 838 l 1,41,42
 1284 845 1284 845 1255 845 c 0,43,44
 1210 845 1210 845 1187.5 823 c 128,-1,45
 1165 801 1165 801 1131 724 c 2,46,-1
 1092 636 l 2,47,48
 1047 535 1047 535 976 501 c 1,49,50
 1018 485 1018 485 1051.5 450 c 128,-1,51
 1085 415 1085 415 1129 345 c 2,52,-1
 1348 0 l 1,53,-1
 1174 0 l 1,54,-1
 963 334 l 2,55,56
 927 391 927 391 895.5 411 c 128,-1,57
 864 431 864 431 810 431 c 2,58,-1
 759 431 l 1,59,-1
 759 0 l 1,60,-1
 610 0 l 1,61,-1
 610 431 l 1,62,-1
 557 431 l 2,63,64
 496 431 496 431 462 406.5 c 128,-1,65
 428 382 428 382 377 301 c 2,66,-1
 189 0 l 1,67,-1
 20 0 l 1,0,-1
EndSplineSet
Validated: 1048577
Substitution2: "'locl' Localized Forms in Cyrillic lookup 3 subtable" uni0436.loclBGR
EndChar

StartChar: uni0437
Encoding: 1079 1079 479
Width: 925
GlyphClass: 2
Flags: W
AnchorPoint: "Anchor-2" 452 1021 basechar 0
AnchorPoint: "Anchor-0" 468 -55 basechar 0
LayerCount: 2
Fore
SplineSet
56 283 m 1,0,-1
 207 283 l 1,1,2
 221 186 221 186 280.5 142.5 c 128,-1,3
 340 99 340 99 458 99 c 0,4,5
 685 99 685 99 685 272 c 0,6,7
 685 442 685 442 484 442 c 2,8,-1
 299 442 l 1,9,-1
 299 560 l 1,10,-1
 491 560 l 2,11,12
 574 560 574 560 619.5 601 c 128,-1,13
 665 642 665 642 665 718 c 0,14,15
 665 872 665 872 457 872 c 0,16,17
 348 872 348 872 294.5 836 c 128,-1,18
 241 800 241 800 212 708 c 1,19,-1
 70 734 l 1,20,21
 135 1001 135 1001 462 1001 c 0,22,23
 632 1001 632 1001 727.5 929 c 128,-1,24
 823 857 823 857 823 727 c 0,25,26
 823 656 823 656 783 598 c 128,-1,27
 743 540 743 540 675 511 c 1,28,29
 847 451 847 451 847 271 c 0,30,31
 847 129 847 129 743 49.5 c 128,-1,32
 639 -30 639 -30 451 -30 c 0,33,34
 76 -30 76 -30 56 283 c 1,0,-1
EndSplineSet
Validated: 1048577
Substitution2: "'locl' Localized Forms in Cyrillic lookup 3 subtable" uni0437.loclBGR
EndChar

StartChar: uni0438
Encoding: 1080 1080 480
Width: 1068
GlyphClass: 2
Flags: W
AnchorPoint: "Anchor-2" 534 1021 basechar 0
LayerCount: 2
Fore
SplineSet
154 0 m 1,0,-1
 154 971 l 1,1,-1
 300 971 l 1,2,-1
 300 233 l 1,3,-1
 768 971 l 1,4,-1
 914 971 l 1,5,-1
 914 0 l 1,6,-1
 768 0 l 1,7,-1
 768 738 l 1,8,-1
 300 0 l 1,9,-1
 154 0 l 1,0,-1
EndSplineSet
Validated: 1048577
Substitution2: "'locl' Localized Forms in Cyrillic lookup 3 subtable" uni0438.loclBGR
EndChar

StartChar: uni043A
Encoding: 1082 1082 481
Width: 944
GlyphClass: 2
Flags: W
AnchorPoint: "Anchor-2" 539 1021 basechar 0
LayerCount: 2
Fore
SplineSet
154 0 m 1,0,-1
 154 971 l 1,1,-1
 308 971 l 1,2,-1
 308 550 l 1,3,-1
 370 550 l 2,4,5
 435 550 435 550 473.5 581 c 128,-1,6
 512 612 512 612 550 697 c 0,7,8
 563 726 563 726 576 754.5 c 128,-1,9
 589 783 589 783 602 813 c 0,10,11
 643 902 643 902 690.5 936.5 c 128,-1,12
 738 971 738 971 823 971 c 0,13,14
 870 971 870 971 907 960 c 1,15,-1
 891 837 l 1,16,17
 869 845 869 845 835 845 c 0,18,19
 794 845 794 845 771.5 826 c 128,-1,20
 749 807 749 807 726 754 c 2,21,-1
 675 636 l 2,22,23
 632 536 632 536 557 500 c 1,24,25
 625 471 625 471 682 381 c 2,26,-1
 924 0 l 1,27,-1
 744 0 l 1,28,-1
 534 336 l 2,29,30
 500 391 500 391 467 411.5 c 128,-1,31
 434 432 434 432 381 432 c 2,32,-1
 308 432 l 1,33,-1
 308 0 l 1,34,-1
 154 0 l 1,0,-1
EndSplineSet
Validated: 1048577
Substitution2: "'locl' Localized Forms in Cyrillic lookup 3 subtable" uni043A.loclBGR
EndChar

StartChar: uni043B
Encoding: 1083 1083 482
Width: 1054
Flags: W
LayerCount: 2
Fore
SplineSet
10 -9 m 1,0,-1
 10 121 l 1,1,-1
 27 121 l 2,2,3
 97 121 97 121 141.5 162.5 c 128,-1,4
 186 204 186 204 214 301 c 128,-1,5
 242 398 242 398 259 563 c 2,6,-1
 302 971 l 1,7,-1
 900 971 l 1,8,-1
 900 0 l 1,9,-1
 744 0 l 1,10,-1
 744 842 l 1,11,-1
 443 842 l 1,12,-1
 405 505 l 2,13,14
 384 316 384 316 341.5 203 c 128,-1,15
 299 90 299 90 226.5 40.5 c 128,-1,16
 154 -9 154 -9 41 -9 c 2,17,-1
 10 -9 l 1,0,-1
EndSplineSet
Validated: 1
Substitution2: "'locl' Localized Forms in Cyrillic lookup 3 subtable" uni043B.loclBGR
EndChar

StartChar: uni043C
Encoding: 1084 1084 483
Width: 1308
Flags: W
LayerCount: 2
Fore
SplineSet
154 0 m 1,0,-1
 154 971 l 1,1,-1
 343 971 l 1,2,-1
 654 167 l 1,3,-1
 974 971 l 1,4,-1
 1154 971 l 1,5,-1
 1154 0 l 1,6,-1
 1009 0 l 1,7,-1
 1009 737 l 1,8,-1
 712 0 l 1,9,-1
 584 0 l 1,10,-1
 299 733 l 1,11,-1
 299 0 l 1,12,-1
 154 0 l 1,0,-1
EndSplineSet
Validated: 1
EndChar

StartChar: uni043D
Encoding: 1085 1085 484
Width: 1101
Flags: W
LayerCount: 2
Fore
SplineSet
154 0 m 1,0,-1
 154 971 l 1,1,-1
 310 971 l 1,2,-1
 310 571 l 1,3,-1
 791 571 l 1,4,-1
 791 971 l 1,5,-1
 947 971 l 1,6,-1
 947 0 l 1,7,-1
 791 0 l 1,8,-1
 791 443 l 1,9,-1
 310 443 l 1,10,-1
 310 0 l 1,11,-1
 154 0 l 1,0,-1
EndSplineSet
Validated: 1
EndChar

StartChar: uni043E
Encoding: 1086 1086 485
Width: 1062
GlyphClass: 2
Flags: W
AnchorPoint: "Anchor-2" 531 1021 basechar 0
LayerCount: 2
Fore
SplineSet
531 -30 m 256,0,1
 397 -30 397 -30 297.5 34 c 128,-1,2
 198 98 198 98 143 214 c 128,-1,3
 88 330 88 330 88 486 c 256,4,5
 88 642 88 642 143 757.5 c 128,-1,6
 198 873 198 873 297.5 937 c 128,-1,7
 397 1001 397 1001 531 1001 c 256,8,9
 665 1001 665 1001 764.5 937 c 128,-1,10
 864 873 864 873 919 757.5 c 128,-1,11
 974 642 974 642 974 485 c 0,12,13
 974 329 974 329 919 213.5 c 128,-1,14
 864 98 864 98 764.5 34 c 128,-1,15
 665 -30 665 -30 531 -30 c 256,0,1
531 99 m 256,16,17
 667 99 667 99 739.5 198.5 c 128,-1,18
 812 298 812 298 812 485 c 0,19,20
 812 673 812 673 739.5 772.5 c 128,-1,21
 667 872 667 872 531 872 c 256,22,23
 395 872 395 872 322.5 772.5 c 128,-1,24
 250 673 250 673 250 486 c 256,25,26
 250 299 250 299 322.5 199 c 128,-1,27
 395 99 395 99 531 99 c 256,16,17
EndSplineSet
Validated: 1048577
EndChar

StartChar: uni043F
Encoding: 1087 1087 486
Width: 1076
Flags: W
LayerCount: 2
Fore
SplineSet
154 0 m 1,0,-1
 154 971 l 1,1,-1
 922 971 l 1,2,-1
 922 0 l 1,3,-1
 766 0 l 1,4,-1
 766 843 l 1,5,-1
 310 843 l 1,6,-1
 310 0 l 1,7,-1
 154 0 l 1,0,-1
EndSplineSet
Validated: 1
Substitution2: "'locl' Localized Forms in Cyrillic lookup 3 subtable" uni043F.loclBGR
EndChar

StartChar: uni0440
Encoding: 1088 1088 487
Width: 1088
Flags: W
LayerCount: 2
Fore
SplineSet
154 -363 m 1,0,-1
 154 971 l 1,1,-1
 308 971 l 1,2,-1
 308 836 l 1,3,4
 425 1001 425 1001 614 1001 c 0,5,6
 799 1001 799 1001 899.5 868.5 c 128,-1,7
 1000 736 1000 736 1000 492 c 0,8,9
 1000 251 1000 251 891.5 110.5 c 128,-1,10
 783 -30 783 -30 596 -30 c 0,11,12
 413 -30 413 -30 310 121 c 1,13,-1
 310 -363 l 1,14,-1
 154 -363 l 1,0,-1
308 527 m 2,15,-1
 308 460 l 2,16,17
 308 308 308 308 358 219 c 0,18,19
 425 99 425 99 574 99 c 0,20,21
 703 99 703 99 770.5 199.5 c 128,-1,22
 838 300 838 300 838 491 c 0,23,24
 838 676 838 676 772.5 774 c 128,-1,25
 707 872 707 872 583 872 c 0,26,27
 466 872 466 872 393 794 c 0,28,29
 308 703 308 703 308 527 c 2,15,-1
EndSplineSet
Validated: 1
EndChar

StartChar: uni0441
Encoding: 1089 1089 488
Width: 951
GlyphClass: 2
Flags: W
AnchorPoint: "Anchor-0" 511 -55 basechar 0
LayerCount: 2
Fore
SplineSet
747 304 m 1,0,-1
 906 304 l 1,1,2
 882 144 882 144 780 57 c 128,-1,3
 678 -30 678 -30 513 -30 c 0,4,5
 309 -30 309 -30 198.5 103.5 c 128,-1,6
 88 237 88 237 88 482 c 0,7,8
 88 721 88 721 205 861 c 128,-1,9
 322 1001 322 1001 523 1001 c 0,10,11
 840 1001 840 1001 890 706 c 1,12,-1
 738 666 l 1,13,14
 716 774 716 774 664 823 c 128,-1,15
 612 872 612 872 518 872 c 0,16,17
 390 872 390 872 320 772 c 128,-1,18
 250 672 250 672 250 487 c 0,19,20
 250 298 250 298 318 198.5 c 128,-1,21
 386 99 386 99 516 99 c 0,22,23
 712 99 712 99 747 304 c 1,0,-1
EndSplineSet
Validated: 1048577
EndChar

StartChar: uni0442
Encoding: 1090 1090 489
Width: 808
Flags: W
LayerCount: 2
Fore
SplineSet
326 0 m 1,0,-1
 326 841 l 1,1,-1
 10 841 l 1,2,-1
 10 971 l 1,3,-1
 798 971 l 1,4,-1
 798 841 l 1,5,-1
 482 841 l 1,6,-1
 482 0 l 1,7,-1
 326 0 l 1,0,-1
EndSplineSet
Validated: 1
Substitution2: "'locl' Localized Forms in Cyrillic lookup 3 subtable" uni0442.loclBGR
EndChar

StartChar: uni0443
Encoding: 1091 1091 490
Width: 922
GlyphClass: 2
Flags: W
AnchorPoint: "Anchor-2" 465 1021 basechar 0
LayerCount: 2
Fore
SplineSet
72 -358 m 1,0,-1
 102 -237 l 1,1,2
 154 -257 154 -257 206 -257 c 0,3,4
 260 -257 260 -257 291.5 -224.5 c 128,-1,5
 323 -192 323 -192 357 -100 c 2,6,-1
 402 20 l 1,7,-1
 14 971 l 1,8,-1
 195 971 l 1,9,-1
 482 220 l 1,10,-1
 741 971 l 1,11,-1
 915 971 l 1,12,-1
 509 -113 l 2,13,14
 451 -267 451 -267 390 -326 c 128,-1,15
 329 -385 329 -385 227 -385 c 0,16,17
 145 -385 145 -385 72 -358 c 1,0,-1
EndSplineSet
Validated: 1048577
EndChar

StartChar: uni0444
Encoding: 1092 1092 491
Width: 1308
Flags: W
LayerCount: 2
Fore
SplineSet
82 480 m 256,0,1
 82 692 82 692 211.5 816.5 c 128,-1,2
 341 941 341 941 578 958 c 1,3,-1
 578 1313 l 1,4,-1
 730 1313 l 1,5,-1
 730 958 l 1,6,7
 967 941 967 941 1096.5 816.5 c 128,-1,8
 1226 692 1226 692 1226 480 c 256,9,10
 1226 268 1226 268 1096 144 c 128,-1,11
 966 20 966 20 730 3 c 1,12,-1
 730 -344 l 1,13,-1
 578 -344 l 1,14,-1
 578 3 l 1,15,16
 342 20 342 20 212 144 c 128,-1,17
 82 268 82 268 82 480 c 256,0,1
244 480 m 0,18,19
 244 163 244 163 578 131 c 1,20,-1
 578 830 l 1,21,22
 244 798 244 798 244 480 c 0,18,19
1064 480 m 0,23,24
 1064 798 1064 798 730 830 c 1,25,-1
 730 131 l 1,26,27
 1064 163 1064 163 1064 480 c 0,23,24
EndSplineSet
Validated: 1
Substitution2: "'locl' Localized Forms in Cyrillic lookup 3 subtable" uni0444.loclBGR
EndChar

StartChar: uni0445
Encoding: 1093 1093 492
Width: 924
Flags: W
LayerCount: 2
Fore
SplineSet
33 0 m 1,0,-1
 375 512 l 1,1,-1
 64 971 l 1,2,-1
 247 971 l 1,3,-1
 465 626 l 1,4,-1
 692 971 l 1,5,-1
 859 971 l 1,6,-1
 554 512 l 1,7,-1
 891 0 l 1,8,-1
 710 0 l 1,9,-1
 458 397 l 1,10,-1
 205 0 l 1,11,-1
 33 0 l 1,0,-1
EndSplineSet
Validated: 1
EndChar

StartChar: uni0446
Encoding: 1094 1094 493
Width: 1057
Flags: W
LayerCount: 2
Fore
SplineSet
154 0 m 1,0,-1
 154 971 l 1,1,-1
 310 971 l 1,2,-1
 310 132 l 1,3,-1
 741 132 l 1,4,-1
 741 971 l 1,5,-1
 897 971 l 1,6,-1
 897 132 l 1,7,-1
 1004 132 l 1,8,-1
 1004 -260 l 1,9,-1
 864 -260 l 1,10,-1
 864 0 l 1,11,-1
 154 0 l 1,0,-1
EndSplineSet
Validated: 1
Substitution2: "'locl' Localized Forms in Cyrillic lookup 3 subtable" uni0446.loclBGR
EndChar

StartChar: uni0447
Encoding: 1095 1095 494
Width: 967
GlyphClass: 2
Flags: W
AnchorPoint: "Anchor-2" 446 1021 basechar 0
LayerCount: 2
Fore
SplineSet
657 0 m 1,0,-1
 657 393 l 1,1,2
 553 357 553 357 431 357 c 0,3,4
 80 357 80 357 80 689 c 2,5,-1
 80 971 l 1,6,-1
 236 971 l 1,7,-1
 236 729 l 2,8,9
 236 600 236 600 288.5 544.5 c 128,-1,10
 341 489 341 489 462 489 c 0,11,12
 575 489 575 489 657 525 c 1,13,-1
 657 971 l 1,14,-1
 813 971 l 1,15,-1
 813 0 l 1,16,-1
 657 0 l 1,0,-1
EndSplineSet
Validated: 1048577
EndChar

StartChar: uni0448
Encoding: 1096 1096 495
Width: 1489
Flags: W
LayerCount: 2
Fore
SplineSet
154 0 m 1,0,-1
 154 971 l 1,1,-1
 310 971 l 1,2,-1
 310 132 l 1,3,-1
 668 132 l 1,4,-1
 668 971 l 1,5,-1
 824 971 l 1,6,-1
 824 132 l 1,7,-1
 1179 132 l 1,8,-1
 1179 971 l 1,9,-1
 1335 971 l 1,10,-1
 1335 0 l 1,11,-1
 154 0 l 1,0,-1
EndSplineSet
Validated: 1
Substitution2: "'locl' Localized Forms in Cyrillic lookup 3 subtable" uni0448.loclBGR
EndChar

StartChar: uni0449
Encoding: 1097 1097 496
Width: 1495
Flags: W
LayerCount: 2
Fore
SplineSet
154 0 m 1,0,-1
 154 971 l 1,1,-1
 310 971 l 1,2,-1
 310 132 l 1,3,-1
 668 132 l 1,4,-1
 668 971 l 1,5,-1
 824 971 l 1,6,-1
 824 132 l 1,7,-1
 1179 132 l 1,8,-1
 1179 971 l 1,9,-1
 1335 971 l 1,10,-1
 1335 132 l 1,11,-1
 1444 132 l 1,12,-1
 1444 -260 l 1,13,-1
 1304 -260 l 1,14,-1
 1304 0 l 1,15,-1
 154 0 l 1,0,-1
EndSplineSet
Validated: 1
Substitution2: "'locl' Localized Forms in Cyrillic lookup 3 subtable" uni0449.loclBGR
EndChar

StartChar: uni044A
Encoding: 1098 1098 497
Width: 1037
Flags: W
LayerCount: 2
Fore
SplineSet
218 0 m 1,0,-1
 218 843 l 1,1,-1
 10 843 l 1,2,-1
 10 971 l 1,3,-1
 374 971 l 1,4,-1
 374 613 l 1,5,-1
 644 613 l 2,6,7
 972 613 972 613 972 311 c 0,8,9
 972 161 972 161 883 80.5 c 128,-1,10
 794 0 794 0 627 0 c 2,11,-1
 218 0 l 1,0,-1
621 485 m 2,12,-1
 374 485 l 1,13,-1
 374 128 l 1,14,-1
 630 128 l 2,15,16
 812 128 812 128 812 310 c 0,17,18
 812 402 812 402 767 443.5 c 128,-1,19
 722 485 722 485 621 485 c 2,12,-1
EndSplineSet
Validated: 1
Substitution2: "'locl' Localized Forms in Cyrillic lookup 3 subtable" uni044A.loclBGR
EndChar

StartChar: uni044B
Encoding: 1099 1099 498
Width: 1374
GlyphClass: 2
Flags: W
AnchorPoint: "Anchor-2" 687 1021 basechar 0
LayerCount: 2
Fore
SplineSet
1064 0 m 1,0,-1
 1064 971 l 1,1,-1
 1220 971 l 1,2,-1
 1220 0 l 1,3,-1
 1064 0 l 1,0,-1
154 0 m 1,4,-1
 154 971 l 1,5,-1
 310 971 l 1,6,-1
 310 613 l 1,7,-1
 580 613 l 2,8,9
 908 613 908 613 908 311 c 0,10,11
 908 161 908 161 819 80.5 c 128,-1,12
 730 0 730 0 563 0 c 2,13,-1
 154 0 l 1,4,-1
557 485 m 2,14,-1
 310 485 l 1,15,-1
 310 128 l 1,16,-1
 566 128 l 2,17,18
 748 128 748 128 748 310 c 0,19,20
 748 402 748 402 703 443.5 c 128,-1,21
 658 485 658 485 557 485 c 2,14,-1
EndSplineSet
Validated: 1048577
EndChar

StartChar: uni044C
Encoding: 1100 1100 499
Width: 992
Flags: W
LayerCount: 2
Fore
SplineSet
154 0 m 1,0,-1
 154 971 l 1,1,-1
 310 971 l 1,2,-1
 310 613 l 1,3,-1
 586 613 l 2,4,5
 927 613 927 613 927 311 c 0,6,7
 927 160 927 160 835.5 80 c 128,-1,8
 744 0 744 0 569 0 c 2,9,-1
 154 0 l 1,0,-1
563 485 m 2,10,-1
 310 485 l 1,11,-1
 310 128 l 1,12,-1
 572 128 l 2,13,14
 767 128 767 128 767 310 c 0,15,16
 767 403 767 403 719.5 444 c 128,-1,17
 672 485 672 485 563 485 c 2,10,-1
EndSplineSet
Validated: 1
Substitution2: "'locl' Localized Forms in Cyrillic lookup 3 subtable" uni044C.loclBGR
EndChar

StartChar: uni044D
Encoding: 1101 1101 500
Width: 976
GlyphClass: 2
Flags: W
AnchorPoint: "Anchor-2" 482 1021 basechar 0
LayerCount: 2
Fore
SplineSet
75 291 m 1,0,-1
 223 291 l 1,1,2
 255 99 255 99 474 99 c 0,3,4
 590 99 590 99 655.5 185.5 c 128,-1,5
 721 272 721 272 727 431 c 1,6,-1
 331 431 l 1,7,-1
 331 554 l 1,8,-1
 727 554 l 1,9,10
 719 704 719 704 652.5 788 c 128,-1,11
 586 872 586 872 472 872 c 0,12,13
 372 872 372 872 313.5 828.5 c 128,-1,14
 255 785 255 785 229 691 c 1,15,-1
 85 717 l 1,16,17
 120 854 120 854 221 927.5 c 128,-1,18
 322 1001 322 1001 477 1001 c 0,19,20
 669 1001 669 1001 778.5 864 c 128,-1,21
 888 727 888 727 888 487 c 0,22,23
 888 330 888 330 836 213.5 c 128,-1,24
 784 97 784 97 689.5 33.5 c 128,-1,25
 595 -30 595 -30 466 -30 c 0,26,27
 295 -30 295 -30 193.5 53.5 c 128,-1,28
 92 137 92 137 75 291 c 1,0,-1
EndSplineSet
Validated: 1048577
EndChar

StartChar: uni044E
Encoding: 1102 1102 501
Width: 1441
Flags: W
LayerCount: 2
Fore
SplineSet
154 0 m 1,0,-1
 154 971 l 1,1,-1
 310 971 l 1,2,-1
 310 556 l 1,3,-1
 512 556 l 1,4,5
 528 766 528 766 638 883.5 c 128,-1,6
 748 1001 748 1001 931 1001 c 0,7,8
 1129 1001 1129 1001 1241 864 c 128,-1,9
 1353 727 1353 727 1353 485 c 0,10,11
 1353 244 1353 244 1241 107 c 128,-1,12
 1129 -30 1129 -30 931 -30 c 0,13,14
 745 -30 745 -30 634 92 c 128,-1,15
 523 214 523 214 511 431 c 1,16,-1
 310 431 l 1,17,-1
 310 0 l 1,18,-1
 154 0 l 1,0,-1
931 99 m 256,19,20
 1191 99 1191 99 1191 485 c 0,21,22
 1191 872 1191 872 931 872 c 256,23,24
 671 872 671 872 671 486 c 0,25,26
 671 99 671 99 931 99 c 256,19,20
EndSplineSet
Validated: 1
Substitution2: "'locl' Localized Forms in Cyrillic lookup 3 subtable" uni044E.loclBGR
EndChar

StartChar: uni044F
Encoding: 1103 1103 502
Width: 1017
Flags: W
LayerCount: 2
Fore
SplineSet
60 0 m 1,0,-1
 231 312 l 2,1,2
 275 393 275 393 327 420 c 1,3,4
 239 441 239 441 188.5 509 c 128,-1,5
 138 577 138 577 138 676 c 0,6,7
 138 971 138 971 496 971 c 2,8,-1
 863 971 l 1,9,-1
 863 0 l 1,10,-1
 707 0 l 1,11,-1
 707 390 l 1,12,-1
 577 390 l 2,13,14
 498 390 498 390 459.5 367 c 128,-1,15
 421 344 421 344 383 274 c 2,16,-1
 237 0 l 1,17,-1
 60 0 l 1,0,-1
484 516 m 2,18,-1
 707 516 l 1,19,-1
 707 845 l 1,20,-1
 498 845 l 2,21,22
 297 845 297 845 297 681 c 0,23,24
 297 516 297 516 484 516 c 2,18,-1
EndSplineSet
Validated: 1
EndChar

StartChar: uni0414.loclBGR
Encoding: 65572 -1 503
Width: 1305
Flags: W
LayerCount: 2
Fore
SplineSet
8 -321 m 1,0,-1
 8 146 l 1,1,-1
 133 146 l 1,2,-1
 566 1324 l 1,3,-1
 740 1324 l 1,4,-1
 1171 146 l 1,5,-1
 1298 146 l 1,6,-1
 1298 -321 l 1,7,-1
 1144 -321 l 1,8,-1
 1144 0 l 1,9,-1
 162 0 l 1,10,-1
 162 -321 l 1,11,-1
 8 -321 l 1,0,-1
303 146 m 1,12,-1
 992 146 l 1,13,-1
 647 1135 l 1,14,-1
 303 146 l 1,12,-1
EndSplineSet
Validated: 1
EndChar

StartChar: uni0424.loclBGR
Encoding: 65574 -1 505
Width: 1542
Flags: W
LayerCount: 2
Fore
SplineSet
110 660 m 256,0,1
 110 847 110 847 181.5 988.5 c 128,-1,2
 253 1130 253 1130 383.5 1215 c 128,-1,3
 514 1300 514 1300 692 1316 c 1,4,-1
 692 1465 l 1,5,-1
 850 1465 l 1,6,-1
 850 1316 l 1,7,8
 1028 1300 1028 1300 1158.5 1215 c 128,-1,9
 1289 1130 1289 1130 1360.5 988.5 c 128,-1,10
 1432 847 1432 847 1432 660 c 256,11,12
 1432 473 1432 473 1360.5 331.5 c 128,-1,13
 1289 190 1289 190 1158.5 105 c 128,-1,14
 1028 20 1028 20 850 4 c 1,15,-1
 850 -158 l 1,16,-1
 692 -158 l 1,17,-1
 692 4 l 1,18,19
 514 20 514 20 383.5 105 c 128,-1,20
 253 190 253 190 181.5 331.5 c 128,-1,21
 110 473 110 473 110 660 c 256,0,1
277 660 m 256,22,23
 277 433 277 433 384.5 300.5 c 128,-1,24
 492 168 492 168 692 146 c 1,25,-1
 692 1174 l 1,26,27
 492 1152 492 1152 384.5 1019.5 c 128,-1,28
 277 887 277 887 277 660 c 256,22,23
1265 660 m 256,29,30
 1265 887 1265 887 1157.5 1019.5 c 128,-1,31
 1050 1152 1050 1152 850 1174 c 1,32,-1
 850 146 l 1,33,34
 1050 168 1050 168 1157.5 300.5 c 128,-1,35
 1265 433 1265 433 1265 660 c 256,29,30
EndSplineSet
Validated: 1
EndChar

StartChar: uni0431.loclMKDSRB
Encoding: 65575 -1 506
Width: 1030
Flags: W
LayerCount: 2
Fore
SplineSet
88 425 m 0,0,1
 88 587 88 587 169.5 705 c 128,-1,2
 251 823 251 823 403 885 c 1,3,-1
 374 903 l 2,4,5
 242 986 242 986 242 1127 c 0,6,7
 242 1358 242 1358 580 1358 c 2,8,-1
 834 1358 l 1,9,-1
 834 1228 l 1,10,-1
 574 1228 l 2,11,12
 402 1228 402 1228 402 1117 c 0,13,14
 402 1075 402 1075 430 1041 c 128,-1,15
 458 1007 458 1007 523 969 c 2,16,-1
 609 920 l 2,17,18
 788 817 788 817 865 703 c 128,-1,19
 942 589 942 589 942 425 c 0,20,21
 942 290 942 290 888 187.5 c 128,-1,22
 834 85 834 85 738.5 27.5 c 128,-1,23
 643 -30 643 -30 516 -30 c 0,24,25
 388 -30 388 -30 291.5 27 c 128,-1,26
 195 84 195 84 141.5 186.5 c 128,-1,27
 88 289 88 289 88 425 c 0,0,1
251 425 m 0,28,29
 251 274 251 274 322.5 186.5 c 128,-1,30
 394 99 394 99 518 99 c 0,31,32
 640 99 640 99 710 185.5 c 128,-1,33
 780 272 780 272 780 420 c 0,34,35
 780 540 780 540 726 627.5 c 128,-1,36
 672 715 672 715 547 794 c 2,37,-1
 520 811 l 1,38,39
 251 725 251 725 251 425 c 0,28,29
EndSplineSet
Validated: 1
EndChar

StartChar: uni0432.loclBGR
Encoding: 65576 -1 507
Width: 1023
Flags: W
LayerCount: 2
Fore
SplineSet
134 365 m 2,0,-1
 134 962 l 2,1,2
 134 1149 134 1149 235 1253.5 c 128,-1,3
 336 1358 336 1358 514 1358 c 0,4,5
 689 1358 689 1358 785.5 1270 c 128,-1,6
 882 1182 882 1182 882 1021 c 0,7,8
 882 912 882 912 836 829.5 c 128,-1,9
 790 747 790 747 706 703 c 1,10,11
 823 670 823 670 888.5 579.5 c 128,-1,12
 954 489 954 489 954 360 c 0,13,14
 954 176 954 176 842.5 73 c 128,-1,15
 731 -30 731 -30 532 -30 c 0,16,17
 340 -30 340 -30 237 72.5 c 128,-1,18
 134 175 134 175 134 365 c 2,0,-1
514 1229 m 0,19,20
 405 1229 405 1229 347.5 1152.5 c 128,-1,21
 290 1076 290 1076 290 930 c 2,22,-1
 290 753 l 1,23,-1
 485 753 l 2,24,25
 726 753 726 753 726 1012 c 0,26,27
 726 1117 726 1117 671 1173 c 128,-1,28
 616 1229 616 1229 514 1229 c 0,19,20
290 373 m 2,29,30
 290 242 290 242 355.5 170.5 c 128,-1,31
 421 99 421 99 541 99 c 0,32,33
 660 99 660 99 727 167.5 c 128,-1,34
 794 236 794 236 794 358 c 0,35,36
 794 486 794 486 717 556.5 c 128,-1,37
 640 627 640 627 500 627 c 2,38,-1
 290 627 l 1,39,-1
 290 373 l 2,29,30
EndSplineSet
Validated: 1
EndChar

StartChar: uni0433.loclBGR
Encoding: 65577 -1 508
Width: 906
Flags: W
LayerCount: 2
Fore
SplineSet
74 257 m 0,0,1
 74 387 74 387 144.5 457 c 128,-1,2
 215 527 215 527 374 555 c 2,3,-1
 505 578 l 2,4,5
 600 595 600 595 637 628.5 c 128,-1,6
 674 662 674 662 674 730 c 0,7,8
 674 872 674 872 459 872 c 0,9,10
 365 872 365 872 311.5 836 c 128,-1,11
 258 800 258 800 231 718 c 1,12,-1
 90 743 l 1,13,14
 121 875 121 875 212.5 938 c 128,-1,15
 304 1001 304 1001 464 1001 c 0,16,17
 631 1001 631 1001 729.5 925 c 128,-1,18
 828 849 828 849 828 719 c 0,19,20
 828 598 828 598 756.5 534.5 c 128,-1,21
 685 471 685 471 510 436 c 2,22,-1
 393 413 l 2,23,24
 305 396 305 396 269 360.5 c 128,-1,25
 233 325 233 325 233 257 c 0,26,27
 233 99 233 99 445 99 c 0,28,29
 562 99 562 99 622 140 c 128,-1,30
 682 181 682 181 698 271 c 1,31,-1
 848 271 l 1,32,33
 839 125 839 125 734 47.5 c 128,-1,34
 629 -30 629 -30 441 -30 c 0,35,36
 269 -30 269 -30 171.5 46.5 c 128,-1,37
 74 123 74 123 74 257 c 0,0,1
EndSplineSet
Validated: 1
EndChar

StartChar: uni0434.loclBGR
Encoding: 65578 -1 509
Width: 1085
Flags: W
LayerCount: 2
Fore
SplineSet
125 -95 m 1,0,-1
 280 -95 l 1,1,2
 300 -183 300 -183 354 -219.5 c 128,-1,3
 408 -256 408 -256 522 -256 c 0,4,5
 656 -256 656 -256 715.5 -177.5 c 128,-1,6
 775 -99 775 -99 775 78 c 2,7,-1
 775 179 l 1,8,9
 725 102 725 102 647.5 60 c 128,-1,10
 570 18 570 18 475 18 c 0,11,12
 296 18 296 18 192 149 c 128,-1,13
 88 280 88 280 88 506 c 0,14,15
 88 657 88 657 137.5 768 c 128,-1,16
 187 879 187 879 277.5 940 c 128,-1,17
 368 1001 368 1001 490 1001 c 0,18,19
 670 1001 670 1001 777 847 c 1,20,-1
 777 971 l 1,21,-1
 931 971 l 1,22,-1
 931 156 l 2,23,24
 931 -135 931 -135 837 -260 c 128,-1,25
 743 -385 743 -385 524 -385 c 0,26,27
 337 -385 337 -385 239.5 -314 c 128,-1,28
 142 -243 142 -243 125 -95 c 1,0,-1
778 490 m 2,29,-1
 778 521 l 2,30,31
 778 687 778 687 708 780 c 0,32,33
 639 872 639 872 515 872 c 0,34,35
 389 872 389 872 319.5 776.5 c 128,-1,36
 250 681 250 681 250 508 c 0,37,38
 250 340 250 340 318.5 243.5 c 128,-1,39
 387 147 387 147 505 147 c 0,40,41
 635 147 635 147 707 241 c 0,42,43
 778 332 778 332 778 490 c 2,29,-1
EndSplineSet
Validated: 1
EndChar

StartChar: uni0436.loclBGR
Encoding: 65579 -1 510
Width: 1368
Flags: W
LayerCount: 2
Fore
SplineSet
20 0 m 1,0,-1
 265 381 l 2,1,2
 321 469 321 469 395 499 c 1,3,4
 348 521 348 521 321.5 550.5 c 128,-1,5
 295 580 295 580 271 636 c 2,6,-1
 218 761 l 2,7,8
 196 811 196 811 176 828 c 128,-1,9
 156 845 156 845 116 845 c 0,10,11
 88 845 88 845 60 838 c 1,12,-1
 47 960 l 1,13,14
 80 971 80 971 124 971 c 0,15,16
 214 971 214 971 259.5 936.5 c 128,-1,17
 305 902 305 902 348 801 c 0,18,19
 359 776 359 776 369.5 750 c 128,-1,20
 380 724 380 724 392 698 c 0,21,22
 430 618 430 618 468.5 583.5 c 128,-1,23
 507 549 507 549 571 549 c 2,24,-1
 610 549 l 1,25,-1
 610 1324 l 1,26,-1
 759 1324 l 1,27,-1
 759 549 l 1,28,-1
 797 549 l 2,29,30
 859 549 859 549 896 581 c 128,-1,31
 933 613 933 613 975 698 c 0,32,33
 988 724 988 724 999.5 750 c 128,-1,34
 1011 776 1011 776 1023 801 c 0,35,36
 1070 899 1070 899 1116.5 935 c 128,-1,37
 1163 971 1163 971 1247 971 c 0,38,39
 1288 971 1288 971 1324 960 c 1,40,-1
 1310 838 l 1,41,42
 1284 845 1284 845 1255 845 c 0,43,44
 1210 845 1210 845 1187.5 823 c 128,-1,45
 1165 801 1165 801 1131 724 c 2,46,-1
 1092 636 l 2,47,48
 1047 535 1047 535 976 501 c 1,49,50
 1018 485 1018 485 1051.5 450 c 128,-1,51
 1085 415 1085 415 1129 345 c 2,52,-1
 1348 0 l 1,53,-1
 1174 0 l 1,54,-1
 963 334 l 2,55,56
 927 391 927 391 895.5 411 c 128,-1,57
 864 431 864 431 810 431 c 2,58,-1
 759 431 l 1,59,-1
 759 0 l 1,60,-1
 610 0 l 1,61,-1
 610 431 l 1,62,-1
 557 431 l 2,63,64
 496 431 496 431 462 406.5 c 128,-1,65
 428 382 428 382 377 301 c 2,66,-1
 189 0 l 1,67,-1
 20 0 l 1,0,-1
EndSplineSet
Validated: 1
EndChar

StartChar: uni0437.loclBGR
Encoding: 65580 -1 511
Width: 985
Flags: W
LayerCount: 2
Fore
SplineSet
62 -10 m 1,0,-1
 211 -10 l 1,1,2
 228 -140 228 -140 294 -198 c 128,-1,3
 360 -256 360 -256 489 -256 c 0,4,5
 608 -256 608 -256 673 -187.5 c 128,-1,6
 738 -119 738 -119 738 5 c 0,7,8
 738 271 738 271 460 271 c 2,9,-1
 316 271 l 1,10,-1
 316 401 l 1,11,-1
 469 401 l 2,12,13
 591 401 591 401 655 463 c 128,-1,14
 719 525 719 525 719 643 c 0,15,16
 719 753 719 753 659 812.5 c 128,-1,17
 599 872 599 872 489 872 c 0,18,19
 282 872 282 872 237 653 c 1,20,-1
 89 679 l 1,21,22
 118 837 118 837 223.5 919 c 128,-1,23
 329 1001 329 1001 501 1001 c 0,24,25
 674 1001 674 1001 775.5 909 c 128,-1,26
 877 817 877 817 877 659 c 0,27,28
 877 557 877 557 826 470.5 c 128,-1,29
 775 384 775 384 694 343 c 1,30,31
 790 304 790 304 845 214 c 128,-1,32
 900 124 900 124 900 5 c 0,33,34
 900 -177 900 -177 789 -281 c 128,-1,35
 678 -385 678 -385 484 -385 c 0,36,37
 294 -385 294 -385 182.5 -286.5 c 128,-1,38
 71 -188 71 -188 62 -10 c 1,0,-1
EndSplineSet
Validated: 1
EndChar

StartChar: uni0438.loclBGR
Encoding: 65581 -1 512
Width: 1063
GlyphClass: 2
Flags: W
AnchorPoint: "Anchor-2" 530 1021 basechar 0
LayerCount: 2
Fore
SplineSet
150 971 m 1,0,-1
 306 971 l 1,1,-1
 306 354 l 2,2,3
 306 221 306 221 346.5 162.5 c 128,-1,4
 387 104 387 104 481 104 c 0,5,6
 581 104 581 104 664 184 c 0,7,8
 711 229 711 229 732 277.5 c 128,-1,9
 753 326 753 326 753 392 c 2,10,-1
 753 971 l 1,11,-1
 909 971 l 1,12,-1
 909 0 l 1,13,-1
 755 0 l 1,14,-1
 755 152 l 1,15,16
 628 -30 628 -30 444 -30 c 0,17,18
 293 -30 293 -30 221.5 55.5 c 128,-1,19
 150 141 150 141 150 323 c 2,20,-1
 150 971 l 1,0,-1
EndSplineSet
Validated: 1048577
EndChar

StartChar: uni043A.loclBGR
Encoding: 65582 -1 513
Width: 944
Flags: W
LayerCount: 2
Fore
SplineSet
154 0 m 1,0,-1
 154 1324 l 1,1,-1
 310 1324 l 1,2,-1
 310 550 l 1,3,-1
 370 550 l 2,4,5
 435 550 435 550 472.5 582 c 128,-1,6
 510 614 510 614 550 697 c 0,7,8
 564 726 564 726 576.5 755 c 128,-1,9
 589 784 589 784 602 813 c 0,10,11
 643 902 643 902 690 936.5 c 128,-1,12
 737 971 737 971 819 971 c 0,13,14
 876 971 876 971 907 960 c 1,15,-1
 891 837 l 1,16,17
 867 845 867 845 836 845 c 0,18,19
 795 845 795 845 772 826 c 128,-1,20
 749 807 749 807 726 754 c 2,21,-1
 675 637 l 2,22,23
 631 536 631 536 557 500 c 1,24,25
 595 484 595 484 623 457.5 c 128,-1,26
 651 431 651 431 682 381 c 2,27,-1
 924 0 l 1,28,-1
 744 0 l 1,29,-1
 534 336 l 2,30,31
 498 393 498 393 465 412.5 c 128,-1,32
 432 432 432 432 371 432 c 2,33,-1
 310 432 l 1,34,-1
 310 0 l 1,35,-1
 154 0 l 1,0,-1
EndSplineSet
Validated: 1
EndChar

StartChar: uni043B.loclBGR
Encoding: 65583 -1 514
Width: 917
Flags: W
LayerCount: 2
Fore
SplineSet
10 0 m 1,0,-1
 376 971 l 1,1,-1
 543 971 l 1,2,-1
 907 0 l 1,3,-1
 725 0 l 1,4,-1
 456 793 l 1,5,-1
 183 0 l 1,6,-1
 10 0 l 1,0,-1
EndSplineSet
Validated: 1
EndChar

StartChar: uni043F.loclBGR
Encoding: 65584 -1 515
Width: 1078
Flags: W
LayerCount: 2
Fore
SplineSet
154 0 m 1,0,-1
 154 971 l 1,1,-1
 308 971 l 1,2,-1
 308 824 l 1,3,4
 438 1001 438 1001 626 1001 c 0,5,6
 928 1001 928 1001 928 650 c 2,7,-1
 928 0 l 1,8,-1
 772 0 l 1,9,-1
 772 619 l 2,10,11
 772 749 772 749 728.5 807.5 c 128,-1,12
 685 866 685 866 589 866 c 0,13,14
 479 866 479 866 399 788 c 0,15,16
 351 742 351 742 330.5 694 c 128,-1,17
 310 646 310 646 310 580 c 2,18,-1
 310 0 l 1,19,-1
 154 0 l 1,0,-1
EndSplineSet
Validated: 1
EndChar

StartChar: uni0442.loclBGR
Encoding: 65585 -1 516
Width: 1652
Flags: W
LayerCount: 2
Fore
SplineSet
154 0 m 1,0,-1
 154 971 l 1,1,-1
 308 971 l 1,2,-1
 308 819 l 1,3,4
 438 1001 438 1001 614 1001 c 0,5,6
 818 1001 818 1001 881 818 c 1,7,8
 1014 1001 1014 1001 1210 1001 c 0,9,10
 1502 1001 1502 1001 1502 676 c 2,11,-1
 1502 0 l 1,12,-1
 1346 0 l 1,13,-1
 1346 639 l 2,14,15
 1346 761 1346 761 1306.5 813.5 c 128,-1,16
 1267 866 1267 866 1175 866 c 0,17,18
 1065 866 1065 866 985 798 c 0,19,20
 906 730 906 730 906 617 c 2,21,-1
 906 0 l 1,22,-1
 750 0 l 1,23,-1
 750 637 l 2,24,25
 750 756 750 756 709 811 c 128,-1,26
 668 866 668 866 581 866 c 0,27,28
 479 866 479 866 394 787 c 0,29,30
 310 709 310 709 310 583 c 2,31,-1
 310 0 l 1,32,-1
 154 0 l 1,0,-1
EndSplineSet
Validated: 1
EndChar

